{
.appVersion = "1141";
DisplayStrings = (
"Roboto Slab\012ABCDEFGHIJKLMNOPQRSTUVWXYZ\012/a.sc/b.sc/c.sc/d.sc/e.sc/f.sc/g.sc/h.sc/i.sc/j.sc/k.sc/l.sc/m.sc/n.sc/o.sc/p.sc/q.sc/r.sc/s.sc/t.sc/u.sc/v.sc/w.sc/x.sc/y.sc/z.sc \012abcdefghijklmnopqrstuvwxyz\0121234567890 &",

glyphs = (
{
glyphname = A;
lastChange = "2018-07-30 17:10:59 +0000";
layers = (
{
anchors = (
{
name = bottom;
position = "{736, 0}";
},
{
name = ogonek;
position = "{1384, 0}";
},
{
name = top;
position = "{719, 1345}";
}
);
layerId = "0331963E-C1C8-4E93-A463-84B984C1D75E";
paths = (
{
closed = 1;
nodes = (
"364 0 LINE",
"364 54 LINE",
"221 54 LINE",
"363 435 LINE",
"1075 435 LINE",
"1218 54 LINE",
"1075 54 LINE",
"1075 0 LINE",
"1384 0 LINE",
"1384 54 LINE",
"1277 54 LINE",
"752 1456 LINE",
"686 1456 LINE",
"162 54 LINE",
"55 54 LINE",
"55 0 LINE"
);
},
{
closed = 1;
nodes = (
"689 1309 LINE",
"716 1391 LINE",
"722 1391 LINE",
"750 1309 LINE",
"1055 489 LINE",
"383 489 LINE"
);
}
);
width = 1472;
},
{
anchors = (
{
name = bottom;
position = "{767, 0}";
},
{
name = ogonek;
position = "{1463, 0}";
},
{
name = top;
position = "{770, 1376}";
}
);
layerId = "B06AEEA2-953E-4FA5-BFB1-0445B6E4B274";
paths = (
{
closed = 1;
nodes = (
"487 0 LINE",
"487 126 LINE",
"377 145 LINE",
"476 413 LINE",
"1059 413 LINE",
"1155 145 LINE",
"1045 126 LINE",
"1045 0 LINE",
"1463 0 LINE",
"1463 126 LINE",
"1356 141 LINE",
"856 1456 LINE",
"687 1456 LINE",
"178 141 LINE",
"70 126 LINE",
"70 0 LINE"
);
},
{
closed = 1;
nodes = (
"755 1170 LINE",
"767 1203 LINE",
"773 1203 LINE",
"785 1170 LINE",
"999 578 LINE",
"537 578 LINE"
);
}
);
width = 1533;
},
{
anchors = (
{
name = bottom;
position = "{750, 0}";
},
{
name = ogonek;
position = "{1476, 0}";
},
{
name = top;
position = "{750, 1356}";
}
);
layerId = "55372407-EEEC-4390-8B77-FB5958F23D2B";
paths = (
{
closed = 1;
nodes = (
"568 0 LINE",
"568 205 LINE",
"473 223 LINE",
"515 381 LINE",
"983 381 LINE",
"1027 223 LINE",
"932 205 LINE",
"932 0 LINE",
"1476 0 LINE",
"1476 205 LINE",
"1374 220 LINE",
"939 1456 LINE",
"559 1456 LINE",
"125 220 LINE",
"23 205 LINE",
"23 0 LINE"
);
},
{
closed = 1;
nodes = (
"727 1063 LINE",
"744 1119 LINE",
"750 1119 LINE",
"766 1068 LINE",
"908 627 LINE",
"589 627 LINE"
);
}
);
width = 1499;
}
);
leftKerningGroup = A;
rightKerningGroup = A;
unicode = 0041;
},
{
glyphname = Aacute;
lastChange = "2018-07-30 18:14:37 +0000";
layers = (
{
components = (
{
name = A;
},
{
name = acutecomb;
transform = "{1, 0, 0, 1, 619, 263}";
}
);
layerId = "0331963E-C1C8-4E93-A463-84B984C1D75E";
width = 1472;
},
{
components = (
{
name = A;
},
{
name = acutecomb;
transform = "{1, 0, 0, 1, 609, 294}";
}
);
layerId = "B06AEEA2-953E-4FA5-BFB1-0445B6E4B274";
width = 1533;
},
{
components = (
{
name = A;
},
{
name = acutecomb;
transform = "{1, 0, 0, 1, 502, 274}";
}
);
layerId = "55372407-EEEC-4390-8B77-FB5958F23D2B";
width = 1499;
},
{
associatedMasterId = "B06AEEA2-953E-4FA5-BFB1-0445B6E4B274";
layerId = "CF37F567-B3A6-42C2-B4E1-40AF44398478";
name = "Jul 25 18, 16:57";
paths = (
{
closed = 1;
nodes = (
"178 141 LINE",
"687 1456 LINE",
"856 1456 LINE",
"1356 141 LINE",
"1463 126 LINE",
"1463 0 LINE",
"1045 0 LINE",
"1045 126 LINE",
"1155 145 LINE",
"1059 413 LINE",
"476 413 LINE",
"377 145 LINE",
"487 126 LINE",
"487 0 LINE",
"70 0 LINE",
"70 126 LINE"
);
},
{
closed = 1;
nodes = (
"999 578 LINE",
"785 1170 LINE",
"773 1203 LINE",
"767 1203 LINE",
"755 1170 LINE",
"537 578 LINE"
);
},
{
closed = 1;
nodes = (
"1046 1822 LINE",
"1048 1816 LINE",
"779 1556 LINE",
"641 1556 LINE",
"632 1556 LINE",
"816 1822 LINE"
);
}
);
width = 1533;
},
{
anchors = (
{
name = _top;
position = "{737, 1415}";
},
{
name = top;
position = "{737, 1811}";
}
);
associatedMasterId = "0331963E-C1C8-4E93-A463-84B984C1D75E";
layerId = "DABE19C3-14C2-4DC8-87E0-9E90B3DFAC83";
name = "Jul 25 18, 17:13";
paths = (
{
closed = 1;
nodes = (
"162 54 LINE",
"686 1456 LINE",
"752 1456 LINE",
"1277 54 LINE",
"1384 54 LINE",
"1384 0 LINE",
"1075 0 LINE",
"1075 54 LINE",
"1218 54 LINE",
"1075 435 LINE",
"363 435 LINE",
"221 54 LINE",
"364 54 LINE",
"364 0 LINE",
"55 0 LINE",
"55 54 LINE"
);
},
{
closed = 1;
nodes = (
"1055 489 LINE",
"750 1309 LINE",
"722 1391 LINE",
"716 1391 LINE",
"689 1309 LINE",
"383 489 LINE"
);
},
{
closed = 1;
nodes = (
"933 1811 LINE",
"935 1806 LINE",
"694 1545 LINE",
"649 1545 LINE",
"647 1550 LINE",
"869 1811 LINE"
);
}
);
width = 1472;
}
);
leftKerningGroup = A;
rightKerningGroup = A;
unicode = 00C1;
},
{
glyphname = Aringacute;
lastChange = "2018-07-30 19:30:48 +0000";
layers = (
{
components = (
{
name = A;
},
{
name = ringcomb_acutecomb.case;
transform = "{1, 0, 0, 1, 518, 263}";
}
);
layerId = "0331963E-C1C8-4E93-A463-84B984C1D75E";
width = 1472;
},
{
components = (
{
name = A;
},
{
name = ringcomb_acutecomb.case;
transform = "{1, 0, 0, 1, 528, 294}";
}
);
layerId = "B06AEEA2-953E-4FA5-BFB1-0445B6E4B274";
width = 1533;
},
{
components = (
{
name = A;
},
{
name = ringcomb_acutecomb.case;
transform = "{1, 0, 0, 1, 462, 274}";
}
);
layerId = "55372407-EEEC-4390-8B77-FB5958F23D2B";
width = 1499;
},
{
anchors = (
{
name = _top;
position = "{777.5, 1386}";
},
{
name = bottom;
position = "{767, 0}";
},
{
name = ogonek;
position = "{1463, 0}";
},
{
name = top;
position = "{767, 1376}";
}
);
associatedMasterId = "B06AEEA2-953E-4FA5-BFB1-0445B6E4B274";
layerId = "AEF12807-F076-4690-8D96-FCA26769A35F";
name = "Jul 27 18, 14:29";
paths = (
{
closed = 1;
nodes = (
"487 0 LINE",
"487 126 LINE",
"377 145 LINE",
"476 413 LINE",
"1059 413 LINE",
"1155 145 LINE",
"1045 126 LINE",
"1045 0 LINE",
"1463 0 LINE",
"1463 126 LINE",
"1356 141 LINE",
"856 1456 LINE",
"687 1456 LINE",
"178 141 LINE",
"70 126 LINE",
"70 0 LINE"
);
},
{
closed = 1;
nodes = (
"755 1170 LINE",
"767 1203 LINE",
"773 1203 LINE",
"785 1170 LINE",
"999 578 LINE",
"537 578 LINE"
);
},
{
closed = 1;
nodes = (
"892 1364 OFFCURVE",
"984 1443 OFFCURVE",
"984 1558 CURVE SMOOTH",
"984 1671 OFFCURVE",
"892 1756 OFFCURVE",
"779 1756 CURVE SMOOTH",
"663 1756 OFFCURVE",
"571 1670 OFFCURVE",
"571 1558 CURVE SMOOTH",
"571 1443 OFFCURVE",
"663 1364 OFFCURVE",
"779 1364 CURVE SMOOTH"
);
},
{
closed = 1;
nodes = (
"722 1454 OFFCURVE",
"674 1501 OFFCURVE",
"674 1558 CURVE SMOOTH",
"674 1618 OFFCURVE",
"720 1665 OFFCURVE",
"779 1665 CURVE SMOOTH",
"835 1665 OFFCURVE",
"881 1618 OFFCURVE",
"881 1558 CURVE SMOOTH",
"881 1498 OFFCURVE",
"835 1454 OFFCURVE",
"779 1454 CURVE SMOOTH"
);
},
{
closed = 1;
nodes = (
"1071 2119 LINE",
"1073 2113 LINE",
"804 1847 LINE",
"666 1847 LINE",
"657 1847 LINE",
"841 2119 LINE"
);
}
);
width = 1500;
}
);
leftKerningGroup = A;
rightKerningGroup = A;
unicode = 01FA;
},
{
glyphname = AE;
lastChange = "2018-07-27 21:54:15 +0000";
layers = (
{
anchors = (
{
name = bottom;
position = "{1053, 0}";
},
{
name = top;
position = "{1097, 1345}";
}
);
layerId = "0331963E-C1C8-4E93-A463-84B984C1D75E";
paths = (
{
closed = 1;
nodes = (
"366 0 LINE",
"366 54 LINE",
"235 54 LINE",
"458 425 LINE",
"1086 425 LINE",
"1101 54 LINE",
"941 54 LINE",
"941 0 LINE",
"1856 0 LINE",
"1856 293 LINE",
"1802 293 LINE",
"1802 54 LINE",
"1155 54 LINE",
"1127 732 LINE",
"1713 732 LINE",
"1713 786 LINE",
"1125 786 LINE",
"1099 1402 LINE",
"1741 1402 LINE",
"1741 1163 LINE",
"1795 1163 LINE",
"1795 1456 LINE",
"1019 1456 LINE",
"170 54 LINE",
"51 54 LINE",
"51 0 LINE"
);
},
{
closed = 1;
nodes = (
"983 1298 LINE",
"1040 1403 LINE",
"1045 1402 LINE",
"1084 478 LINE",
"490 478 LINE"
);
}
);
width = 2026;
},
{
anchors = (
{
name = bottom;
position = "{1088, 0}";
},
{
name = top;
position = "{1158, 1376}";
}
);
layerId = "B06AEEA2-953E-4FA5-BFB1-0445B6E4B274";
paths = (
{
closed = 1;
nodes = (
"509 0 LINE",
"509 126 LINE",
"427 140 LINE",
"548 350 LINE",
"1104 350 LINE",
"1112 153 LINE",
"956 126 LINE",
"956 0 LINE",
"2014 0 LINE",
"2014 321 LINE",
"1847 321 LINE",
"1831 154 LINE",
"1309 154 LINE",
"1287 680 LINE",
"1871 680 LINE",
"1871 835 LINE",
"1281 835 LINE",
"1261 1301 LINE",
"1769 1301 LINE",
"1784 1134 LINE",
"1952 1134 LINE",
"1952 1456 LINE",
"985 1456 LINE",
"192 146 LINE",
"51 126 LINE",
"51 0 LINE"
);
},
{
closed = 1;
nodes = (
"1053 1227 LINE",
"1061 1241 LINE",
"1066 1239 LINE",
"1097 529 LINE",
"651 529 LINE"
);
}
);
width = 2096;
},
{
anchors = (
{
name = bottom;
position = "{1085, 0}";
},
{
name = top;
position = "{1149, 1356}";
}
);
layerId = "55372407-EEEC-4390-8B77-FB5958F23D2B";
paths = (
{
closed = 1;
nodes = (
"693 0 LINE",
"693 205 LINE",
"605 219 LINE",
"671 356 LINE",
"1052 356 LINE",
"1057 234 LINE",
"911 205 LINE",
"911 0 LINE",
"1996 0 LINE",
"1996 397 LINE",
"1738 397 LINE",
"1728 272 LINE",
"1406 272 LINE",
"1391 607 LINE",
"1850 607 LINE",
"1850 879 LINE",
"1380 879 LINE",
"1366 1183 LINE",
"1665 1183 LINE",
"1675 1058 LINE",
"1934 1058 LINE",
"1934 1456 LINE",
"856 1456 LINE",
"213 225 LINE",
"75 205 LINE",
"75 0 LINE"
);
},
{
closed = 1;
nodes = (
"1004 1047 LINE",
"1015 1072 LINE",
"1020 1072 LINE",
"1040 615 LINE",
"795 615 LINE"
);
}
);
width = 2090;
}
);
unicode = 00C6;
},
{
glyphname = B;
lastChange = "2018-07-30 19:55:56 +0000";
layers = (
{
anchors = (
{
name = bottom;
position = "{645, 0}";
},
{
name = top;
position = "{645, 1345}";
}
);
layerId = "0331963E-C1C8-4E93-A463-84B984C1D75E";
paths = (
{
closed = 1;
nodes = (
"709 0 LINE SMOOTH",
"979.667 0 OFFCURVE",
"1159 146.333 OFFCURVE",
"1159 401 CURVE SMOOTH",
"1159 577 OFFCURVE",
"1018.333 729 OFFCURVE",
"837 753 CURVE",
"999.667 782.333 OFFCURVE",
"1093 909.667 OFFCURVE",
"1093 1083 CURVE SMOOTH",
"1093 1332.333 OFFCURVE",
"918.333 1456 OFFCURVE",
"617 1456 CURVE SMOOTH",
"234 1456 LINE",
"71 1456 LINE",
"71 1402 LINE",
"234 1402 LINE",
"234 54 LINE",
"71 54 LINE",
"71 0 LINE"
);
},
{
closed = 1;
nodes = (
"288 719 LINE",
"719 719 LINE SMOOTH",
"963 719 OFFCURVE",
"1105 577.667 OFFCURVE",
"1105 399 CURVE SMOOTH",
"1105 181.667 OFFCURVE",
"954.333 54 OFFCURVE",
"709 54 CURVE SMOOTH",
"288 54 LINE"
);
},
{
closed = 1;
nodes = (
"288 1402 LINE",
"617 1402 LINE SMOOTH",
"894.333 1402 OFFCURVE",
"1038 1295 OFFCURVE",
"1038 1087 CURVE SMOOTH",
"1038 875 OFFCURVE",
"902.333 773 OFFCURVE",
"637 773 CURVE SMOOTH",
"288 773 LINE"
);
}
);
width = 1247;
},
{
anchors = (
{
name = bottom;
position = "{669, 0}";
},
{
name = top;
position = "{669, 1376}";
}
);
layerId = "B06AEEA2-953E-4FA5-BFB1-0445B6E4B274";
paths = (
{
closed = 1;
nodes = (
"771 0 LINE SMOOTH",
"1067 0 OFFCURVE",
"1253 144 OFFCURVE",
"1253 411 CURVE SMOOTH",
"1253 590 OFFCURVE",
"1145 738 OFFCURVE",
"970 775 CURVE",
"1105 824 OFFCURVE",
"1194 933 OFFCURVE",
"1194 1062 CURVE SMOOTH",
"1194 1325 OFFCURVE",
"1013 1456 OFFCURVE",
"709 1456 CURVE SMOOTH",
"244 1456 LINE",
"81 1456 LINE",
"81 1329 LINE",
"244 1301 LINE",
"244 154 LINE",
"81 126 LINE",
"81 0 LINE"
);
},
{
closed = 1;
nodes = (
"441 683 LINE",
"801 683 LINE SMOOTH",
"973 683 OFFCURVE",
"1055 580 OFFCURVE",
"1055 409 CURVE SMOOTH",
"1055 246 OFFCURVE",
"951 154 OFFCURVE",
"771 154 CURVE SMOOTH",
"441 154 LINE"
);
},
{
closed = 1;
nodes = (
"441 1301 LINE",
"709 1301 LINE SMOOTH",
"896 1301 OFFCURVE",
"997 1223 OFFCURVE",
"997 1066 CURVE SMOOTH",
"997 925 OFFCURVE",
"901 837 OFFCURVE",
"760 837 CURVE SMOOTH",
"441 837 LINE"
);
}
);
width = 1322;
},
{
anchors = (
{
name = bottom;
position = "{682, 0}";
},
{
name = top;
position = "{682, 1356}";
}
);
layerId = "55372407-EEEC-4390-8B77-FB5958F23D2B";
paths = (
{
closed = 1;
nodes = (
"773 0 LINE SMOOTH",
"1136 0 OFFCURVE",
"1331 146 OFFCURVE",
"1331 432 CURVE SMOOTH",
"1331 582 OFFCURVE",
"1256 708 OFFCURVE",
"1082 746 CURVE",
"1218 802 OFFCURVE",
"1282 916 OFFCURVE",
"1282 1054 CURVE SMOOTH",
"1282 1321 OFFCURVE",
"1066 1456 OFFCURVE",
"699 1456 CURVE SMOOTH",
"191 1456 LINE",
"40 1456 LINE",
"40 1250 LINE",
"191 1218 LINE",
"191 237 LINE",
"40 205 LINE",
"40 0 LINE"
);
},
{
closed = 1;
nodes = (
"542 620 LINE",
"790 620 LINE SMOOTH",
"925 620 OFFCURVE",
"982 558 OFFCURVE",
"982 433 CURVE SMOOTH",
"982 321 OFFCURVE",
"912 267 OFFCURVE",
"773 267 CURVE SMOOTH",
"542 267 LINE"
);
},
{
closed = 1;
nodes = (
"542 1188 LINE",
"699 1188 LINE SMOOTH",
"855 1188 OFFCURVE",
"931 1135 OFFCURVE",
"931 1014 CURVE SMOOTH",
"931 903 OFFCURVE",
"849 852 OFFCURVE",
"684 852 CURVE SMOOTH",
"542 852 LINE"
);
}
);
width = 1358;
}
);
rightKerningGroup = B;
unicode = 0042;
},
{
glyphname = C;
lastChange = "2018-07-27 21:55:21 +0000";
layers = (
{
anchors = (
{
name = bottom;
position = "{747, 0}";
},
{
name = top;
position = "{747, 1345}";
}
);
layerId = "0331963E-C1C8-4E93-A463-84B984C1D75E";
paths = (
{
closed = 1;
nodes = (
"958 -21 OFFCURVE",
"1105 19 OFFCURVE",
"1231 103 CURVE",
"1231 372 LINE",
"1176 372 LINE",
"1176 137 LINE",
"1081 73 OFFCURVE",
"937 33 OFFCURVE",
"791 33 CURVE SMOOTH",
"410 33 OFFCURVE",
"184 310 OFFCURVE",
"184 719 CURVE SMOOTH",
"184 739 LINE SMOOTH",
"184 1147 OFFCURVE",
"422 1423 OFFCURVE",
"767 1423 CURVE SMOOTH",
"958 1423 OFFCURVE",
"1052 1377 OFFCURVE",
"1161 1296 CURVE",
"1161 1062 LINE",
"1216 1062 LINE",
"1216 1319 LINE",
"1097 1423 OFFCURVE",
"978 1477 OFFCURVE",
"767 1477 CURVE SMOOTH",
"387 1477 OFFCURVE",
"130 1177 OFFCURVE",
"130 737 CURVE SMOOTH",
"130 719 LINE SMOOTH",
"130 280 OFFCURVE",
"369 -21 OFFCURVE",
"794 -21 CURVE SMOOTH"
);
}
);
width = 1348;
},
{
anchors = (
{
name = bottom;
position = "{710, 0}";
},
{
name = top;
position = "{710, 1376}";
}
);
layerId = "B06AEEA2-953E-4FA5-BFB1-0445B6E4B274";
paths = (
{
closed = 1;
nodes = (
"900 -21 OFFCURVE",
"1061 19 OFFCURVE",
"1170 87 CURVE",
"1170 403 LINE",
"1016 403 LINE",
"994 200 LINE",
"935 164 OFFCURVE",
"839 139 OFFCURVE",
"746 139 CURVE SMOOTH",
"445 139 OFFCURVE",
"278 350 OFFCURVE",
"278 717 CURVE SMOOTH",
"278 740 LINE SMOOTH",
"278 1077 OFFCURVE",
"435 1314 OFFCURVE",
"721 1314 CURVE SMOOTH",
"838 1314 OFFCURVE",
"932 1286 OFFCURVE",
"996 1237 CURVE",
"1017 1007 LINE",
"1174 1007 LINE",
"1174 1321 LINE",
"1071 1412 OFFCURVE",
"910 1477 OFFCURVE",
"722 1477 CURVE SMOOTH",
"321 1477 OFFCURVE",
"80 1165 OFFCURVE",
"80 738 CURVE SMOOTH",
"80 717 LINE SMOOTH",
"80 293 OFFCURVE",
"300 -21 OFFCURVE",
"739 -21 CURVE SMOOTH"
);
}
);
width = 1290;
},
{
anchors = (
{
name = bottom;
position = "{724, 0}";
},
{
name = top;
position = "{724, 1356}";
}
);
layerId = "55372407-EEEC-4390-8B77-FB5958F23D2B";
paths = (
{
closed = 1;
nodes = (
"990 -21 OFFCURVE",
"1172 48 OFFCURVE",
"1288 128 CURVE",
"1288 495 LINE",
"1032 495 LINE",
"997 289 LINE",
"921 261 OFFCURVE",
"838 243 OFFCURVE",
"759 243 CURVE SMOOTH",
"536 243 OFFCURVE",
"385 426 OFFCURVE",
"385 694 CURVE SMOOTH",
"385 763 LINE SMOOTH",
"385 1049 OFFCURVE",
"531 1213 OFFCURVE",
"753 1213 CURVE SMOOTH",
"851 1213 OFFCURVE",
"928 1184 OFFCURVE",
"996 1138 CURVE",
"1031 923 LINE",
"1286 923 LINE",
"1286 1298 LINE",
"1129 1428 OFFCURVE",
"943 1477 OFFCURVE",
"741 1477 CURVE SMOOTH",
"305 1477 OFFCURVE",
"35 1181 OFFCURVE",
"35 761 CURVE SMOOTH",
"35 694 LINE SMOOTH",
"35 238 OFFCURVE",
"338 -21 OFFCURVE",
"755 -21 CURVE SMOOTH"
);
}
);
width = 1340;
}
);
leftKerningGroup = C;
rightKerningGroup = C;
unicode = 0043;
userData = {
com.typemytype.robofont.layerData = {
mask = {
anchors = (
);
components = (
);
contours = (
{
points = (
{
segmentType = line;
smooth = 0;
x = 1256;
y = 992;
},
{
segmentType = line;
smooth = 0;
x = 1201;
y = 992;
},
{
segmentType = line;
smooth = 0;
x = 1201;
y = 1226;
},
{
smooth = 0;
x = 1111.66667;
y = 1346;
},
{
smooth = 0;
x = 957.66667;
y = 1423;
},
{
segmentType = curve;
smooth = 1;
x = 767;
y = 1423;
},
{
smooth = 0;
x = 421.66667;
y = 1423;
},
{
smooth = 0;
x = 184;
y = 1147;
},
{
segmentType = curve;
smooth = 1;
x = 184;
y = 739;
},
{
segmentType = line;
smooth = 1;
x = 184;
y = 719;
},
{
smooth = 0;
x = 184;
y = 309.66667;
},
{
smooth = 0;
x = 422.33333;
y = 33;
},
{
segmentType = curve;
smooth = 1;
x = 757;
y = 33;
},
{
smooth = 0;
x = 949;
y = 33;
},
{
smooth = 0;
x = 1113;
y = 110;
},
{
segmentType = curve;
smooth = 0;
x = 1201;
y = 230;
},
{
segmentType = line;
smooth = 0;
x = 1201;
y = 464;
},
{
segmentType = line;
smooth = 0;
x = 1256;
y = 464;
},
{
segmentType = line;
smooth = 0;
x = 1256;
y = 210;
},
{
smooth = 0;
x = 1158.66667;
y = 67.33333;
},
{
smooth = 0;
x = 970.33333;
y = -21;
},
{
segmentType = curve;
smooth = 1;
x = 757;
y = -21;
},
{
smooth = 0;
x = 387.66667;
y = -21;
},
{
smooth = 0;
x = 130;
y = 280.33333;
},
{
segmentType = curve;
smooth = 1;
x = 130;
y = 719;
},
{
segmentType = line;
smooth = 1;
x = 130;
y = 737;
},
{
smooth = 0;
x = 130;
y = 1177;
},
{
smooth = 0;
x = 387;
y = 1477;
},
{
segmentType = curve;
smooth = 1;
x = 767;
y = 1477;
},
{
smooth = 0;
x = 977.66667;
y = 1477;
},
{
smooth = 0;
x = 1157.33333;
y = 1388.66667;
},
{
segmentType = curve;
smooth = 0;
x = 1256;
y = 1246;
}
);
}
);
lib = {
};
name = C;
unicodes = (
);
width = 1348;
};
};
com.typemytype.robofont.mark = (
1,
0.1703,
0.1669,
0.8287
);
};
},
{
glyphname = Ccedilla;
lastChange = "2018-07-30 18:14:57 +0000";
layers = (
{
components = (
{
name = C;
},
{
name = cedillacomb;
transform = "{1, 0, 0, 1, 519, 0}";
}
);
layerId = "0331963E-C1C8-4E93-A463-84B984C1D75E";
width = 1348;
},
{
components = (
{
name = C;
},
{
name = cedillacomb;
transform = "{1, 0, 0, 1, 505, 0}";
}
);
layerId = "B06AEEA2-953E-4FA5-BFB1-0445B6E4B274";
width = 1290;
},
{
components = (
{
name = C;
},
{
name = cedillacomb;
transform = "{1, 0, 0, 1, 489, 0}";
}
);
layerId = "55372407-EEEC-4390-8B77-FB5958F23D2B";
width = 1340;
},
{
anchors = (
{
name = _bottom;
position = "{740, -8}";
},
{
name = bottom;
position = "{740, -443}";
}
);
associatedMasterId = "B06AEEA2-953E-4FA5-BFB1-0445B6E4B274";
layerId = "218EF8A4-3A05-4D21-9D56-091C7F219375";
name = "Jul 26 18, 14:29";
paths = (
{
closed = 1;
nodes = (
"1017 1007 LINE",
"996 1237 LINE",
"932 1286 OFFCURVE",
"838 1314 OFFCURVE",
"721 1314 CURVE SMOOTH",
"435 1314 OFFCURVE",
"278 1077 OFFCURVE",
"278 740 CURVE SMOOTH",
"278 717 LINE SMOOTH",
"278 350 OFFCURVE",
"445 139 OFFCURVE",
"746 139 CURVE SMOOTH",
"839 139 OFFCURVE",
"935 164 OFFCURVE",
"994 200 CURVE",
"1016 403 LINE",
"1170 403 LINE",
"1170 87 LINE",
"1061 19 OFFCURVE",
"900 -21 OFFCURVE",
"739 -21 CURVE SMOOTH",
"300 -21 OFFCURVE",
"80 293 OFFCURVE",
"80 717 CURVE SMOOTH",
"80 738 LINE SMOOTH",
"80 1165 OFFCURVE",
"321 1477 OFFCURVE",
"722 1477 CURVE SMOOTH",
"910 1477 OFFCURVE",
"1071 1412 OFFCURVE",
"1174 1321 CURVE",
"1174 1007 LINE"
);
},
{
closed = 1;
nodes = (
"762 -60 LINE",
"849 -75 OFFCURVE",
"913 -126 OFFCURVE",
"913 -233 CURVE SMOOTH",
"913 -361 OFFCURVE",
"804 -443 OFFCURVE",
"608 -443 CURVE",
"601 -334 LINE",
"697 -334 OFFCURVE",
"760 -301 OFFCURVE",
"760 -236 CURVE SMOOTH",
"760 -172 OFFCURVE",
"717 -152 OFFCURVE",
"601 -143 CURVE",
"633 -8 LINE",
"774 -8 LINE"
);
}
);
width = 1321;
}
);
leftKerningGroup = C;
rightKerningGroup = C;
unicode = 00C7;
},
{
glyphname = D;
lastChange = "2018-07-28 17:35:54 +0000";
layers = (
{
anchors = (
{
name = bottom;
position = "{693, 0}";
},
{
name = center;
position = "{332, 743}";
},
{
name = top;
position = "{673, 1345}";
}
);
layerId = "0331963E-C1C8-4E93-A463-84B984C1D75E";
paths = (
{
closed = 1;
nodes = (
"629 0 LINE SMOOTH",
"986 0 OFFCURVE",
"1248 299 OFFCURVE",
"1248 719 CURVE SMOOTH",
"1248 737 LINE SMOOTH",
"1248 1156 OFFCURVE",
"986 1456 OFFCURVE",
"629 1456 CURVE SMOOTH",
"234 1456 LINE",
"71 1456 LINE",
"71 1402 LINE",
"234 1402 LINE",
"234 54 LINE",
"71 54 LINE",
"71 0 LINE"
);
},
{
closed = 1;
nodes = (
"288 1402 LINE",
"629 1402 LINE SMOOTH",
"954 1402 OFFCURVE",
"1194 1119 OFFCURVE",
"1194 740 CURVE SMOOTH",
"1194 719 LINE SMOOTH",
"1194 336 OFFCURVE",
"954 54 OFFCURVE",
"629 54 CURVE SMOOTH",
"288 54 LINE"
);
}
);
width = 1386;
},
{
anchors = (
{
name = bottom;
position = "{678, 0}";
},
{
name = center;
position = "{383, 731}";
},
{
name = top;
position = "{678, 1376}";
}
);
layerId = "B06AEEA2-953E-4FA5-BFB1-0445B6E4B274";
paths = (
{
closed = 1;
nodes = (
"661 0 LINE SMOOTH",
"1047 0 OFFCURVE",
"1291 307 OFFCURVE",
"1291 712 CURVE SMOOTH",
"1291 743 LINE SMOOTH",
"1291 1157 OFFCURVE",
"1036 1456 OFFCURVE",
"651 1456 CURVE SMOOTH",
"244 1456 LINE",
"81 1456 LINE",
"81 1329 LINE",
"244 1301 LINE",
"244 154 LINE",
"81 126 LINE",
"81 0 LINE"
);
},
{
closed = 1;
nodes = (
"441 1301 LINE",
"651 1301 LINE SMOOTH",
"926 1301 OFFCURVE",
"1094 1062 OFFCURVE",
"1094 745 CURVE SMOOTH",
"1094 712 LINE SMOOTH",
"1094 404 OFFCURVE",
"926 154 OFFCURVE",
"651 154 CURVE SMOOTH",
"441 154 LINE"
);
}
);
width = 1356;
},
{
anchors = (
{
name = bottom;
position = "{692, 0}";
},
{
name = center;
position = "{370, 742}";
},
{
name = top;
position = "{692, 1356}";
}
);
layerId = "55372407-EEEC-4390-8B77-FB5958F23D2B";
paths = (
{
closed = 1;
nodes = (
"722 0 LINE SMOOTH",
"1116 0 OFFCURVE",
"1395 294 OFFCURVE",
"1395 716 CURVE SMOOTH",
"1395 739 LINE SMOOTH",
"1395 1160 OFFCURVE",
"1116 1456 OFFCURVE",
"722 1456 CURVE SMOOTH",
"193 1456 LINE",
"40 1456 LINE",
"40 1250 LINE",
"193 1212 LINE",
"193 242 LINE",
"40 205 LINE",
"40 0 LINE"
);
},
{
closed = 1;
nodes = (
"544 1189 LINE",
"704 1189 LINE SMOOTH",
"925 1189 OFFCURVE",
"1042 1009 OFFCURVE",
"1042 740 CURVE SMOOTH",
"1042 716 LINE SMOOTH",
"1042 445 OFFCURVE",
"925 266 OFFCURVE",
"704 266 CURVE SMOOTH",
"544 266 LINE"
);
}
);
width = 1470;
},
{
associatedMasterId = "B06AEEA2-953E-4FA5-BFB1-0445B6E4B274";
layerId = "22444A36-CA6C-48F3-B96C-30AC37661B8D";
name = "Jul 17 18, 11:19";
paths = (
{
closed = 1;
nodes = (
"1031 1456 OFFCURVE",
"1294 1188 OFFCURVE",
"1294 817 CURVE SMOOTH",
"1294 638 LINE SMOOTH",
"1294 275 OFFCURVE",
"1041 0 OFFCURVE",
"661 0 CURVE SMOOTH",
"81 0 LINE",
"81 126 LINE",
"244 154 LINE",
"244 1301 LINE",
"81 1329 LINE",
"81 1456 LINE",
"244 1456 LINE",
"651 1456 LINE SMOOTH"
);
},
{
closed = 1;
nodes = (
"441 154 LINE",
"651 154 LINE SMOOTH",
"920 154 OFFCURVE",
"1097 371 OFFCURVE",
"1097 638 CURVE SMOOTH",
"1097 819 LINE SMOOTH",
"1097 1094 OFFCURVE",
"920 1301 OFFCURVE",
"651 1301 CURVE SMOOTH",
"441 1301 LINE"
);
}
);
width = 1359;
},
{
associatedMasterId = "0331963E-C1C8-4E93-A463-84B984C1D75E";
layerId = "1FB66039-B9B4-405F-88BA-51847AE43821";
name = "Jul 17 18, 11:19";
paths = (
{
closed = 1;
nodes = (
"971.667 1456 OFFCURVE",
"1238 1189 OFFCURVE",
"1238 817 CURVE SMOOTH",
"1238 639 LINE SMOOTH",
"1238 265.667 OFFCURVE",
"971.667 0 OFFCURVE",
"637 0 CURVE SMOOTH",
"71 0 LINE",
"71 54 LINE",
"234 54 LINE",
"234 1402 LINE",
"71 1402 LINE",
"71 1456 LINE",
"234 1456 LINE",
"637 1456 LINE SMOOTH"
);
},
{
closed = 1;
nodes = (
"288 54 LINE",
"637 54 LINE SMOOTH",
"939.667 54 OFFCURVE",
"1184 301.667 OFFCURVE",
"1184 639 CURVE SMOOTH",
"1184 820 LINE SMOOTH",
"1184 1153.333 OFFCURVE",
"939.667 1402 OFFCURVE",
"637 1402 CURVE SMOOTH",
"288 1402 LINE"
);
}
);
width = 1386;
},
{
associatedMasterId = "55372407-EEEC-4390-8B77-FB5958F23D2B";
layerId = "D42F9FC4-4B0E-48AC-B45B-0D1BE400F9F4";
name = "Jul 17 18, 11:19";
paths = (
{
closed = 1;
nodes = (
"1089 1456 OFFCURVE",
"1343 1214 OFFCURVE",
"1343 867 CURVE SMOOTH",
"1343 588 LINE SMOOTH",
"1343 234 OFFCURVE",
"1083 0 OFFCURVE",
"742 0 CURVE SMOOTH",
"40 0 LINE",
"40 205 LINE",
"191 237 LINE",
"191 1218 LINE",
"40 1250 LINE",
"40 1456 LINE",
"191 1456 LINE",
"748 1456 LINE SMOOTH"
);
},
{
closed = 1;
nodes = (
"542 267 LINE",
"724 267 LINE SMOOTH",
"896 267 OFFCURVE",
"990 384 OFFCURVE",
"990 588 CURVE SMOOTH",
"990 869 LINE SMOOTH",
"990 1064 OFFCURVE",
"896 1188 OFFCURVE",
"724 1188 CURVE SMOOTH",
"542 1188 LINE"
);
}
);
width = 1443;
}
);
rightKerningGroup = D;
unicode = 0044;
},
{
color = 9;
glyphname = Dcroat;
lastChange = "2018-07-28 17:29:05 +0000";
layers = (
{
components = (
{
name = Eth;
}
);
layerId = "0331963E-C1C8-4E93-A463-84B984C1D75E";
width = 1386;
},
{
components = (
{
name = Eth;
}
);
layerId = "B06AEEA2-953E-4FA5-BFB1-0445B6E4B274";
width = 1356;
},
{
components = (
{
name = Eth;
}
);
layerId = "55372407-EEEC-4390-8B77-FB5958F23D2B";
width = 1470;
},
{
associatedMasterId = "B06AEEA2-953E-4FA5-BFB1-0445B6E4B274";
components = (
{
name = D;
transform = "{1, 0, 0, 1, 20, 0}";
}
);
layerId = "1A0B4958-F9D1-47DF-B034-4E7E0F767965";
name = "Jul 26 18, 15:40";
paths = (
{
closed = 1;
nodes = (
"707 663 LINE",
"66 663 LINE",
"66 818 LINE",
"707 818 LINE"
);
}
);
width = 1376;
},
{
associatedMasterId = "55372407-EEEC-4390-8B77-FB5958F23D2B";
components = (
{
name = D;
transform = "{1, 0, 0, 1, 34, 0}";
}
);
layerId = "923F08FE-BB35-4BF7-AFBD-66E6A94D6BEB";
name = "Jul 28 18, 13:13";
paths = (
{
closed = 1;
nodes = (
"772 666 LINE",
"34 666 LINE",
"34 821 LINE",
"772 821 LINE"
);
}
);
width = 1504;
}
);
rightKerningGroup = D;
rightMetricsKey = D;
unicode = 0110;
},
{
glyphname = E;
lastChange = "2018-07-30 03:01:35 +0000";
layers = (
{
anchors = (
{
name = bottom;
position = "{635, 0}";
},
{
name = ogonek;
position = "{1120, 0}";
},
{
name = top;
position = "{635, 1345}";
},
{
name = topleft;
position = "{20, 1456}";
}
);
layerId = "0331963E-C1C8-4E93-A463-84B984C1D75E";
paths = (
{
closed = 1;
nodes = (
"1120 0 LINE",
"1120 293 LINE",
"1066 293 LINE",
"1066 54 LINE",
"288 54 LINE",
"288 732 LINE",
"918 732 LINE",
"918 786 LINE",
"288 786 LINE",
"288 1402 LINE",
"1036 1402 LINE",
"1036 1163 LINE",
"1090 1163 LINE",
"1090 1456 LINE",
"71 1456 LINE",
"71 1402 LINE",
"234 1402 LINE",
"234 54 LINE",
"71 54 LINE",
"71 0 LINE"
);
}
);
width = 1270;
},
{
anchors = (
{
name = bottom;
position = "{653, 0}";
},
{
name = ogonek;
position = "{1190, 0}";
},
{
name = top;
position = "{653, 1376}";
},
{
name = topleft;
position = "{20, 1376}";
}
);
layerId = "B06AEEA2-953E-4FA5-BFB1-0445B6E4B274";
paths = (
{
closed = 1;
nodes = (
"1190 0 LINE",
"1190 349 LINE",
"1033 349 LINE",
"1011 148 LINE",
"441 148 LINE",
"441 675 LINE",
"978 675 LINE",
"978 830 LINE",
"441 830 LINE",
"441 1304 LINE",
"979 1304 LINE",
"1001 1106 LINE",
"1159 1106 LINE",
"1159 1456 LINE",
"81 1456 LINE",
"81 1329 LINE",
"244 1301 LINE",
"244 154 LINE",
"81 126 LINE",
"81 0 LINE"
);
}
);
width = 1306;
},
{
anchors = (
{
name = bottom;
position = "{655, 0}";
},
{
name = ogonek;
position = "{1219, 0}";
},
{
name = top;
position = "{655, 1356}";
},
{
name = topleft;
position = "{20, 1356}";
}
);
layerId = "55372407-EEEC-4390-8B77-FB5958F23D2B";
paths = (
{
closed = 1;
nodes = (
"1219 0 LINE",
"1219 428 LINE",
"957 428 LINE",
"949 271 LINE",
"542 271 LINE",
"542 618 LINE",
"1007 618 LINE",
"1007 887 LINE",
"542 887 LINE",
"542 1186 LINE",
"930 1186 LINE",
"938 1036 LINE",
"1203 1036 LINE",
"1203 1456 LINE",
"40 1456 LINE",
"40 1250 LINE",
"191 1218 LINE",
"191 237 LINE",
"40 205 LINE",
"40 0 LINE"
);
}
);
width = 1309;
}
);
rightKerningGroup = E;
unicode = 0045;
userData = {
com.typemytype.robofont.layerData = {
mask = {
anchors = (
);
components = (
);
contours = (
{
points = (
{
segmentType = line;
smooth = 0;
x = 71;
y = 0;
},
{
segmentType = line;
smooth = 0;
x = 71;
y = 54;
},
{
segmentType = line;
smooth = 0;
x = 234;
y = 54;
},
{
segmentType = line;
smooth = 0;
x = 234;
y = 1402;
},
{
segmentType = line;
smooth = 0;
x = 71;
y = 1402;
},
{
segmentType = line;
smooth = 0;
x = 71;
y = 1456;
},
{
segmentType = line;
smooth = 0;
x = 1120;
y = 1456;
},
{
segmentType = line;
smooth = 0;
x = 1120;
y = 1163;
},
{
segmentType = line;
smooth = 0;
x = 1066;
y = 1163;
},
{
segmentType = line;
smooth = 0;
x = 1066;
y = 1402;
},
{
segmentType = line;
smooth = 0;
x = 288;
y = 1402;
},
{
segmentType = line;
smooth = 0;
x = 288;
y = 786;
},
{
segmentType = line;
smooth = 0;
x = 918;
y = 786;
},
{
segmentType = line;
smooth = 0;
x = 918;
y = 732;
},
{
segmentType = line;
smooth = 0;
x = 288;
y = 732;
},
{
segmentType = line;
smooth = 0;
x = 288;
y = 54;
},
{
segmentType = line;
smooth = 0;
x = 1066;
y = 54;
},
{
segmentType = line;
smooth = 0;
x = 1066;
y = 293;
},
{
segmentType = line;
smooth = 0;
x = 1120;
y = 293;
},
{
segmentType = line;
smooth = 0;
x = 1120;
y = 0;
}
);
}
);
lib = {
};
name = E;
unicodes = (
);
width = 1270;
};
};
com.typemytype.robofont.mark = (
1,
0.1703,
0.1669,
0.8287
);
};
},
{
glyphname = F;
lastChange = "2018-07-30 18:02:35 +0000";
layers = (
{
anchors = (
{
name = bottom;
position = "{623, 0}";
},
{
name = center;
position = "{332, 395}";
},
{
name = top;
position = "{623, 1345}";
}
);
layerId = "0331963E-C1C8-4E93-A463-84B984C1D75E";
paths = (
{
closed = 1;
nodes = (
"451 0 LINE",
"451 54 LINE",
"288 54 LINE",
"288 716 LINE",
"934 716 LINE",
"934 772 LINE",
"288 772 LINE",
"288 1402 LINE",
"1082 1402 LINE",
"1082 1163 LINE",
"1136 1163 LINE",
"1136 1456 LINE",
"71 1456 LINE",
"71 1402 LINE",
"234 1402 LINE",
"234 54 LINE",
"71 54 LINE",
"71 0 LINE"
);
}
);
width = 1246;
},
{
anchors = (
{
name = bottom;
position = "{628, 0}";
},
{
name = center;
position = "{383, 407}";
},
{
name = top;
position = "{628, 1376}";
}
);
layerId = "B06AEEA2-953E-4FA5-BFB1-0445B6E4B274";
paths = (
{
closed = 1;
nodes = (
"604 0 LINE",
"604 126 LINE",
"441 154 LINE",
"441 644 LINE",
"974 644 LINE",
"974 799 LINE",
"441 799 LINE",
"441 1303 LINE",
"996 1303 LINE",
"1018 1106 LINE",
"1176 1106 LINE",
"1176 1456 LINE",
"81 1456 LINE",
"81 1329 LINE",
"244 1301 LINE",
"244 154 LINE",
"81 126 LINE",
"81 0 LINE"
);
}
);
width = 1256;
},
{
anchors = (
{
name = bottom;
position = "{636, 0}";
},
{
name = center;
position = "{387, 407}";
},
{
name = top;
position = "{636, 1356}";
}
);
layerId = "55372407-EEEC-4390-8B77-FB5958F23D2B";
paths = (
{
closed = 1;
nodes = (
"693 0 LINE",
"693 205 LINE",
"542 237 LINE",
"542 581 LINE",
"1037 581 LINE",
"1037 849 LINE",
"542 849 LINE",
"542 1186 LINE",
"967 1186 LINE",
"974 1027 LINE",
"1239 1027 LINE",
"1239 1456 LINE",
"40 1456 LINE",
"40 1250 LINE",
"191 1218 LINE",
"191 237 LINE",
"40 205 LINE",
"40 0 LINE"
);
}
);
width = 1271;
}
);
unicode = 0046;
},
{
glyphname = G;
lastChange = "2018-07-28 16:05:11 +0000";
layers = (
{
anchors = (
{
name = bottom;
position = "{749, 0}";
},
{
name = top;
position = "{709, 1345}";
}
);
layerId = "0331963E-C1C8-4E93-A463-84B984C1D75E";
paths = (
{
closed = 1;
nodes = (
"976 -21 OFFCURVE",
"1126 37 OFFCURVE",
"1248 111 CURVE",
"1248 620 LINE",
"879 620 LINE",
"879 565 LINE",
"1194 565 LINE",
"1194 141 LINE",
"1093 84 OFFCURVE",
"946 33 OFFCURVE",
"768 33 CURVE SMOOTH",
"400 33 OFFCURVE",
"184 313 OFFCURVE",
"184 720 CURVE SMOOTH",
"184 760 LINE SMOOTH",
"184 1151 OFFCURVE",
"430 1423 OFFCURVE",
"754 1423 CURVE SMOOTH",
"948 1423 OFFCURVE",
"1060 1373 OFFCURVE",
"1159 1296 CURVE",
"1159 1072 LINE",
"1213 1072 LINE",
"1213 1324 LINE",
"1093 1417 OFFCURVE",
"959 1477 OFFCURVE",
"754 1477 CURVE SMOOTH",
"394 1477 OFFCURVE",
"130 1183 OFFCURVE",
"130 758 CURVE SMOOTH",
"130 720 LINE SMOOTH",
"130 280 OFFCURVE",
"372 -21 OFFCURVE",
"770 -21 CURVE SMOOTH"
);
}
);
width = 1417;
},
{
anchors = (
{
name = bottom;
position = "{673, 0}";
},
{
name = top;
position = "{673, 1376}";
}
);
layerId = "B06AEEA2-953E-4FA5-BFB1-0445B6E4B274";
paths = (
{
closed = 1;
nodes = (
"991 -21 OFFCURVE",
"1142 57 OFFCURVE",
"1226 136 CURVE",
"1226 700 LINE",
"750 700 LINE",
"750 555 LINE",
"1029 545 LINE",
"1029 203 LINE",
"958 166 OFFCURVE",
"871 140 OFFCURVE",
"738 140 CURVE SMOOTH",
"443 140 OFFCURVE",
"278 368 OFFCURVE",
"278 716 CURVE SMOOTH",
"278 742 LINE SMOOTH",
"278 1085 OFFCURVE",
"469 1315 OFFCURVE",
"719 1315 CURVE SMOOTH",
"848 1315 OFFCURVE",
"942 1293 OFFCURVE",
"1007 1250 CURVE",
"1028 1039 LINE",
"1190 1039 LINE",
"1190 1333 LINE",
"1078 1421 OFFCURVE",
"925 1477 OFFCURVE",
"699 1477 CURVE SMOOTH",
"342 1477 OFFCURVE",
"80 1179 OFFCURVE",
"80 740 CURVE SMOOTH",
"80 716 LINE SMOOTH",
"80 280 OFFCURVE",
"333 -21 OFFCURVE",
"738 -21 CURVE SMOOTH"
);
}
);
width = 1346;
},
{
anchors = (
{
name = bottom;
position = "{695, 0}";
},
{
name = top;
position = "{695, 1356}";
}
);
layerId = "55372407-EEEC-4390-8B77-FB5958F23D2B";
paths = (
{
closed = 1;
nodes = (
"960 -21 OFFCURVE",
"1160 29 OFFCURVE",
"1318 130 CURVE",
"1318 734 LINE",
"802 734 LINE",
"802 492 LINE",
"966 472 LINE",
"966 284 LINE",
"919 263 OFFCURVE",
"828 242 OFFCURVE",
"744 242 CURVE SMOOTH",
"504 242 OFFCURVE",
"375 410 OFFCURVE",
"375 674 CURVE SMOOTH",
"375 742 LINE SMOOTH",
"375 1022 OFFCURVE",
"497 1213 OFFCURVE",
"738 1213 CURVE SMOOTH",
"842 1213 OFFCURVE",
"929 1178 OFFCURVE",
"975 1132 CURVE",
"1028 947 LINE",
"1278 947 LINE",
"1278 1288 LINE",
"1126 1418 OFFCURVE",
"913 1477 OFFCURVE",
"715 1477 CURVE SMOOTH",
"279 1477 OFFCURVE",
"27 1174 OFFCURVE",
"27 740 CURVE SMOOTH",
"27 674 LINE SMOOTH",
"27 262 OFFCURVE",
"279 -21 OFFCURVE",
"730 -21 CURVE SMOOTH"
);
}
);
width = 1390;
}
);
leftKerningGroup = C;
unicode = 0047;
userData = {
com.typemytype.robofont.layerData = {
mask = {
anchors = (
);
components = (
);
contours = (
{
points = (
{
segmentType = line;
smooth = 0;
x = 1248;
y = 156;
},
{
smooth = 0;
x = 1186.66667;
y = 70.66667;
},
{
smooth = 0;
x = 1004.33333;
y = -21;
},
{
segmentType = curve;
smooth = 1;
x = 751;
y = -21;
},
{
smooth = 0;
x = 381.66667;
y = -21;
},
{
smooth = 0;
x = 130;
y = 280;
},
{
segmentType = curve;
smooth = 1;
x = 130;
y = 720;
},
{
segmentType = line;
smooth = 1;
x = 130;
y = 758;
},
{
smooth = 0;
x = 130;
y = 1183.33333;
},
{
smooth = 0;
x = 383.33333;
y = 1477;
},
{
segmentType = curve;
smooth = 1;
x = 754;
y = 1477;
},
{
smooth = 0;
x = 975.33333;
y = 1477;
},
{
smooth = 0;
x = 1151.66667;
y = 1397.33333;
},
{
segmentType = curve;
smooth = 0;
x = 1253;
y = 1256;
},
{
segmentType = line;
smooth = 0;
x = 1253;
y = 1012;
},
{
segmentType = line;
smooth = 0;
x = 1199;
y = 1012;
},
{
segmentType = line;
smooth = 0;
x = 1200;
y = 1236;
},
{
smooth = 0;
x = 1108;
y = 1354.66667;
},
{
smooth = 0;
x = 955.33333;
y = 1423;
},
{
segmentType = curve;
smooth = 1;
x = 754;
y = 1423;
},
{
smooth = 0;
x = 411.33333;
y = 1423;
},
{
smooth = 0;
x = 184;
y = 1150.66667;
},
{
segmentType = curve;
smooth = 1;
x = 184;
y = 760;
},
{
segmentType = line;
smooth = 1;
x = 184;
y = 720;
},
{
smooth = 0;
x = 184;
y = 313.33333;
},
{
smooth = 0;
x = 409.66667;
y = 33;
},
{
segmentType = curve;
smooth = 1;
x = 751;
y = 33;
},
{
smooth = 0;
x = 965.66667;
y = 33;
},
{
smooth = 0;
x = 1139.33333;
y = 109;
},
{
segmentType = curve;
smooth = 0;
x = 1194;
y = 181;
},
{
segmentType = line;
smooth = 0;
x = 1194;
y = 565;
},
{
segmentType = line;
smooth = 0;
x = 879;
y = 565;
},
{
segmentType = line;
smooth = 0;
x = 879;
y = 620;
},
{
segmentType = line;
smooth = 0;
x = 1248;
y = 620;
}
);
}
);
lib = {
};
name = G;
unicodes = (
);
width = 1417;
};
};
com.typemytype.robofont.mark = (
1,
0.1703,
0.1669,
0.8287
);
};
},
{
glyphname = H;
lastChange = "2018-07-28 17:38:17 +0000";
layers = (
{
anchors = (
{
name = bottom;
position = "{753, 0}";
},
{
name = center;
position = "{753, 1055}";
},
{
name = top;
position = "{753, 1345}";
},
{
name = topleft;
position = "{20, 1345}";
}
);
layerId = "0331963E-C1C8-4E93-A463-84B984C1D75E";
paths = (
{
closed = 1;
nodes = (
"451 0 LINE",
"451 54 LINE",
"288 54 LINE",
"288 695 LINE",
"1218 695 LINE",
"1218 54 LINE",
"1055 54 LINE",
"1055 0 LINE",
"1435 0 LINE",
"1435 54 LINE",
"1272 54 LINE",
"1272 1402 LINE",
"1435 1402 LINE",
"1435 1456 LINE",
"1272 1456 LINE",
"1218 1456 LINE",
"1055 1456 LINE",
"1055 1402 LINE",
"1218 1402 LINE",
"1218 749 LINE",
"288 749 LINE",
"288 1402 LINE",
"451 1402 LINE",
"451 1456 LINE",
"71 1456 LINE",
"71 1402 LINE",
"234 1402 LINE",
"234 54 LINE",
"71 54 LINE",
"71 0 LINE"
);
}
);
width = 1506;
},
{
anchors = (
{
name = bottom;
position = "{789, 0}";
},
{
name = center;
position = "{789, 1028}";
},
{
name = top;
position = "{789, 1376}";
},
{
name = topleft;
position = "{20, 1376}";
}
);
layerId = "B06AEEA2-953E-4FA5-BFB1-0445B6E4B274";
paths = (
{
closed = 1;
nodes = (
"604 0 LINE",
"604 126 LINE",
"441 154 LINE",
"441 643 LINE",
"1137 643 LINE",
"1137 154 LINE",
"974 126 LINE",
"974 0 LINE",
"1497 0 LINE",
"1497 126 LINE",
"1334 154 LINE",
"1334 1301 LINE",
"1497 1329 LINE",
"1497 1456 LINE",
"1334 1456 LINE",
"1137 1456 LINE",
"974 1456 LINE",
"974 1329 LINE",
"1137 1301 LINE",
"1137 798 LINE",
"441 798 LINE",
"441 1301 LINE",
"604 1329 LINE",
"604 1456 LINE",
"81 1456 LINE",
"81 1329 LINE",
"244 1301 LINE",
"244 154 LINE",
"81 126 LINE",
"81 0 LINE"
);
}
);
width = 1578;
},
{
anchors = (
{
name = bottom;
position = "{807, 0}";
},
{
name = center;
position = "{806, 1039}";
},
{
name = top;
position = "{807, 1356}";
},
{
name = topleft;
position = "{20, 1356}";
}
);
layerId = "55372407-EEEC-4390-8B77-FB5958F23D2B";
paths = (
{
closed = 1;
nodes = (
"693 0 LINE",
"693 205 LINE",
"542 237 LINE",
"542 581 LINE",
"1072 581 LINE",
"1072 237 LINE",
"921 205 LINE",
"921 0 LINE",
"1573 0 LINE",
"1573 205 LINE",
"1422 237 LINE",
"1422 1218 LINE",
"1573 1250 LINE",
"1573 1456 LINE",
"1422 1456 LINE",
"1072 1456 LINE",
"921 1456 LINE",
"921 1250 LINE",
"1072 1218 LINE",
"1072 850 LINE",
"542 850 LINE",
"542 1218 LINE",
"693 1250 LINE",
"693 1456 LINE",
"40 1456 LINE",
"40 1250 LINE",
"191 1218 LINE",
"191 237 LINE",
"40 205 LINE",
"40 0 LINE"
);
}
);
width = 1613;
}
);
rightKerningGroup = Eta;
rightMetricsKey = "=|";
unicode = 0048;
},
{
glyphname = Hbar;
lastChange = "2018-07-30 18:15:45 +0000";
layers = (
{
components = (
{
name = H;
},
{
name = strokelongcomb;
transform = "{1, 0, 0, 1, 31, 307}";
}
);
layerId = "0331963E-C1C8-4E93-A463-84B984C1D75E";
width = 1506;
},
{
components = (
{
name = H;
},
{
name = strokelongcomb;
transform = "{1, 0, 0, 1, 53, 0}";
}
);
layerId = "B06AEEA2-953E-4FA5-BFB1-0445B6E4B274";
width = 1578;
},
{
components = (
{
name = H;
},
{
name = strokelongcomb;
transform = "{1, 0, 0, 1, 0, 292}";
}
);
layerId = "55372407-EEEC-4390-8B77-FB5958F23D2B";
width = 1613;
},
{
associatedMasterId = "B06AEEA2-953E-4FA5-BFB1-0445B6E4B274";
layerId = "79A48FF9-AE66-4CA5-A380-94AE76E3A136";
name = "Jul 26 18, 15:39";
paths = (
{
closed = 1;
nodes = (
"1472 1329 LINE",
"1309 1301 LINE",
"1309 1100 LINE",
"1440 1100 LINE",
"1440 955 LINE",
"1309 955 LINE",
"1309 154 LINE",
"1472 126 LINE",
"1472 0 LINE",
"949 0 LINE",
"949 126 LINE",
"1112 154 LINE",
"1112 643 LINE",
"406 643 LINE",
"406 154 LINE",
"569 126 LINE",
"569 0 LINE",
"46 0 LINE",
"46 126 LINE",
"209 154 LINE",
"209 955 LINE",
"48 955 LINE",
"48 1100 LINE",
"209 1100 LINE",
"209 1301 LINE",
"46 1329 LINE",
"46 1456 LINE",
"569 1456 LINE",
"569 1329 LINE",
"406 1301 LINE",
"406 1100 LINE",
"1112 1100 LINE",
"1112 1301 LINE",
"949 1329 LINE",
"949 1456 LINE",
"1112 1456 LINE",
"1309 1456 LINE",
"1472 1456 LINE"
);
},
{
closed = 1;
nodes = (
"1112 798 LINE",
"1112 955 LINE",
"406 955 LINE",
"406 798 LINE"
);
}
);
width = 1527;
},
{
associatedMasterId = "0331963E-C1C8-4E93-A463-84B984C1D75E";
layerId = "C12F42D9-7900-48DF-AA27-402C16AF56A7";
name = "Jul 28 18, 13:36";
paths = (
{
closed = 1;
nodes = (
"1409 1402 LINE",
"1246 1402 LINE",
"1246 1081 LINE",
"1381 1081 LINE",
"1381 1028 LINE",
"1246 1028 LINE",
"1246 54 LINE",
"1409 54 LINE",
"1409 0 LINE",
"1029 0 LINE",
"1029 54 LINE",
"1192 54 LINE",
"1192 695 LINE",
"262 695 LINE",
"262 54 LINE",
"425 54 LINE",
"425 0 LINE",
"45 0 LINE",
"45 54 LINE",
"208 54 LINE",
"208 1028 LINE",
"49 1028 LINE",
"49 1081 LINE",
"208 1081 LINE",
"208 1402 LINE",
"45 1402 LINE",
"45 1456 LINE",
"425 1456 LINE",
"425 1402 LINE",
"262 1402 LINE",
"262 1081 LINE",
"1192 1081 LINE",
"1192 1402 LINE",
"1029 1402 LINE",
"1029 1456 LINE",
"1192 1456 LINE",
"1246 1456 LINE",
"1409 1456 LINE"
);
},
{
closed = 1;
nodes = (
"1192 749 LINE",
"1192 1028 LINE",
"262 1028 LINE",
"262 749 LINE"
);
}
);
width = 1451;
},
{
associatedMasterId = "55372407-EEEC-4390-8B77-FB5958F23D2B";
layerId = "893488DF-8C3C-451E-8D90-33D6E3DB62B7";
name = "Jul 28 18, 13:36";
paths = (
{
closed = 1;
nodes = (
"1560 1250 LINE",
"1408 1218 LINE",
"1408 1116 LINE",
"1526 1116 LINE",
"1526 960 LINE",
"1408 960 LINE",
"1408 237 LINE",
"1560 205 LINE",
"1560 0 LINE",
"907 0 LINE",
"907 205 LINE",
"1059 237 LINE",
"1059 581 LINE",
"534 581 LINE",
"534 237 LINE",
"686 205 LINE",
"686 0 LINE",
"33 0 LINE",
"33 205 LINE",
"183 237 LINE",
"183 960 LINE",
"65 960 LINE",
"65 1116 LINE",
"183 1116 LINE",
"183 1218 LINE",
"33 1250 LINE",
"33 1456 LINE",
"686 1456 LINE",
"686 1250 LINE",
"534 1218 LINE",
"534 1116 LINE",
"1059 1116 LINE",
"1059 1218 LINE",
"907 1250 LINE",
"907 1456 LINE",
"1059 1456 LINE",
"1408 1456 LINE",
"1560 1456 LINE"
);
},
{
closed = 1;
nodes = (
"1059 850 LINE",
"1059 960 LINE",
"534 960 LINE",
"534 850 LINE"
);
}
);
visible = 1;
width = 1592;
}
);
unicode = 0126;
},
{
glyphname = I;
lastChange = "2018-07-28 18:04:25 +0000";
layers = (
{
anchors = (
{
name = bottom;
position = "{261, 0}";
},
{
name = ogonek;
position = "{451, 0}";
},
{
name = top;
position = "{261, 1345}";
},
{
name = topleft;
position = "{20, 1456}";
}
);
layerId = "0331963E-C1C8-4E93-A463-84B984C1D75E";
paths = (
{
closed = 1;
nodes = (
"451 0 LINE",
"451 54 LINE",
"288 54 LINE",
"288 1402 LINE",
"451 1402 LINE",
"451 1456 LINE",
"71 1456 LINE",
"71 1402 LINE",
"234 1402 LINE",
"234 54 LINE",
"71 54 LINE",
"71 0 LINE"
);
}
);
width = 522;
},
{
anchors = (
{
name = bottom;
position = "{342, 0}";
},
{
name = ogonek;
position = "{604, 0}";
},
{
name = top;
position = "{342, 1376}";
},
{
name = topleft;
position = "{21, 1376}";
}
);
layerId = "B06AEEA2-953E-4FA5-BFB1-0445B6E4B274";
paths = (
{
closed = 1;
nodes = (
"604 0 LINE",
"604 126 LINE",
"441 154 LINE",
"441 1301 LINE",
"604 1329 LINE",
"604 1456 LINE",
"81 1456 LINE",
"81 1329 LINE",
"244 1301 LINE",
"244 154 LINE",
"81 126 LINE",
"81 0 LINE"
);
}
);
width = 685;
},
{
anchors = (
{
name = bottom;
position = "{367, 0}";
},
{
name = ogonek;
position = "{692, 0}";
},
{
name = top;
position = "{367, 1356}";
},
{
name = topleft;
position = "{20, 1356}";
}
);
layerId = "55372407-EEEC-4390-8B77-FB5958F23D2B";
paths = (
{
closed = 1;
nodes = (
"692 0 LINE",
"692 205 LINE",
"541 237 LINE",
"541 1218 LINE",
"692 1250 LINE",
"692 1456 LINE",
"40 1456 LINE",
"40 1250 LINE",
"191 1218 LINE",
"191 237 LINE",
"40 205 LINE",
"40 0 LINE"
);
}
);
width = 732;
}
);
leftMetricsKey = H;
rightKerningGroup = Eta;
rightMetricsKey = H;
unicode = 0049;
},
{
glyphname = J;
lastChange = "2018-07-30 18:17:52 +0000";
layers = (
{
anchors = (
{
name = bottom;
position = "{469, 0}";
},
{
name = top;
position = "{848, 1345}";
}
);
layerId = "0331963E-C1C8-4E93-A463-84B984C1D75E";
paths = (
{
closed = 1;
nodes = (
"711 -21 OFFCURVE",
"880 151.333 OFFCURVE",
"880 422 CURVE SMOOTH",
"880 1402 LINE",
"1043 1402 LINE",
"1043 1456 LINE",
"640 1456 LINE",
"640 1402 LINE",
"826 1402 LINE",
"826 422 LINE SMOOTH",
"826 183.333 OFFCURVE",
"675 33 OFFCURVE",
"471 33 CURVE SMOOTH",
"227 33 OFFCURVE",
"94 163.667 OFFCURVE",
"94 401 CURVE",
"48 401 LINE",
"46 395 LINE",
"39.333 123 OFFCURVE",
"204.333 -21 OFFCURVE",
"471 -21 CURVE SMOOTH"
);
}
);
width = 1137;
},
{
anchors = (
{
name = bottom;
position = "{585, 0}";
},
{
name = top;
position = "{835, 1376}";
}
);
layerId = "B06AEEA2-953E-4FA5-BFB1-0445B6E4B274";
paths = (
{
closed = 1;
nodes = (
"787 -21 OFFCURVE",
"937 152 OFFCURVE",
"937 413 CURVE SMOOTH",
"937 1301 LINE",
"1100 1329 LINE",
"1100 1456 LINE",
"546 1456 LINE",
"546 1327 LINE",
"740 1301 LINE",
"740 413 LINE SMOOTH",
"740 250 OFFCURVE",
"665 136 OFFCURVE",
"500 136 CURVE SMOOTH",
"343 136 OFFCURVE",
"256 225 OFFCURVE",
"251 421 CURVE",
"62 421 LINE",
"60 415 LINE",
"72 122 OFFCURVE",
"260 -21 OFFCURVE",
"503 -21 CURVE SMOOTH"
);
}
);
width = 1169;
},
{
anchors = (
{
name = bottom;
position = "{611, 0}";
},
{
name = top;
position = "{889, 1356}";
}
);
layerId = "55372407-EEEC-4390-8B77-FB5958F23D2B";
paths = (
{
closed = 1;
nodes = (
"894 -21 OFFCURVE",
"1070 158 OFFCURVE",
"1070 452 CURVE SMOOTH",
"1070 1218 LINE",
"1222 1250 LINE",
"1222 1456 LINE",
"523 1456 LINE",
"523 1251 LINE",
"721 1218 LINE",
"721 452 LINE SMOOTH",
"721 307 OFFCURVE",
"628 251 OFFCURVE",
"539 251 CURVE SMOOTH",
"435 251 OFFCURVE",
"361 301 OFFCURVE",
"348 489 CURVE",
"21 489 LINE",
"19 483 LINE",
"31 137 OFFCURVE",
"242 -21 OFFCURVE",
"584 -21 CURVE SMOOTH"
);
}
);
width = 1222;
}
);
leftKerningGroup = J;
rightKerningGroup = J;
unicode = 004A;
userData = {
com.typemytype.robofont.layerData = {
mask = {
anchors = (
);
components = (
);
contours = (
{
points = (
{
segmentType = line;
smooth = 0;
x = 1043;
y = 1456;
},
{
segmentType = line;
smooth = 0;
x = 1043;
y = 1402;
},
{
segmentType = line;
smooth = 0;
x = 880;
y = 1402;
},
{
segmentType = line;
smooth = 1;
x = 880;
y = 422;
},
{
smooth = 0;
x = 880;
y = 151.33333;
},
{
smooth = 0;
x = 711;
y = -21;
},
{
segmentType = curve;
smooth = 1;
x = 471;
y = -21;
},
{
smooth = 0;
x = 204.33333;
y = -21;
},
{
smooth = 0;
x = 39.33333;
y = 123;
},
{
segmentType = curve;
smooth = 0;
x = 46;
y = 395;
},
{
segmentType = line;
smooth = 0;
x = 48;
y = 401;
},
{
segmentType = line;
smooth = 0;
x = 94;
y = 401;
},
{
smooth = 0;
x = 94;
y = 163.66667;
},
{
smooth = 0;
x = 227;
y = 33;
},
{
segmentType = curve;
smooth = 1;
x = 471;
y = 33;
},
{
smooth = 0;
x = 675;
y = 33;
},
{
smooth = 0;
x = 826;
y = 183.33333;
},
{
segmentType = curve;
smooth = 1;
x = 826;
y = 422;
},
{
segmentType = line;
smooth = 0;
x = 826;
y = 1402;
},
{
segmentType = line;
smooth = 0;
x = 663;
y = 1402;
},
{
segmentType = line;
smooth = 0;
x = 663;
y = 1456;
}
);
}
);
lib = {
};
name = J;
unicodes = (
);
width = 1137;
};
};
com.typemytype.robofont.mark = (
1,
0.1703,
0.1669,
0.8287
);
};
},
{
color = 3;
glyphname = K;
lastChange = "2018-07-28 20:14:50 +0000";
layers = (
{
anchors = (
{
name = bottom;
position = "{694, 0}";
},
{
name = top;
position = "{694, 1345}";
}
);
layerId = "0331963E-C1C8-4E93-A463-84B984C1D75E";
paths = (
{
closed = 1;
nodes = (
"1167 1402 LINE",
"1282 1402 LINE",
"1282 1456 LINE",
"921 1456 LINE",
"921 1402 LINE",
"1089 1402 LINE",
"1091 1397 LINE",
"250 453 LINE",
"270 391 LINE"
);
},
{
closed = 1;
nodes = (
"451 0 LINE",
"451 54 LINE",
"288 54 LINE",
"288 1402 LINE",
"451 1402 LINE",
"451 1456 LINE",
"71 1456 LINE",
"71 1402 LINE",
"234 1402 LINE",
"234 54 LINE",
"71 54 LINE",
"71 0 LINE"
);
},
{
closed = 1;
nodes = (
"1328 0 LINE",
"1328 54 LINE",
"1210 54 LINE",
"641 832 LINE",
"591 803 LINE",
"1133 60 LINE",
"1130 54 LINE",
"967 54 LINE",
"967 0 LINE"
);
}
);
width = 1388;
},
{
anchors = (
{
name = bottom;
position = "{751, 0}";
},
{
name = top;
position = "{751, 1376}";
}
);
layerId = "B06AEEA2-953E-4FA5-BFB1-0445B6E4B274";
paths = (
{
closed = 1;
nodes = (
"1238 1304 LINE",
"1375 1329 LINE",
"1375 1456 LINE",
"908 1456 LINE",
"908 1329 LINE",
"1017 1315 LINE",
"1013 1310 LINE",
"322 543 LINE",
"427 421 LINE"
);
},
{
closed = 1;
nodes = (
"604 0 LINE",
"604 126 LINE",
"441 154 LINE",
"441 1301 LINE",
"604 1329 LINE",
"604 1456 LINE",
"81 1456 LINE",
"81 1329 LINE",
"244 1301 LINE",
"244 154 LINE",
"81 126 LINE",
"81 0 LINE"
);
},
{
closed = 1;
nodes = (
"1427 0 LINE",
"1427 126 LINE",
"1293 151 LINE",
"767 855 LINE",
"657 700 LINE",
"1060 141 LINE",
"1061 140 LINE",
"941 126 LINE",
"941 0 LINE"
);
}
);
width = 1501;
},
{
associatedMasterId = "B06AEEA2-953E-4FA5-BFB1-0445B6E4B274";
layerId = "6A68A2F1-C38C-4583-9967-AAA2412492F3";
name = "Jul 13 18, 23:20";
paths = (
{
closed = 1;
nodes = (
"244 154 LINE",
"244 1301 LINE",
"81 1329 LINE",
"81 1456 LINE",
"604 1456 LINE",
"604 1329 LINE",
"441 1301 LINE",
"441 812 LINE",
"592 812 LINE",
"995 1310 LINE",
"999 1315 LINE",
"890 1329 LINE",
"890 1456 LINE",
"1352 1456 LINE",
"1352 1329 LINE",
"1215 1304 LINE",
"770 752 LINE",
"1282 151 LINE",
"1416 126 LINE",
"1416 0 LINE",
"935 0 LINE",
"935 126 LINE",
"1055 140 LINE",
"1054 141 LINE",
"614 657 LINE",
"441 657 LINE",
"441 154 LINE",
"604 126 LINE",
"604 0 LINE",
"81 0 LINE",
"81 126 LINE"
);
}
);
width = 1496;
},
{
associatedMasterId = "0331963E-C1C8-4E93-A463-84B984C1D75E";
layerId = "9C8E707A-49D7-4166-AC9D-BDAB1C485813";
name = "Jul 15 18, 14:09";
paths = (
{
closed = 1;
nodes = (
"234 54 LINE",
"234 1402 LINE",
"71 1402 LINE",
"71 1456 LINE",
"451 1456 LINE",
"451 1402 LINE",
"288 1402 LINE",
"288 764 LINE",
"526 764 LINE",
"1091 1397 LINE",
"1089 1402 LINE",
"921 1402 LINE",
"921 1456 LINE",
"1282 1456 LINE",
"1282 1402 LINE",
"1167 1402 LINE",
"571 730 LINE",
"1210 54 LINE",
"1328 54 LINE",
"1328 0 LINE",
"967 0 LINE",
"967 54 LINE",
"1130 54 LINE",
"1133 60 LINE",
"511 711 LINE",
"288 711 LINE",
"288 54 LINE",
"451 54 LINE",
"451 0 LINE",
"71 0 LINE",
"71 54 LINE"
);
}
);
width = 1388;
},
{
anchors = (
{
name = bottom;
position = "{784, 0}";
},
{
name = top;
position = "{784, 1356}";
}
);
layerId = "55372407-EEEC-4390-8B77-FB5958F23D2B";
paths = (
{
closed = 1;
nodes = (
"1377 1221 LINE",
"1514 1250 LINE",
"1514 1456 LINE",
"834 1456 LINE",
"834 1250 LINE",
"999 1239 LINE",
"998 1237 LINE",
"272 522 LINE",
"451 317 LINE"
);
},
{
closed = 1;
nodes = (
"680 0 LINE",
"680 205 LINE",
"542 237 LINE",
"542 1218 LINE",
"680 1250 LINE",
"680 1456 LINE",
"40 1456 LINE",
"40 1250 LINE",
"191 1218 LINE",
"191 237 LINE",
"40 205 LINE",
"40 0 LINE"
);
},
{
closed = 1;
nodes = (
"1567 0 LINE",
"1567 205 LINE",
"1418 230 LINE",
"908 912 LINE",
"663 695 LINE",
"1013 216 LINE",
"1011 216 LINE",
"865 205 LINE",
"865 0 LINE"
);
}
);
width = 1573;
}
);
rightKerningGroup = K;
unicode = 004B;
},
{
glyphname = L;
lastChange = "2018-07-30 18:20:33 +0000";
layers = (
{
anchors = (
{
name = bottom;
position = "{581, 0}";
},
{
name = center;
position = "{359, 770}";
},
{
name = top;
position = "{262, 1345}";
},
{
name = topright;
position = "{981, 1456}";
}
);
layerId = "0331963E-C1C8-4E93-A463-84B984C1D75E";
paths = (
{
closed = 1;
nodes = (
"1036 0 LINE",
"1036 293 LINE",
"982 293 LINE",
"982 54 LINE",
"289 54 LINE",
"289 1402 LINE",
"452 1402 LINE",
"452 1456 LINE",
"289 1456 LINE",
"234 1456 LINE",
"71 1456 LINE",
"71 1402 LINE",
"234 1402 LINE",
"234 54 LINE",
"71 54 LINE",
"71 0 LINE"
);
}
);
width = 1161;
},
{
anchors = (
{
name = bottom;
position = "{605, 0}";
},
{
name = center;
position = "{361, 753}";
},
{
name = top;
position = "{353, 1376}";
},
{
name = topright;
position = "{1049, 1456}";
}
);
layerId = "B06AEEA2-953E-4FA5-BFB1-0445B6E4B274";
paths = (
{
closed = 1;
nodes = (
"1130 0 LINE",
"1130 381 LINE",
"979 381 LINE",
"956 151 LINE",
"441 151 LINE",
"441 1301 LINE",
"604 1329 LINE",
"604 1456 LINE",
"441 1456 LINE",
"244 1456 LINE",
"81 1456 LINE",
"81 1329 LINE",
"244 1301 LINE",
"244 154 LINE",
"81 126 LINE",
"81 0 LINE"
);
}
);
width = 1210;
},
{
anchors = (
{
name = bottom;
position = "{597, 0}";
},
{
name = center;
position = "{415, 768}";
},
{
name = top;
position = "{383, 1356}";
},
{
name = topright;
position = "{1000, 1456}";
}
);
layerId = "55372407-EEEC-4390-8B77-FB5958F23D2B";
paths = (
{
closed = 1;
nodes = (
"1164 0 LINE",
"1164 472 LINE",
"896 472 LINE",
"888 269 LINE",
"542 269 LINE",
"542 1218 LINE",
"726 1250 LINE",
"726 1456 LINE",
"542 1456 LINE",
"191 1456 LINE",
"40 1456 LINE",
"40 1250 LINE",
"191 1218 LINE",
"191 237 LINE",
"40 205 LINE",
"40 0 LINE"
);
}
);
width = 1194;
}
);
rightKerningGroup = L;
unicode = 004C;
},
{
glyphname = Lslash;
lastChange = "2018-07-30 18:16:01 +0000";
layers = (
{
components = (
{
name = L;
},
{
name = slashshortcomb.case;
transform = "{1, 0, 0, 1, 24, 0}";
}
);
layerId = "0331963E-C1C8-4E93-A463-84B984C1D75E";
width = 1161;
},
{
components = (
{
name = L;
},
{
name = slashshortcomb.case;
transform = "{1, 0, 0, 1, 46, 1}";
}
);
layerId = "B06AEEA2-953E-4FA5-BFB1-0445B6E4B274";
width = 1210;
},
{
components = (
{
name = L;
},
{
name = slashshortcomb.case;
transform = "{1, 0, 0, 1, 31, -2}";
}
);
layerId = "55372407-EEEC-4390-8B77-FB5958F23D2B";
width = 1194;
},
{
associatedMasterId = "B06AEEA2-953E-4FA5-BFB1-0445B6E4B274";
layerId = "EE04B666-F055-40BB-AB43-139CF2DEA864";
name = "Jul 26 18, 15:06";
paths = (
{
closed = 1;
nodes = (
"431 1301 LINE",
"431 852 LINE",
"669 928 LINE",
"669 763 LINE",
"431 687 LINE",
"431 154 LINE",
"937 154 LINE",
"952 321 LINE",
"1120 321 LINE",
"1120 0 LINE",
"71 0 LINE",
"71 126 LINE",
"234 154 LINE",
"234 625 LINE",
"80 576 LINE",
"80 741 LINE",
"234 790 LINE",
"234 1301 LINE",
"71 1329 LINE",
"71 1456 LINE",
"594 1456 LINE",
"594 1329 LINE"
);
}
);
width = 1199;
},
{
associatedMasterId = "55372407-EEEC-4390-8B77-FB5958F23D2B";
layerId = "510E6334-311B-42CD-9D62-50615E5AB20C";
name = "Jul 28 18, 16:08";
paths = (
{
closed = 1;
nodes = (
"548 1218 LINE",
"548 914 LINE",
"757 970 LINE",
"757 757 LINE",
"548 700 LINE",
"548 267 LINE",
"900 267 LINE",
"913 460 LINE",
"1170 460 LINE",
"1170 0 LINE",
"47 0 LINE",
"47 205 LINE",
"197 237 LINE",
"197 602 LINE",
"69 570 LINE",
"69 783 LINE",
"197 816 LINE",
"197 1218 LINE",
"47 1250 LINE",
"47 1456 LINE",
"699 1456 LINE",
"699 1250 LINE"
);
}
);
width = 1188;
},
{
associatedMasterId = "0331963E-C1C8-4E93-A463-84B984C1D75E";
layerId = "8AFFD2D7-03A8-4E6B-BF96-41BEB06BDAEF";
name = "Jul 28 18, 16:08";
paths = (
{
closed = 1;
nodes = (
"289 1402 LINE",
"289 776 LINE",
"653 892 LINE",
"653 835 LINE",
"289 719 LINE",
"289 54 LINE",
"982 54 LINE",
"982 293 LINE",
"1036 293 LINE",
"1036 0 LINE",
"71 0 LINE",
"71 54 LINE",
"234 54 LINE",
"234 702 LINE",
"63 648 LINE",
"63 705 LINE",
"234 759 LINE",
"234 1402 LINE",
"71 1402 LINE",
"71 1456 LINE",
"452 1456 LINE",
"452 1402 LINE"
);
}
);
visible = 1;
width = 1161;
}
);
unicode = 0141;
},
{
glyphname = M;
lastChange = "2018-07-27 21:54:15 +0000";
layers = (
{
anchors = (
{
name = bottom;
position = "{912, 0}";
},
{
name = top;
position = "{912, 1345}";
}
);
layerId = "0331963E-C1C8-4E93-A463-84B984C1D75E";
paths = (
{
closed = 1;
nodes = (
"451 0 LINE",
"451 54 LINE",
"288 54 LINE",
"288 872 LINE",
"288 1354 LINE",
"294 1356 LINE",
"889 0 LINE",
"932 0 LINE",
"1530 1363 LINE",
"1536 1361 LINE",
"1536 845 LINE",
"1536 54 LINE",
"1373 54 LINE",
"1373 0 LINE",
"1753 0 LINE",
"1753 54 LINE",
"1590 54 LINE",
"1590 1402 LINE",
"1753 1402 LINE",
"1753 1456 LINE",
"1511 1456 LINE",
"913 86 LINE",
"907 86 LINE",
"311 1456 LINE",
"234 1456 LINE",
"71 1456 LINE",
"71 1402 LINE",
"234 1402 LINE",
"234 54 LINE",
"71 54 LINE",
"71 0 LINE"
);
}
);
width = 1824;
},
{
anchors = (
{
name = bottom;
position = "{991, 0}";
},
{
name = top;
position = "{991, 1376}";
}
);
layerId = "B06AEEA2-953E-4FA5-BFB1-0445B6E4B274";
paths = (
{
closed = 1;
nodes = (
"617 0 LINE",
"617 126 LINE",
"441 154 LINE",
"441 576 LINE",
"434 1185 LINE",
"439 1186 LINE",
"928 52 LINE",
"1059 52 LINE",
"1532 1188 LINE",
"1537 1187 LINE",
"1537 576 LINE",
"1537 154 LINE",
"1365 126 LINE",
"1365 0 LINE",
"1888 0 LINE",
"1888 126 LINE",
"1725 154 LINE",
"1725 1301 LINE",
"1888 1329 LINE",
"1888 1456 LINE",
"1449 1456 LINE",
"995 351 LINE",
"989 351 LINE",
"520 1456 LINE",
"257 1456 LINE",
"94 1456 LINE",
"94 1329 LINE",
"257 1301 LINE",
"257 154 LINE",
"94 126 LINE",
"94 0 LINE"
);
}
);
width = 1982;
},
{
anchors = (
{
name = bottom;
position = "{1059, 0}";
},
{
name = top;
position = "{1059, 1356}";
}
);
layerId = "55372407-EEEC-4390-8B77-FB5958F23D2B";
paths = (
{
closed = 1;
nodes = (
"685 0 LINE",
"685 205 LINE",
"516 237 LINE",
"516 475 LINE",
"492 1099 LINE",
"499 1100 LINE",
"917 0 LINE",
"1193 0 LINE",
"1605 1113 LINE",
"1611 1112 LINE",
"1603 427 LINE",
"1603 237 LINE",
"1446 205 LINE",
"1446 0 LINE",
"2098 0 LINE",
"2098 205 LINE",
"1947 237 LINE",
"1947 1218 LINE",
"2098 1250 LINE",
"2098 1456 LINE",
"1419 1456 LINE",
"1077 497 LINE",
"1071 497 LINE",
"719 1456 LINE",
"182 1456 LINE",
"32 1456 LINE",
"32 1250 LINE",
"182 1218 LINE",
"182 237 LINE",
"32 205 LINE",
"32 0 LINE"
);
}
);
width = 2118;
}
);
rightKerningGroup = Eta;
unicode = 004D;
userData = {
com.typemytype.robofont.layerData = {
mask = {
anchors = (
);
components = (
);
contours = (
{
points = (
{
segmentType = line;
smooth = 0;
x = 932;
y = 0;
},
{
segmentType = line;
smooth = 0;
x = 889;
y = 0;
},
{
segmentType = line;
smooth = 0;
x = 294;
y = 1356;
},
{
segmentType = line;
smooth = 0;
x = 288;
y = 1354;
},
{
segmentType = line;
smooth = 0;
x = 288;
y = 54;
},
{
segmentType = line;
smooth = 0;
x = 451;
y = 54;
},
{
segmentType = line;
smooth = 0;
x = 451;
y = 0;
},
{
segmentType = line;
smooth = 0;
x = 71;
y = 0;
},
{
segmentType = line;
smooth = 0;
x = 71;
y = 54;
},
{
segmentType = line;
smooth = 0;
x = 234;
y = 54;
},
{
segmentType = line;
smooth = 0;
x = 234;
y = 1402;
},
{
segmentType = line;
smooth = 0;
x = 71;
y = 1402;
},
{
segmentType = line;
smooth = 0;
x = 71;
y = 1456;
},
{
segmentType = line;
smooth = 0;
x = 234;
y = 1456;
},
{
segmentType = line;
smooth = 0;
x = 311;
y = 1456;
},
{
segmentType = line;
smooth = 0;
x = 907;
y = 86;
},
{
segmentType = line;
smooth = 0;
x = 913;
y = 86;
},
{
segmentType = line;
smooth = 0;
x = 1511;
y = 1456;
},
{
segmentType = line;
smooth = 0;
x = 1753;
y = 1456;
},
{
segmentType = line;
smooth = 0;
x = 1753;
y = 1402;
},
{
segmentType = line;
smooth = 0;
x = 1590;
y = 1402;
},
{
segmentType = line;
smooth = 0;
x = 1590;
y = 54;
},
{
segmentType = line;
smooth = 0;
x = 1753;
y = 54;
},
{
segmentType = line;
smooth = 0;
x = 1753;
y = 0;
},
{
segmentType = line;
smooth = 0;
x = 1373;
y = 0;
},
{
segmentType = line;
smooth = 0;
x = 1373;
y = 54;
},
{
segmentType = line;
smooth = 0;
x = 1536;
y = 54;
},
{
segmentType = line;
smooth = 0;
x = 1536;
y = 1361;
},
{
segmentType = line;
smooth = 0;
x = 1530;
y = 1363;
}
);
}
);
lib = {
};
name = M;
unicodes = (
);
width = 1824;
};
};
};
},
{
glyphname = N;
lastChange = "2018-07-27 21:54:15 +0000";
layers = (
{
anchors = (
{
name = bottom;
position = "{759, 0}";
},
{
name = top;
position = "{759, 1345}";
}
);
layerId = "0331963E-C1C8-4E93-A463-84B984C1D75E";
paths = (
{
closed = 1;
nodes = (
"452 0 LINE",
"452 54 LINE",
"289 54 LINE",
"289 1354 LINE",
"295 1356 LINE",
"1229 0 LINE",
"1283 0 LINE",
"1283 1402 LINE",
"1446 1402 LINE",
"1446 1456 LINE",
"1283 1456 LINE",
"1066 1456 LINE",
"1066 1402 LINE",
"1229 1402 LINE",
"1229 105 LINE",
"1223 103 LINE",
"289 1456 LINE",
"234 1456 LINE",
"71 1456 LINE",
"71 1402 LINE",
"234 1402 LINE",
"234 54 LINE",
"71 54 LINE",
"71 0 LINE"
);
}
);
width = 1517;
},
{
anchors = (
{
name = bottom;
position = "{796, 0}";
},
{
name = top;
position = "{796, 1376}";
}
);
layerId = "B06AEEA2-953E-4FA5-BFB1-0445B6E4B274";
paths = (
{
closed = 1;
nodes = (
"606 0 LINE",
"606 126 LINE",
"427 154 LINE",
"427 1139 LINE",
"433 1141 LINE",
"1166 0 LINE",
"1346 0 LINE",
"1346 1301 LINE",
"1509 1329 LINE",
"1509 1456 LINE",
"1346 1456 LINE",
"986 1456 LINE",
"986 1329 LINE",
"1165 1301 LINE",
"1165 323 LINE",
"1159 321 LINE",
"445 1456 LINE",
"246 1456 LINE",
"83 1456 LINE",
"83 1329 LINE",
"246 1301 LINE",
"246 154 LINE",
"83 126 LINE",
"83 0 LINE"
);
}
);
width = 1592;
},
{
anchors = (
{
name = bottom;
position = "{806, 0}";
},
{
name = top;
position = "{806, 1356}";
}
);
layerId = "55372407-EEEC-4390-8B77-FB5958F23D2B";
paths = (
{
closed = 1;
nodes = (
"692 0 LINE",
"692 205 LINE",
"500 237 LINE",
"500 912 LINE",
"506 912 LINE",
"1101 0 LINE",
"1447 0 LINE",
"1447 1218 LINE",
"1598 1250 LINE",
"1598 1456 LINE",
"1447 1456 LINE",
"945 1456 LINE",
"945 1250 LINE",
"1136 1218 LINE",
"1136 524 LINE",
"1130 524 LINE",
"546 1456 LINE",
"189 1456 LINE",
"39 1456 LINE",
"39 1250 LINE",
"189 1218 LINE",
"189 237 LINE",
"39 205 LINE",
"39 0 LINE"
);
}
);
width = 1611;
}
);
rightKerningGroup = Eta;
unicode = 004E;
},
{
glyphname = Eng;
lastChange = "2018-07-27 20:31:53 +0000";
layers = (
{
layerId = "0331963E-C1C8-4E93-A463-84B984C1D75E";
paths = (
{
closed = 1;
nodes = (
"1176.667 -437 OFFCURVE",
"1283 -311.667 OFFCURVE",
"1283 -89 CURVE SMOOTH",
"1283 1402 LINE",
"1446 1402 LINE",
"1446 1456 LINE",
"1066 1456 LINE",
"1066 1402 LINE",
"1229 1402 LINE",
"1229 103 LINE",
"1223 101 LINE",
"287 1456 LINE",
"70 1456 LINE",
"70 1402 LINE",
"233 1402 LINE",
"233 54 LINE",
"70 54 LINE",
"70 0 LINE",
"450 0 LINE",
"450 54 LINE",
"287 54 LINE",
"287 1354 LINE",
"293 1356 LINE",
"1229 0 LINE",
"1229 -89 LINE SMOOTH",
"1229 -275.667 OFFCURVE",
"1144.667 -383 OFFCURVE",
"998 -383 CURVE SMOOTH",
"962 -383 OFFCURVE",
"923 -374.333 OFFCURVE",
"899 -365 CURVE",
"886 -417 LINE",
"926 -430.333 OFFCURVE",
"958 -437 OFFCURVE",
"998 -437 CURVE SMOOTH"
);
}
);
width = 1537;
},
{
layerId = "B06AEEA2-953E-4FA5-BFB1-0445B6E4B274";
paths = (
{
closed = 1;
nodes = (
"1212.333 -437 OFFCURVE",
"1333 -311.667 OFFCURVE",
"1333 -89 CURVE SMOOTH",
"1333 1301 LINE",
"1496 1329 LINE",
"1496 1456 LINE",
"973 1456 LINE",
"973 1329 LINE",
"1136 1301 LINE",
"1136 346 LINE",
"1130 344 LINE",
"430 1456 LINE",
"70 1456 LINE",
"70 1329 LINE",
"233 1301 LINE",
"233 154 LINE",
"70 126 LINE",
"70 0 LINE",
"593 0 LINE",
"593 126 LINE",
"430 154 LINE",
"430 1110 LINE",
"436 1112 LINE",
"1136 0 LINE",
"1136 -89 LINE SMOOTH",
"1136 -209 OFFCURVE",
"1088.333 -282 OFFCURVE",
"1007 -282 CURVE SMOOTH",
"984.333 -282 OFFCURVE",
"926.333 -275.667 OFFCURVE",
"909 -269 CURVE",
"895 -419 LINE",
"933.667 -431 OFFCURVE",
"965.667 -437 OFFCURVE",
"1007 -437 CURVE SMOOTH"
);
}
);
width = 1559;
},
{
layerId = "55372407-EEEC-4390-8B77-FB5958F23D2B";
paths = (
{
closed = 1;
nodes = (
"1288 -437 OFFCURVE",
"1443 -282 OFFCURVE",
"1443 -10 CURVE SMOOTH",
"1443 1218 LINE",
"1593 1250 LINE",
"1593 1456 LINE",
"942 1456 LINE",
"942 1250 LINE",
"1092 1218 LINE",
"1092 557 LINE",
"1086 556 LINE",
"569 1456 LINE",
"67 1456 LINE",
"67 1250 LINE",
"218 1218 LINE",
"218 237 LINE",
"67 205 LINE",
"67 0 LINE",
"719 0 LINE",
"719 205 LINE",
"569 237 LINE",
"569 901 LINE",
"575 901 LINE",
"1092 0 LINE",
"1092 -10 LINE SMOOTH",
"1092 -112 OFFCURVE",
"1049 -169 OFFCURVE",
"969 -169 CURVE SMOOTH",
"932 -169 OFFCURVE",
"916 -164 OFFCURVE",
"877 -156 CURVE",
"863 -421 LINE",
"919 -433 OFFCURVE",
"964 -437 OFFCURVE",
"1026 -437 CURVE SMOOTH"
);
}
);
width = 1600;
}
);
unicode = 014A;
},
{
glyphname = O;
lastChange = "2018-07-30 15:17:36 +0000";
layers = (
{
anchors = (
{
name = bottom;
position = "{744, 0}";
},
{
name = center;
position = "{744, 728}";
},
{
name = ogonek;
position = "{1339, 10}";
},
{
name = top;
position = "{738, 1345}";
},
{
name = topleft;
position = "{20, 1345}";
},
{
name = topright;
position = "{1161, 1345}";
}
);
layerId = "0331963E-C1C8-4E93-A463-84B984C1D75E";
paths = (
{
closed = 1;
nodes = (
"1101.333 -21 OFFCURVE",
"1348 271 OFFCURVE",
"1348 719 CURVE SMOOTH",
"1348 737 LINE SMOOTH",
"1348 1183.667 OFFCURVE",
"1099.333 1477 OFFCURVE",
"738 1477 CURVE SMOOTH",
"375.333 1477 OFFCURVE",
"130 1183.667 OFFCURVE",
"130 737 CURVE SMOOTH",
"130 719 LINE SMOOTH",
"130 272.333 OFFCURVE",
"377.333 -21 OFFCURVE",
"740 -21 CURVE SMOOTH"
);
},
{
closed = 1;
nodes = (
"402.667 33 OFFCURVE",
"185 304.333 OFFCURVE",
"185 719 CURVE SMOOTH",
"185 739 LINE SMOOTH",
"185 1151 OFFCURVE",
"402 1423 OFFCURVE",
"738 1423 CURVE SMOOTH",
"1075.333 1423 OFFCURVE",
"1294 1151 OFFCURVE",
"1294 739 CURVE SMOOTH",
"1294 719 LINE SMOOTH",
"1294 304.333 OFFCURVE",
"1077.333 33 OFFCURVE",
"740 33 CURVE SMOOTH"
);
}
);
width = 1488;
},
{
anchors = (
{
name = bottom;
position = "{676, 0}";
},
{
name = center;
position = "{676, 728}";
},
{
name = ogonek;
position = "{980, 0}";
},
{
name = top;
position = "{676, 1376}";
},
{
name = topleft;
position = "{20, 1376}";
},
{
name = topright;
position = "{985, 1376}";
}
);
layerId = "B06AEEA2-953E-4FA5-BFB1-0445B6E4B274";
paths = (
{
closed = 1;
nodes = (
"1072 -21 OFFCURVE",
"1281 283 OFFCURVE",
"1281 717 CURVE SMOOTH",
"1281 738 LINE SMOOTH",
"1281 1171 OFFCURVE",
"1072 1477 OFFCURVE",
"675 1477 CURVE SMOOTH",
"298 1477 OFFCURVE",
"70 1171 OFFCURVE",
"70 738 CURVE SMOOTH",
"70 717 LINE SMOOTH",
"70 283 OFFCURVE",
"299 -21 OFFCURVE",
"675 -21 CURVE SMOOTH"
);
},
{
closed = 1;
nodes = (
"412 143 OFFCURVE",
"268 376 OFFCURVE",
"268 717 CURVE SMOOTH",
"268 740 LINE SMOOTH",
"268 1077 OFFCURVE",
"412 1312 OFFCURVE",
"675 1312 CURVE SMOOTH",
"960 1312 OFFCURVE",
"1083 1079 OFFCURVE",
"1083 740 CURVE SMOOTH",
"1083 717 LINE SMOOTH",
"1083 374 OFFCURVE",
"964 143 OFFCURVE",
"675 143 CURVE SMOOTH"
);
}
);
width = 1351;
},
{
anchors = (
{
name = bottom;
position = "{753, 0}";
},
{
name = center;
position = "{753, 728}";
},
{
name = ogonek;
position = "{1355, 10}";
},
{
name = top;
position = "{753, 1356}";
},
{
name = topleft;
position = "{20, 1356}";
},
{
name = topright;
position = "{1116, 1356}";
}
);
layerId = "55372407-EEEC-4390-8B77-FB5958F23D2B";
paths = (
{
closed = 1;
nodes = (
"1146 -21 OFFCURVE",
"1450 295 OFFCURVE",
"1450 717 CURVE SMOOTH",
"1450 740 LINE SMOOTH",
"1450 1158 OFFCURVE",
"1145 1477 OFFCURVE",
"751 1477 CURVE SMOOTH",
"348 1477 OFFCURVE",
"62 1158 OFFCURVE",
"62 740 CURVE SMOOTH",
"62 717 LINE SMOOTH",
"62 295 OFFCURVE",
"349 -21 OFFCURVE",
"753 -21 CURVE SMOOTH"
);
},
{
closed = 1;
nodes = (
"521 245 OFFCURVE",
"413 432 OFFCURVE",
"413 717 CURVE SMOOTH",
"413 742 LINE SMOOTH",
"413 1025 OFFCURVE",
"517 1210 OFFCURVE",
"751 1210 CURVE SMOOTH",
"972 1210 OFFCURVE",
"1101 1020 OFFCURVE",
"1101 742 CURVE SMOOTH",
"1101 717 LINE SMOOTH",
"1101 433 OFFCURVE",
"973 245 OFFCURVE",
"753 245 CURVE SMOOTH"
);
}
);
width = 1505;
}
);
leftKerningGroup = C;
rightKerningGroup = D;
unicode = 004F;
},
{
glyphname = Oacute;
lastChange = "2018-07-30 19:30:48 +0000";
layers = (
{
components = (
{
name = O;
},
{
name = acutecomb;
transform = "{1, 0, 0, 1, 638, 263}";
}
);
layerId = "0331963E-C1C8-4E93-A463-84B984C1D75E";
width = 1488;
},
{
components = (
{
name = O;
},
{
name = acutecomb;
transform = "{1, 0, 0, 1, 515, 294}";
}
);
layerId = "B06AEEA2-953E-4FA5-BFB1-0445B6E4B274";
width = 1351;
},
{
components = (
{
name = O;
},
{
name = acutecomb;
transform = "{1, 0, 0, 1, 505, 274}";
}
);
layerId = "55372407-EEEC-4390-8B77-FB5958F23D2B";
width = 1505;
},
{
anchors = (
{
name = _top;
position = "{728, 1426}";
},
{
name = top;
position = "{728, 1822}";
}
);
associatedMasterId = "B06AEEA2-953E-4FA5-BFB1-0445B6E4B274";
layerId = "89487248-1DF0-4D85-9788-3A100DC715E3";
name = "Jul 25 18, 17:01";
paths = (
{
closed = 1;
nodes = (
"1281 283 OFFCURVE",
"1072 -21 OFFCURVE",
"675 -21 CURVE SMOOTH",
"299 -21 OFFCURVE",
"70 283 OFFCURVE",
"70 717 CURVE SMOOTH",
"70 738 LINE SMOOTH",
"70 1171 OFFCURVE",
"298 1477 OFFCURVE",
"675 1477 CURVE SMOOTH",
"1072 1477 OFFCURVE",
"1281 1171 OFFCURVE",
"1281 738 CURVE SMOOTH",
"1281 717 LINE SMOOTH"
);
},
{
closed = 1;
nodes = (
"1083 1079 OFFCURVE",
"960 1312 OFFCURVE",
"675 1312 CURVE SMOOTH",
"412 1312 OFFCURVE",
"268 1077 OFFCURVE",
"268 740 CURVE SMOOTH",
"268 717 LINE SMOOTH",
"268 376 OFFCURVE",
"412 143 OFFCURVE",
"675 143 CURVE SMOOTH",
"964 143 OFFCURVE",
"1083 374 OFFCURVE",
"1083 717 CURVE SMOOTH",
"1083 740 LINE SMOOTH"
);
},
{
closed = 1;
nodes = (
"1008 1822 LINE",
"1010 1816 LINE",
"741 1556 LINE",
"603 1556 LINE",
"594 1556 LINE",
"778 1822 LINE"
);
}
);
width = 1351;
},
{
anchors = (
{
name = _top;
position = "{738, 1436}";
},
{
name = top;
position = "{738, 1832}";
}
);
associatedMasterId = "0331963E-C1C8-4E93-A463-84B984C1D75E";
layerId = "D6CF8633-FA0C-4D1B-91AA-4A5C8E743A90";
name = "Jul 25 18, 17:20";
paths = (
{
closed = 1;
nodes = (
"1348 271 OFFCURVE",
"1101 -21 OFFCURVE",
"740 -21 CURVE SMOOTH",
"377 -21 OFFCURVE",
"130 272 OFFCURVE",
"130 719 CURVE SMOOTH",
"130 737 LINE SMOOTH",
"130 1184 OFFCURVE",
"375 1477 OFFCURVE",
"738 1477 CURVE SMOOTH",
"1099 1477 OFFCURVE",
"1348 1184 OFFCURVE",
"1348 737 CURVE SMOOTH",
"1348 719 LINE SMOOTH"
);
},
{
closed = 1;
nodes = (
"1294 1151 OFFCURVE",
"1075 1423 OFFCURVE",
"738 1423 CURVE SMOOTH",
"402 1423 OFFCURVE",
"185 1151 OFFCURVE",
"185 739 CURVE SMOOTH",
"185 719 LINE SMOOTH",
"185 304 OFFCURVE",
"403 33 OFFCURVE",
"740 33 CURVE SMOOTH",
"1077 33 OFFCURVE",
"1294 304 OFFCURVE",
"1294 719 CURVE SMOOTH",
"1294 739 LINE SMOOTH"
);
},
{
closed = 1;
nodes = (
"956 1832 LINE",
"958 1827 LINE",
"717 1566 LINE",
"672 1566 LINE",
"670 1571 LINE",
"892 1832 LINE"
);
}
);
visible = 1;
width = 1488;
},
{
anchors = (
{
name = _top;
position = "{767, 1431}";
},
{
name = top;
position = "{767, 1827}";
}
);
associatedMasterId = "55372407-EEEC-4390-8B77-FB5958F23D2B";
layerId = "C1E1622E-79CF-4F08-9DB7-B4E8A5A9E732";
name = "Jul 26 18, 10:40";
paths = (
{
closed = 1;
nodes = (
"1450 295 OFFCURVE",
"1146 -21 OFFCURVE",
"753 -21 CURVE SMOOTH",
"349 -21 OFFCURVE",
"62 295 OFFCURVE",
"62 717 CURVE SMOOTH",
"62 740 LINE SMOOTH",
"62 1158 OFFCURVE",
"348 1477 OFFCURVE",
"751 1477 CURVE SMOOTH",
"1145 1477 OFFCURVE",
"1450 1158 OFFCURVE",
"1450 740 CURVE SMOOTH",
"1450 717 LINE SMOOTH"
);
},
{
closed = 1;
nodes = (
"1101 1020 OFFCURVE",
"972 1210 OFFCURVE",
"751 1210 CURVE SMOOTH",
"517 1210 OFFCURVE",
"413 1025 OFFCURVE",
"413 742 CURVE SMOOTH",
"413 717 LINE SMOOTH",
"413 432 OFFCURVE",
"521 245 OFFCURVE",
"753 245 CURVE SMOOTH",
"973 245 OFFCURVE",
"1101 433 OFFCURVE",
"1101 717 CURVE SMOOTH",
"1101 742 LINE SMOOTH"
);
},
{
closed = 1;
nodes = (
"1091 1827 LINE",
"1093 1821 LINE",
"813 1561 LINE",
"532 1561 LINE",
"525 1561 LINE",
"733 1827 LINE"
);
}
);
width = 1505;
}
);
leftKerningGroup = C;
rightKerningGroup = D;
unicode = 00D3;
},
{
glyphname = Ohorn;
lastChange = "2018-07-30 18:17:01 +0000";
layers = (
{
components = (
{
name = O;
},
{
name = horncomb.case;
transform = "{1, 0, 0, 1, 1121, 0}";
}
);
layerId = "0331963E-C1C8-4E93-A463-84B984C1D75E";
width = 1488;
},
{
components = (
{
name = O;
},
{
name = horncomb.case;
transform = "{1, 0, 0, 1, 945, 0}";
}
);
layerId = "B06AEEA2-953E-4FA5-BFB1-0445B6E4B274";
width = 1351;
},
{
components = (
{
name = O;
},
{
name = horncomb.case;
transform = "{1, 0, 0, 1, 1076, 0}";
}
);
layerId = "55372407-EEEC-4390-8B77-FB5958F23D2B";
width = 1505;
},
{
associatedMasterId = "B06AEEA2-953E-4FA5-BFB1-0445B6E4B274";
layerId = "FAC32D1D-DF8C-4BBA-B9CA-B40EE1DA7D03";
name = "Jul 26 18, 13:40";
paths = (
{
closed = 1;
nodes = (
"1363 293 OFFCURVE",
"1095 -21 OFFCURVE",
"708 -21 CURVE SMOOTH",
"332 -21 OFFCURVE",
"74 293 OFFCURVE",
"74 717 CURVE SMOOTH",
"74 738 LINE SMOOTH",
"74 1161 OFFCURVE",
"332 1477 OFFCURVE",
"708 1477 CURVE SMOOTH",
"867 1477 OFFCURVE",
"1007 1423 OFFCURVE",
"1118 1328 CURVE",
"1226 1348 OFFCURVE",
"1273 1440 OFFCURVE",
"1273 1593 CURVE",
"1451 1593 LINE",
"1451 1393 OFFCURVE",
"1373 1261 OFFCURVE",
"1224 1210 CURVE",
"1313 1081 OFFCURVE",
"1363 917 OFFCURVE",
"1363 738 CURVE SMOOTH",
"1363 717 LINE SMOOTH"
);
},
{
closed = 1;
nodes = (
"1166 1079 OFFCURVE",
"995 1315 OFFCURVE",
"708 1315 CURVE SMOOTH",
"433 1315 OFFCURVE",
"271 1077 OFFCURVE",
"271 740 CURVE SMOOTH",
"271 717 LINE SMOOTH",
"271 376 OFFCURVE",
"433 140 OFFCURVE",
"708 140 CURVE SMOOTH",
"999 140 OFFCURVE",
"1166 374 OFFCURVE",
"1166 717 CURVE SMOOTH",
"1166 740 LINE SMOOTH"
);
}
);
width = 1486;
},
{
associatedMasterId = "0331963E-C1C8-4E93-A463-84B984C1D75E";
layerId = "F6DA7D89-93AF-4998-8A50-F7A9D088270B";
name = "Jul 30 18, 10:01";
paths = (
{
closed = 1;
nodes = (
"1338 271 OFFCURVE",
"1091.333 -21 OFFCURVE",
"730 -21 CURVE SMOOTH",
"367.333 -21 OFFCURVE",
"120 272.333 OFFCURVE",
"120 719 CURVE SMOOTH",
"120 737 LINE SMOOTH",
"120 1183.667 OFFCURVE",
"365.333 1477 OFFCURVE",
"728 1477 CURVE SMOOTH",
"922.667 1477 OFFCURVE",
"1087.667 1391.333 OFFCURVE",
"1197 1238 CURVE",
"1386.333 1240.667 OFFCURVE",
"1445 1334.333 OFFCURVE",
"1445 1541 CURVE",
"1499 1541 LINE",
"1499 1315.667 OFFCURVE",
"1422 1199.667 OFFCURVE",
"1230 1185 CURVE",
"1299.333 1063.667 OFFCURVE",
"1338 910.333 OFFCURVE",
"1338 737 CURVE SMOOTH",
"1338 719 LINE SMOOTH"
);
},
{
closed = 1;
nodes = (
"1284 1151 OFFCURVE",
"1065.333 1423 OFFCURVE",
"728 1423 CURVE SMOOTH",
"392 1423 OFFCURVE",
"175 1151 OFFCURVE",
"175 739 CURVE SMOOTH",
"175 719 LINE SMOOTH",
"175 304.333 OFFCURVE",
"392.667 33 OFFCURVE",
"730 33 CURVE SMOOTH",
"1067.333 33 OFFCURVE",
"1284 304.333 OFFCURVE",
"1284 719 CURVE SMOOTH",
"1284 739 LINE SMOOTH"
);
}
);
width = 1453;
},
{
associatedMasterId = "55372407-EEEC-4390-8B77-FB5958F23D2B";
layerId = "2E6F8DD3-ADAE-4475-9FCB-212A2D13BB0D";
name = "Jul 30 18, 10:01";
paths = (
{
closed = 1;
nodes = (
"1408 289 OFFCURVE",
"1142 -21 OFFCURVE",
"742 -21 CURVE SMOOTH",
"338 -21 OFFCURVE",
"69 289 OFFCURVE",
"69 717 CURVE SMOOTH",
"69 740 LINE SMOOTH",
"69 1164 OFFCURVE",
"336 1477 OFFCURVE",
"740 1477 CURVE SMOOTH",
"923 1477 OFFCURVE",
"1080 1411 OFFCURVE",
"1197 1297 CURVE",
"1232 1343 OFFCURVE",
"1242 1426 OFFCURVE",
"1242 1556 CURVE",
"1448 1556 LINE",
"1448 1362 OFFCURVE",
"1404 1227 OFFCURVE",
"1307 1155 CURVE",
"1372 1036 OFFCURVE",
"1408 895 OFFCURVE",
"1408 740 CURVE SMOOTH",
"1408 717 LINE SMOOTH"
);
},
{
closed = 1;
nodes = (
"1059 1020 OFFCURVE",
"960 1208 OFFCURVE",
"740 1208 CURVE SMOOTH",
"513 1208 OFFCURVE",
"420 1025 OFFCURVE",
"420 742 CURVE SMOOTH",
"420 717 LINE SMOOTH",
"420 432 OFFCURVE",
"517 247 OFFCURVE",
"742 247 CURVE SMOOTH",
"961 247 OFFCURVE",
"1059 433 OFFCURVE",
"1059 717 CURVE SMOOTH",
"1059 742 LINE SMOOTH"
);
}
);
width = 1492;
}
);
leftKerningGroup = C;
unicode = 01A0;
},
{
glyphname = Oslash;
lastChange = "2018-07-30 18:17:01 +0000";
layers = (
{
components = (
{
name = O;
},
{
name = slashlongcomb.case;
transform = "{1, 0, 0, 1, 172, 18}";
}
);
layerId = "0331963E-C1C8-4E93-A463-84B984C1D75E";
width = 1488;
},
{
components = (
{
name = O;
},
{
name = slashlongcomb.case;
transform = "{1, 0, 0, 1, 83, 0}";
}
);
layerId = "B06AEEA2-953E-4FA5-BFB1-0445B6E4B274";
width = 1351;
},
{
components = (
{
name = O;
},
{
name = slashlongcomb.case;
transform = "{1, 0, 0, 1, 149, 16}";
}
);
layerId = "55372407-EEEC-4390-8B77-FB5958F23D2B";
width = 1505;
},
{
associatedMasterId = "B06AEEA2-953E-4FA5-BFB1-0445B6E4B274";
layerId = "95CE74C0-74F5-4A74-8165-423AD9D118B5";
name = "Jul 26 18, 15:06";
paths = (
{
closed = 1;
nodes = (
"1368 293 OFFCURVE",
"1099.667 -21 OFFCURVE",
"713 -21 CURVE SMOOTH",
"593 -21 OFFCURVE",
"485 10.333 OFFCURVE",
"393 69 CURVE",
"296 -94 LINE",
"147 -94 LINE",
"291 150 LINE",
"155 284.667 OFFCURVE",
"79 486.333 OFFCURVE",
"79 717 CURVE SMOOTH",
"79 738 LINE SMOOTH",
"79 1160.667 OFFCURVE",
"337 1477 OFFCURVE",
"713 1477 CURVE SMOOTH",
"829 1477 OFFCURVE",
"935.333 1447.333 OFFCURVE",
"1030 1394 CURVE",
"1103 1517 LINE",
"1252 1517 LINE",
"1134 1318 LINE",
"1282 1182 OFFCURVE",
"1368 974 OFFCURVE",
"1368 738 CURVE SMOOTH",
"1368 717 LINE SMOOTH"
);
},
{
closed = 1;
nodes = (
"1171 912 OFFCURVE",
"1125.333 1059.667 OFFCURVE",
"1044 1157 CURVE",
"1038 1158 LINE",
"478 213 LINE",
"542 165 OFFCURVE",
"621 140 OFFCURVE",
"713 140 CURVE SMOOTH",
"1003.667 140 OFFCURVE",
"1171 374.333 OFFCURVE",
"1171 717 CURVE SMOOTH",
"1171 740 LINE SMOOTH"
);
},
{
closed = 1;
nodes = (
"276 553 OFFCURVE",
"313.333 410.667 OFFCURVE",
"384 316 CURVE",
"390 316 LINE",
"945 1251 LINE",
"878.333 1292.333 OFFCURVE",
"801 1315 OFFCURVE",
"713 1315 CURVE SMOOTH",
"438.333 1315 OFFCURVE",
"276 1077.333 OFFCURVE",
"276 740 CURVE SMOOTH",
"276 717 LINE SMOOTH"
);
}
);
width = 1404;
},
{
associatedMasterId = "55372407-EEEC-4390-8B77-FB5958F23D2B";
layerId = "BC0FB723-A9D9-47EB-B22E-2546C141EB29";
name = "Jul 28 18, 16:04";
paths = (
{
closed = 1;
nodes = (
"1407 289 OFFCURVE",
"1140 -21 OFFCURVE",
"741 -21 CURVE SMOOTH",
"612 -21 OFFCURVE",
"496 9 OFFCURVE",
"399 67 CURVE",
"306 -96 LINE",
"165 -96 LINE",
"301 140 LINE",
"152 273 OFFCURVE",
"68 478 OFFCURVE",
"68 717 CURVE SMOOTH",
"68 740 LINE SMOOTH",
"68 1164 OFFCURVE",
"335 1477 OFFCURVE",
"739 1477 CURVE SMOOTH",
"846 1477 OFFCURVE",
"945 1454 OFFCURVE",
"1033 1412 CURVE",
"1095 1519 LINE",
"1236 1519 LINE",
"1137 1349 LINE",
"1309 1215 OFFCURVE",
"1407 995 OFFCURVE",
"1407 740 CURVE SMOOTH",
"1407 717 LINE SMOOTH"
);
},
{
closed = 1;
nodes = (
"1058 877 OFFCURVE",
"1033 996 OFFCURVE",
"984 1069 CURVE",
"978 1070 LINE",
"544 317 LINE",
"593 271 OFFCURVE",
"657 247 OFFCURVE",
"741 247 CURVE SMOOTH",
"960 247 OFFCURVE",
"1058 433 OFFCURVE",
"1058 717 CURVE SMOOTH",
"1058 742 LINE SMOOTH"
);
},
{
closed = 1;
nodes = (
"419 603 OFFCURVE",
"432 503 OFFCURVE",
"463 434 CURVE",
"469 433 LINE",
"892 1168 LINE",
"849 1192 OFFCURVE",
"797 1208 OFFCURVE",
"739 1208 CURVE SMOOTH",
"512 1208 OFFCURVE",
"419 1025 OFFCURVE",
"419 742 CURVE SMOOTH",
"419 717 LINE SMOOTH"
);
}
);
width = 1398;
},
{
associatedMasterId = "0331963E-C1C8-4E93-A463-84B984C1D75E";
layerId = "46FC2305-6505-4C80-9A8C-370AC2054C8A";
name = "Jul 28 18, 16:04";
paths = (
{
closed = 1;
nodes = (
"1338 271 OFFCURVE",
"1091.333 -21 OFFCURVE",
"730 -21 CURVE SMOOTH",
"590 -21 OFFCURVE",
"465.667 21.333 OFFCURVE",
"367 104 CURVE",
"254 -75 LINE",
"188 -75 LINE",
"325 142 LINE",
"193 272.667 OFFCURVE",
"120 472.333 OFFCURVE",
"120 719 CURVE SMOOTH",
"120 737 LINE SMOOTH",
"120 1183.667 OFFCURVE",
"365.333 1477 OFFCURVE",
"728 1477 CURVE SMOOTH",
"866.667 1477 OFFCURVE",
"993 1431.333 OFFCURVE",
"1093 1350 CURVE",
"1185 1495 LINE",
"1251 1495 LINE",
"1135 1312 LINE",
"1263 1180 OFFCURVE",
"1338 979.667 OFFCURVE",
"1338 737 CURVE SMOOTH",
"1338 719 LINE SMOOTH"
);
},
{
closed = 1;
nodes = (
"1284 960.333 OFFCURVE",
"1220 1144.333 OFFCURVE",
"1108 1259 CURVE",
"1102 1260 LINE",
"396 149 LINE",
"486.667 73 OFFCURVE",
"599.333 33 OFFCURVE",
"730 33 CURVE SMOOTH",
"1067.333 33 OFFCURVE",
"1284 304.333 OFFCURVE",
"1284 719 CURVE SMOOTH",
"1284 739 LINE SMOOTH"
);
},
{
closed = 1;
nodes = (
"175 493.667 OFFCURVE",
"238.333 309.667 OFFCURVE",
"353 195 CURVE",
"359 194 LINE",
"1064 1305 LINE",
"973.333 1381 OFFCURVE",
"858.667 1423 OFFCURVE",
"728 1423 CURVE SMOOTH",
"392 1423 OFFCURVE",
"175 1151 OFFCURVE",
"175 739 CURVE SMOOTH",
"175 719 LINE SMOOTH"
);
}
);
width = 1411;
}
);
leftKerningGroup = C;
unicode = 00D8;
},
{
color = 9;
glyphname = OE;
lastChange = "2018-07-30 18:03:57 +0000";
layers = (
{
anchors = (
{
name = bottom;
position = "{1016, 0}";
},
{
name = top;
position = "{1021, 1345}";
}
);
layerId = "0331963E-C1C8-4E93-A463-84B984C1D75E";
paths = (
{
closed = 1;
nodes = (
"864 -21 OFFCURVE",
"966 -10 OFFCURVE",
"1048 9 CURVE",
"1028 63 LINE",
"949 43 OFFCURVE",
"859 33 OFFCURVE",
"786 33 CURVE SMOOTH",
"407 33 OFFCURVE",
"185 304 OFFCURVE",
"185 719 CURVE SMOOTH",
"185 739 LINE SMOOTH",
"185 1151 OFFCURVE",
"406 1423 OFFCURVE",
"784 1423 CURVE SMOOTH",
"857 1423 OFFCURVE",
"948 1413 OFFCURVE",
"1028 1393 CURVE",
"1048 1446 LINE",
"965 1466 OFFCURVE",
"863 1477 OFFCURVE",
"784 1477 CURVE SMOOTH",
"379 1477 OFFCURVE",
"130 1184 OFFCURVE",
"130 737 CURVE SMOOTH",
"130 719 LINE SMOOTH",
"130 272 OFFCURVE",
"381 -21 OFFCURVE",
"786 -21 CURVE SMOOTH"
);
},
{
closed = 1;
nodes = (
"1878 0 LINE",
"1878 293 LINE",
"1824 293 LINE",
"1824 54 LINE",
"1046 54 LINE",
"1046 732 LINE",
"1676 732 LINE",
"1676 786 LINE",
"1046 786 LINE",
"1046 1402 LINE",
"1824 1402 LINE",
"1824 1163 LINE",
"1878 1163 LINE",
"1878 1456 LINE",
"926 1456 LINE",
"992 1412 LINE",
"992 44 LINE",
"926 0 LINE"
);
}
);
width = 2028;
},
{
anchors = (
{
name = bottom;
position = "{978, 0}";
},
{
name = top;
position = "{978, 1376}";
}
);
layerId = "B06AEEA2-953E-4FA5-BFB1-0445B6E4B274";
paths = (
{
closed = 1;
nodes = (
"822 -21 OFFCURVE",
"943 0 OFFCURVE",
"1078 38 CURVE",
"1078 240 LINE",
"969 178 OFFCURVE",
"840 143 OFFCURVE",
"715 143 CURVE SMOOTH",
"416 143 OFFCURVE",
"268 376 OFFCURVE",
"268 717 CURVE SMOOTH",
"268 740 LINE SMOOTH",
"268 1077 OFFCURVE",
"416 1312 OFFCURVE",
"715 1312 CURVE SMOOTH",
"839 1312 OFFCURVE",
"968 1275 OFFCURVE",
"1078 1211 CURVE",
"1078 1417 LINE",
"943 1456 OFFCURVE",
"822 1477 OFFCURVE",
"715 1477 CURVE SMOOTH",
"302 1477 OFFCURVE",
"70 1171 OFFCURVE",
"70 738 CURVE SMOOTH",
"70 717 LINE SMOOTH",
"70 283 OFFCURVE",
"303 -21 OFFCURVE",
"715 -21 CURVE SMOOTH"
);
},
{
closed = 1;
nodes = (
"1871 0 LINE",
"1871 349 LINE",
"1703 349 LINE",
"1687 154 LINE",
"1102 154 LINE",
"1102 675 LINE",
"1659 675 LINE",
"1659 830 LINE",
"1102 830 LINE",
"1102 1301 LINE",
"1675 1301 LINE",
"1691 1106 LINE",
"1860 1106 LINE",
"1860 1456 LINE",
"850 1456 LINE",
"905 1301 LINE",
"905 154 LINE",
"850 0 LINE"
);
}
);
width = 1987;
},
{
anchors = (
{
name = bottom;
position = "{1003, 0}";
},
{
name = top;
position = "{1003, 1356}";
}
);
layerId = "55372407-EEEC-4390-8B77-FB5958F23D2B";
paths = (
{
closed = 1;
nodes = (
"885 -21 OFFCURVE",
"994 -4 OFFCURVE",
"1093 27 CURVE",
"1093 343 LINE",
"999 281 OFFCURVE",
"888 245 OFFCURVE",
"773 245 CURVE SMOOTH",
"524 245 OFFCURVE",
"413 432 OFFCURVE",
"413 717 CURVE SMOOTH",
"413 742 LINE SMOOTH",
"413 1025 OFFCURVE",
"520 1210 OFFCURVE",
"771 1210 CURVE SMOOTH",
"890 1210 OFFCURVE",
"1003 1169 OFFCURVE",
"1093 1099 CURVE",
"1093 1429 LINE",
"994 1460 OFFCURVE",
"884 1477 OFFCURVE",
"771 1477 CURVE SMOOTH",
"352 1477 OFFCURVE",
"62 1158 OFFCURVE",
"62 740 CURVE SMOOTH",
"62 717 LINE SMOOTH",
"62 295 OFFCURVE",
"353 -21 OFFCURVE",
"773 -21 CURVE SMOOTH"
);
},
{
closed = 1;
nodes = (
"1961 0 LINE",
"1961 428 LINE",
"1706 428 LINE",
"1695 267 LINE",
"1296 267 LINE",
"1296 618 LINE",
"1749 618 LINE",
"1749 887 LINE",
"1296 887 LINE",
"1296 1188 LINE",
"1696 1188 LINE",
"1707 1027 LINE",
"1965 1027 LINE",
"1965 1456 LINE",
"873 1456 LINE",
"945 1241 LINE",
"945 214 LINE",
"873 0 LINE"
);
}
);
width = 2055;
}
);
leftKerningGroup = C;
leftMetricsKey = O;
rightMetricsKey = E;
unicode = 0152;
userData = {
com.typemytype.robofont.layerData = {
mask = {
anchors = (
);
components = (
);
contours = (
{
points = (
{
segmentType = line;
smooth = 0;
x = 963;
y = 0;
},
{
smooth = 0;
x = 825.66667;
y = -13.33333;
},
{
smooth = 0;
x = 735.66667;
y = -21;
},
{
segmentType = curve;
smooth = 1;
x = 633;
y = -21;
},
{
smooth = 0;
x = 325;
y = -21;
},
{
smooth = 0;
x = 114;
y = 222.66667;
},
{
segmentType = curve;
smooth = 1;
x = 114;
y = 576;
},
{
segmentType = line;
smooth = 1;
x = 114;
y = 880;
},
{
smooth = 0;
x = 114;
y = 1233.33333;
},
{
smooth = 0;
x = 323;
y = 1477;
},
{
segmentType = curve;
smooth = 1;
x = 631;
y = 1477;
},
{
smooth = 0;
x = 737.66667;
y = 1477;
},
{
smooth = 0;
x = 844.33333;
y = 1468;
},
{
segmentType = curve;
smooth = 0;
x = 963;
y = 1456;
},
{
segmentType = line;
smooth = 0;
x = 1835;
y = 1456;
},
{
segmentType = line;
smooth = 0;
x = 1835;
y = 1163;
},
{
segmentType = line;
smooth = 0;
x = 1781;
y = 1163;
},
{
segmentType = line;
smooth = 0;
x = 1781;
y = 1402;
},
{
segmentType = line;
smooth = 0;
x = 1003;
y = 1402;
},
{
segmentType = line;
smooth = 0;
x = 1003;
y = 786;
},
{
segmentType = line;
smooth = 0;
x = 1633;
y = 786;
},
{
segmentType = line;
smooth = 0;
x = 1633;
y = 732;
},
{
segmentType = line;
smooth = 0;
x = 1003;
y = 732;
},
{
segmentType = line;
smooth = 0;
x = 1003;
y = 54;
},
{
segmentType = line;
smooth = 0;
x = 1781;
y = 54;
},
{
segmentType = line;
smooth = 0;
x = 1781;
y = 293;
},
{
segmentType = line;
smooth = 0;
x = 1835;
y = 293;
},
{
segmentType = line;
smooth = 0;
x = 1835;
y = 0;
}
);
},
{
points = (
{
segmentType = curve;
smooth = 1;
x = 633;
y = 33;
},
{
smooth = 0;
x = 682.33333;
y = 33;
},
{
smooth = 0;
x = 735.33333;
y = 33.33333;
},
{
segmentType = curve;
smooth = 0;
x = 786;
y = 36;
},
{
segmentType = line;
smooth = 0;
x = 786;
y = 54;
},
{
segmentType = line;
smooth = 0;
x = 949;
y = 54;
},
{
segmentType = line;
smooth = 0;
x = 949;
y = 1402;
},
{
segmentType = line;
smooth = 0;
x = 786;
y = 1402;
},
{
segmentType = line;
smooth = 0;
x = 786;
y = 1420;
},
{
smooth = 0;
x = 735.33333;
y = 1421.33333;
},
{
smooth = 0;
x = 683;
y = 1423;
},
{
segmentType = curve;
smooth = 1;
x = 631;
y = 1423;
},
{
smooth = 0;
x = 349.66667;
y = 1423;
},
{
smooth = 0;
x = 168;
y = 1206;
},
{
segmentType = curve;
smooth = 1;
x = 168;
y = 882;
},
{
segmentType = line;
smooth = 1;
x = 168;
y = 576;
},
{
smooth = 0;
x = 168;
y = 256;
},
{
smooth = 0;
x = 353;
y = 33;
}
);
}
);
lib = {
};
name = OE;
unicodes = (
);
width = 1973;
};
};
};
},
{
glyphname = P;
lastChange = "2018-07-27 21:58:35 +0000";
layers = (
{
anchors = (
{
name = bottom;
position = "{263, 0}";
},
{
name = top;
position = "{628, 1345}";
}
);
layerId = "0331963E-C1C8-4E93-A463-84B984C1D75E";
paths = (
{
closed = 1;
nodes = (
"451 0 LINE",
"451 54 LINE",
"288 54 LINE",
"288 625 LINE",
"639 625 LINE SMOOTH",
"941.667 625 OFFCURVE",
"1109 787.667 OFFCURVE",
"1109 1041 CURVE SMOOTH",
"1109 1291.667 OFFCURVE",
"940.333 1456 OFFCURVE",
"639 1456 CURVE SMOOTH",
"234 1456 LINE",
"71 1456 LINE",
"71 1402 LINE",
"234 1402 LINE",
"234 54 LINE",
"71 54 LINE",
"71 0 LINE"
);
},
{
closed = 1;
nodes = (
"288 1402 LINE",
"639 1402 LINE SMOOTH",
"916.333 1402 OFFCURVE",
"1055 1249.667 OFFCURVE",
"1055 1039 CURVE SMOOTH",
"1055 833.667 OFFCURVE",
"915 679 OFFCURVE",
"639 679 CURVE SMOOTH",
"288 679 LINE"
);
}
);
width = 1255;
},
{
anchors = (
{
name = bottom;
position = "{649, 0}";
},
{
name = top;
position = "{649, 1376}";
}
);
layerId = "B06AEEA2-953E-4FA5-BFB1-0445B6E4B274";
paths = (
{
closed = 1;
nodes = (
"604 0 LINE",
"604 126 LINE",
"441 154 LINE",
"441 584 LINE",
"750 584 LINE SMOOTH",
"1061 584 OFFCURVE",
"1242 756 OFFCURVE",
"1242 1020 CURVE SMOOTH",
"1242 1281 OFFCURVE",
"1061 1456 OFFCURVE",
"750 1456 CURVE SMOOTH",
"244 1456 LINE",
"81 1456 LINE",
"81 1329 LINE",
"244 1301 LINE",
"244 154 LINE",
"81 126 LINE",
"81 0 LINE"
);
},
{
closed = 1;
nodes = (
"441 1301 LINE",
"750 1301 LINE SMOOTH",
"947 1301 OFFCURVE",
"1045 1179 OFFCURVE",
"1045 1018 CURVE SMOOTH",
"1045 857 OFFCURVE",
"947 738 OFFCURVE",
"750 738 CURVE SMOOTH",
"441 738 LINE"
);
}
);
width = 1297;
},
{
anchors = (
{
name = bottom;
position = "{373, 0}";
},
{
name = top;
position = "{671, 1356}";
}
);
layerId = "55372407-EEEC-4390-8B77-FB5958F23D2B";
paths = (
{
closed = 1;
nodes = (
"693 0 LINE",
"693 205 LINE",
"542 237 LINE",
"542 493 LINE",
"748 493 LINE SMOOTH",
"1096 493 OFFCURVE",
"1317 685 OFFCURVE",
"1317 973 CURVE SMOOTH",
"1317 1260 OFFCURVE",
"1096 1456 OFFCURVE",
"748 1456 CURVE SMOOTH",
"191 1456 LINE",
"40 1456 LINE",
"40 1250 LINE",
"191 1218 LINE",
"191 237 LINE",
"40 205 LINE",
"40 0 LINE"
);
},
{
closed = 1;
nodes = (
"542 1188 LINE",
"748 1188 LINE SMOOTH",
"890 1188 OFFCURVE",
"966 1098 OFFCURVE",
"966 971 CURVE SMOOTH",
"966 848 OFFCURVE",
"890 762 OFFCURVE",
"748 762 CURVE SMOOTH",
"542 762 LINE"
);
}
);
width = 1342;
}
);
rightKerningGroup = P;
unicode = 0050;
},
{
glyphname = Thorn;
lastChange = "2018-07-27 21:58:43 +0000";
layers = (
{
anchors = (
{
name = bottom;
position = "{620, 0}";
},
{
name = top;
position = "{620, 1345}";
}
);
layerId = "0331963E-C1C8-4E93-A463-84B984C1D75E";
paths = (
{
closed = 1;
nodes = (
"450 0 LINE",
"450 54 LINE",
"287 54 LINE",
"287 334 LINE",
"658 334 LINE SMOOTH",
"940.667 334 OFFCURVE",
"1108 498 OFFCURVE",
"1108 738 CURVE SMOOTH",
"1108 976.667 OFFCURVE",
"940.667 1143 OFFCURVE",
"658 1143 CURVE SMOOTH",
"287 1143 LINE",
"287 1402 LINE",
"450 1402 LINE",
"450 1456 LINE",
"287 1456 LINE",
"70 1456 LINE",
"70 1402 LINE",
"233 1402 LINE",
"233 54 LINE",
"70 54 LINE",
"70 0 LINE"
);
},
{
closed = 1;
nodes = (
"287 1089 LINE",
"658 1089 LINE SMOOTH",
"919.333 1089 OFFCURVE",
"1054 928 OFFCURVE",
"1054 736 CURVE SMOOTH",
"1054 549.333 OFFCURVE",
"918 388 OFFCURVE",
"658 388 CURVE SMOOTH",
"287 388 LINE"
);
}
);
width = 1240;
},
{
anchors = (
{
name = bottom;
position = "{338, 0}";
},
{
name = top;
position = "{338, 1376}";
}
);
layerId = "B06AEEA2-953E-4FA5-BFB1-0445B6E4B274";
paths = (
{
closed = 1;
nodes = (
"593 0 LINE",
"593 126 LINE",
"430 154 LINE",
"430 313 LINE",
"699 313 LINE SMOOTH",
"1007 313 OFFCURVE",
"1190 484.667 OFFCURVE",
"1190 738 CURVE SMOOTH",
"1190 990 OFFCURVE",
"1007 1163 OFFCURVE",
"699 1163 CURVE SMOOTH",
"430 1163 LINE",
"430 1301 LINE",
"593 1329 LINE",
"593 1456 LINE",
"430 1456 LINE",
"70 1456 LINE",
"70 1329 LINE",
"233 1301 LINE",
"233 154 LINE",
"70 126 LINE",
"70 0 LINE"
);
},
{
closed = 1;
nodes = (
"430 1009 LINE",
"699 1009 LINE SMOOTH",
"893.667 1009 OFFCURVE",
"993 888 OFFCURVE",
"993 736 CURVE SMOOTH",
"993 585.333 OFFCURVE",
"893.667 467 OFFCURVE",
"699 467 CURVE SMOOTH",
"430 467 LINE"
);
}
);
width = 1277;
},
{
anchors = (
{
name = bottom;
position = "{407, 0}";
},
{
name = top;
position = "{407, 1356}";
}
);
layerId = "55372407-EEEC-4390-8B77-FB5958F23D2B";
paths = (
{
closed = 1;
nodes = (
"719 0 LINE",
"719 205 LINE",
"568 237 LINE",
"568 313 LINE",
"738 313 LINE SMOOTH",
"1087 313 OFFCURVE",
"1290 484 OFFCURVE",
"1290 737 CURVE SMOOTH",
"1290 989 OFFCURVE",
"1087 1159 OFFCURVE",
"738 1159 CURVE SMOOTH",
"568 1159 LINE",
"568 1218 LINE",
"719 1250 LINE",
"719 1456 LINE",
"568 1456 LINE",
"65 1456 LINE",
"65 1250 LINE",
"217 1218 LINE",
"217 237 LINE",
"65 205 LINE",
"65 0 LINE"
);
},
{
closed = 1;
nodes = (
"568 900 LINE",
"738 900 LINE SMOOTH",
"873 900 OFFCURVE",
"939 829 OFFCURVE",
"939 735 CURVE SMOOTH",
"939 640 OFFCURVE",
"873 572 OFFCURVE",
"738 572 CURVE SMOOTH",
"568 572 LINE"
);
}
);
width = 1300;
}
);
unicode = 00DE;
},
{
glyphname = Q;
lastChange = "2018-07-27 21:58:52 +0000";
layers = (
{
anchors = (
{
name = bottom;
position = "{739, 0}";
},
{
name = top;
position = "{739, 1345}";
}
);
layerId = "0331963E-C1C8-4E93-A463-84B984C1D75E";
paths = (
{
closed = 1;
nodes = (
"1343 -165 LINE",
"1033 56 LINE",
"1230.333 170.667 OFFCURVE",
"1348 409.667 OFFCURVE",
"1348 719 CURVE SMOOTH",
"1348 737 LINE SMOOTH",
"1348 1183.667 OFFCURVE",
"1099.333 1477 OFFCURVE",
"738 1477 CURVE SMOOTH",
"375.333 1477 OFFCURVE",
"130 1183.667 OFFCURVE",
"130 737 CURVE SMOOTH",
"130 719 LINE SMOOTH",
"130 272.333 OFFCURVE",
"377.333 -21 OFFCURVE",
"740 -21 CURVE SMOOTH",
"825.333 -21 OFFCURVE",
"905.667 -5.333 OFFCURVE",
"979 28 CURVE",
"1308 -206 LINE"
);
},
{
closed = 1;
nodes = (
"402.667 33 OFFCURVE",
"185 304.333 OFFCURVE",
"185 719 CURVE SMOOTH",
"185 739 LINE SMOOTH",
"185 1151 OFFCURVE",
"402 1423 OFFCURVE",
"738 1423 CURVE SMOOTH",
"1075.333 1423 OFFCURVE",
"1294 1151 OFFCURVE",
"1294 739 CURVE SMOOTH",
"1294 719 LINE SMOOTH",
"1294 304.333 OFFCURVE",
"1077.333 33 OFFCURVE",
"740 33 CURVE SMOOTH"
);
}
);
width = 1478;
},
{
anchors = (
{
name = bottom;
position = "{682, 0}";
},
{
name = top;
position = "{682, 1376}";
}
);
layerId = "B06AEEA2-953E-4FA5-BFB1-0445B6E4B274";
paths = (
{
closed = 1;
nodes = (
"1348 -98 LINE",
"1056 105 LINE",
"1228 236 OFFCURVE",
"1279 454 OFFCURVE",
"1279 717 CURVE SMOOTH",
"1279 738 LINE SMOOTH",
"1279 1170 OFFCURVE",
"1068 1477 OFFCURVE",
"674 1477 CURVE SMOOTH",
"298 1477 OFFCURVE",
"70 1170 OFFCURVE",
"70 738 CURVE SMOOTH",
"70 717 LINE SMOOTH",
"70 285 OFFCURVE",
"300 -21 OFFCURVE",
"674 -21 CURVE SMOOTH",
"747 -21 OFFCURVE",
"818 -8 OFFCURVE",
"885 13 CURVE",
"1237 -245 LINE"
);
},
{
closed = 1;
nodes = (
"409 143 OFFCURVE",
"267 376 OFFCURVE",
"267 717 CURVE SMOOTH",
"267 740 LINE SMOOTH",
"267 1077 OFFCURVE",
"413 1312 OFFCURVE",
"674 1312 CURVE SMOOTH",
"959 1312 OFFCURVE",
"1082 1079 OFFCURVE",
"1082 740 CURVE SMOOTH",
"1082 717 LINE SMOOTH",
"1082 374 OFFCURVE",
"955 143 OFFCURVE",
"674 143 CURVE SMOOTH"
);
}
);
width = 1376;
},
{
anchors = (
{
name = bottom;
position = "{757, 0}";
},
{
name = top;
position = "{757, 1356}";
}
);
layerId = "55372407-EEEC-4390-8B77-FB5958F23D2B";
paths = (
{
closed = 1;
nodes = (
"1492 -67 LINE",
"1171 120 LINE",
"1330 252 OFFCURVE",
"1454 470 OFFCURVE",
"1454 717 CURVE SMOOTH",
"1454 740 LINE SMOOTH",
"1454 1159 OFFCURVE",
"1150 1477 OFFCURVE",
"755 1477 CURVE SMOOTH",
"351 1477 OFFCURVE",
"65 1159 OFFCURVE",
"65 740 CURVE SMOOTH",
"65 717 LINE SMOOTH",
"65 294 OFFCURVE",
"351 -21 OFFCURVE",
"757 -21 CURVE SMOOTH",
"796 -21 OFFCURVE",
"837 -17 OFFCURVE",
"880 -13 CURVE",
"1328 -303 LINE"
);
},
{
closed = 1;
nodes = (
"526 245 OFFCURVE",
"416 432 OFFCURVE",
"416 717 CURVE SMOOTH",
"416 742 LINE SMOOTH",
"416 1025 OFFCURVE",
"519 1210 OFFCURVE",
"755 1210 CURVE SMOOTH",
"976 1210 OFFCURVE",
"1105 1020 OFFCURVE",
"1105 742 CURVE SMOOTH",
"1105 717 LINE SMOOTH",
"1105 433 OFFCURVE",
"982 245 OFFCURVE",
"757 245 CURVE SMOOTH"
);
}
);
width = 1494;
}
);
leftKerningGroup = C;
unicode = 0051;
userData = {
com.typemytype.robofont.layerData = {
mask = {
anchors = (
);
components = (
);
contours = (
{
points = (
{
segmentType = line;
smooth = 1;
x = 1348;
y = 719;
},
{
smooth = 0;
x = 1348;
y = 409.66667;
},
{
smooth = 0;
x = 1230.33333;
y = 170.66667;
},
{
segmentType = curve;
smooth = 0;
x = 1033;
y = 56;
},
{
segmentType = line;
smooth = 0;
x = 1343;
y = -165;
},
{
segmentType = line;
smooth = 0;
x = 1304;
y = -203;
},
{
segmentType = line;
smooth = 0;
x = 979;
y = 28;
},
{
smooth = 0;
x = 905.66667;
y = -5.33333;
},
{
smooth = 0;
x = 825.33333;
y = -21;
},
{
segmentType = curve;
smooth = 1;
x = 740;
y = -21;
},
{
smooth = 0;
x = 377.33333;
y = -21;
},
{
smooth = 0;
x = 130;
y = 272.33333;
},
{
segmentType = curve;
smooth = 1;
x = 130;
y = 719;
},
{
segmentType = line;
smooth = 1;
x = 130;
y = 737;
},
{
smooth = 0;
x = 130;
y = 1183.66667;
},
{
smooth = 0;
x = 375.33333;
y = 1477;
},
{
segmentType = curve;
smooth = 1;
x = 738;
y = 1477;
},
{
smooth = 0;
x = 1099.33333;
y = 1477;
},
{
smooth = 0;
x = 1348;
y = 1183.66667;
},
{
segmentType = curve;
smooth = 1;
x = 1348;
y = 737;
}
);
},
{
points = (
{
segmentType = line;
smooth = 1;
x = 1294;
y = 739;
},
{
smooth = 0;
x = 1294;
y = 1151;
},
{
smooth = 0;
x = 1075.33333;
y = 1423;
},
{
segmentType = curve;
smooth = 1;
x = 738;
y = 1423;
},
{
smooth = 0;
x = 402;
y = 1423;
},
{
smooth = 0;
x = 185;
y = 1151;
},
{
segmentType = curve;
smooth = 1;
x = 185;
y = 739;
},
{
segmentType = line;
smooth = 1;
x = 185;
y = 719;
},
{
smooth = 0;
x = 185;
y = 304.33333;
},
{
smooth = 0;
x = 402.66667;
y = 33;
},
{
segmentType = curve;
smooth = 1;
x = 740;
y = 33;
},
{
smooth = 0;
x = 1077.33333;
y = 33;
},
{
smooth = 0;
x = 1294;
y = 304.33333;
},
{
segmentType = curve;
smooth = 1;
x = 1294;
y = 719;
}
);
}
);
lib = {
};
name = Q;
unicodes = (
);
width = 1478;
};
};
com.typemytype.robofont.mark = (
1,
0.1703,
0.1669,
0.8287
);
};
},
{
color = 3;
glyphname = R;
lastChange = "2018-07-27 21:58:58 +0000";
layers = (
{
anchors = (
{
name = bottom;
position = "{682, 0}";
},
{
name = top;
position = "{682, 1345}";
}
);
layerId = "0331963E-C1C8-4E93-A463-84B984C1D75E";
paths = (
{
closed = 1;
nodes = (
"451 -1 LINE",
"451 53 LINE",
"288 53 LINE",
"288 683 LINE",
"652 683 LINE",
"940 683 OFFCURVE",
"1134 820 OFFCURVE",
"1134 1065 CURVE SMOOTH",
"1134 1320 OFFCURVE",
"963 1455 OFFCURVE",
"656 1455 CURVE SMOOTH",
"71 1455 LINE",
"71 1401 LINE",
"234 1401 LINE",
"234 53 LINE",
"71 53 LINE",
"71 -1 LINE"
);
},
{
closed = 1;
nodes = (
"1236 -1 LINE",
"1236 53 LINE",
"1103 53 LINE",
"816 718 LINE",
"762 718 LINE",
"1067 -1 LINE"
);
},
{
closed = 1;
nodes = (
"288 1401 LINE",
"656 1401 LINE SMOOTH",
"937 1401 OFFCURVE",
"1080 1282 OFFCURVE",
"1080 1065 CURVE SMOOTH",
"1080 878 OFFCURVE",
"945 737 OFFCURVE",
"651 737 CURVE SMOOTH",
"288 737 LINE"
);
}
);
width = 1364;
},
{
anchors = (
{
name = bottom;
position = "{693, 0}";
},
{
name = top;
position = "{693, 1376}";
}
);
layerId = "B06AEEA2-953E-4FA5-BFB1-0445B6E4B274";
paths = (
{
closed = 1;
nodes = (
"604 0 LINE",
"604 126 LINE",
"441 154 LINE",
"441 650 LINE",
"767 656 LINE SMOOTH",
"1046 661 OFFCURVE",
"1222 793 OFFCURVE",
"1222 1050 CURVE SMOOTH",
"1222 1309 OFFCURVE",
"1047 1455 OFFCURVE",
"730 1455 CURVE SMOOTH",
"81 1455 LINE",
"81 1329 LINE",
"244 1301 LINE",
"244 154 LINE",
"81 126 LINE",
"81 0 LINE"
);
},
{
closed = 1;
nodes = (
"1285 0 LINE",
"1285 129 LINE",
"1184 147 LINE",
"915 729 LINE",
"718 727 LINE",
"1042 0 LINE"
);
},
{
closed = 1;
nodes = (
"441 1301 LINE",
"730 1301 LINE SMOOTH",
"931 1301 OFFCURVE",
"1025 1205 OFFCURVE",
"1025 1052 CURVE SMOOTH",
"1025 891 OFFCURVE",
"930 805 OFFCURVE",
"710 805 CURVE SMOOTH",
"441 805 LINE"
);
}
);
width = 1385;
},
{
associatedMasterId = "B06AEEA2-953E-4FA5-BFB1-0445B6E4B274";
layerId = "B3C1FABD-A09B-46D2-8C58-F0FEB832F081";
name = "Jul 13 18, 22:53";
paths = (
{
closed = 1;
nodes = (
"1037 1455 OFFCURVE",
"1212 1309 OFFCURVE",
"1212 1050 CURVE SMOOTH",
"1212 909 OFFCURVE",
"1131 796 OFFCURVE",
"984 733 CURVE",
"1143 681 OFFCURVE",
"1208 561 OFFCURVE",
"1208 389 CURVE SMOOTH",
"1208 272 LINE SMOOTH",
"1208 183 OFFCURVE",
"1229 143 OFFCURVE",
"1281 135 CURVE SMOOTH",
"1329 129 LINE",
"1329 0 LINE",
"1223 0 LINE SMOOTH",
"1070 0 OFFCURVE",
"1011 122 OFFCURVE",
"1011 274 CURVE SMOOTH",
"1011 387 LINE SMOOTH",
"1011 546 OFFCURVE",
"912 650 OFFCURVE",
"757 650 CURVE SMOOTH",
"441 650 LINE",
"441 154 LINE",
"604 126 LINE",
"604 0 LINE",
"81 0 LINE",
"81 126 LINE",
"244 154 LINE",
"244 1301 LINE",
"81 1329 LINE",
"81 1455 LINE",
"720 1455 LINE SMOOTH"
);
},
{
closed = 1;
nodes = (
"700 805 LINE SMOOTH",
"920 805 OFFCURVE",
"1015 891 OFFCURVE",
"1015 1052 CURVE SMOOTH",
"1015 1205 OFFCURVE",
"921 1301 OFFCURVE",
"720 1301 CURVE SMOOTH",
"441 1301 LINE",
"441 805 LINE"
);
}
);
width = 1396;
},
{
associatedMasterId = "B06AEEA2-953E-4FA5-BFB1-0445B6E4B274";
layerId = "746BFEFE-DE8D-4616-9A01-4CE384D00458";
name = "Jul 13 18, 23:39";
paths = (
{
closed = 1;
nodes = (
"1212 793 OFFCURVE",
"1036 661 OFFCURVE",
"757 656 CURVE SMOOTH",
"441 650 LINE",
"441 154 LINE",
"604 126 LINE",
"604 0 LINE",
"81 0 LINE",
"81 126 LINE",
"244 154 LINE",
"244 1301 LINE",
"81 1329 LINE",
"81 1455 LINE",
"720 1455 LINE SMOOTH",
"1037 1455 OFFCURVE",
"1212 1309 OFFCURVE",
"1212 1050 CURVE SMOOTH"
);
},
{
closed = 1;
nodes = (
"700 805 LINE SMOOTH",
"920 805 OFFCURVE",
"1015 891 OFFCURVE",
"1015 1052 CURVE SMOOTH",
"1015 1205 OFFCURVE",
"921 1301 OFFCURVE",
"720 1301 CURVE SMOOTH",
"441 1301 LINE",
"441 805 LINE"
);
},
{
closed = 1;
nodes = (
"905 729 LINE",
"1163 221 LINE SMOOTH",
"1195 158 OFFCURVE",
"1213 140 OFFCURVE",
"1255 135 CURVE SMOOTH",
"1303 129 LINE",
"1303 0 LINE",
"1197 0 LINE SMOOTH",
"1101 0 OFFCURVE",
"1057 28 OFFCURVE",
"993 158 CURVE SMOOTH",
"715 727 LINE"
);
}
);
width = 1390;
},
{
associatedMasterId = "0331963E-C1C8-4E93-A463-84B984C1D75E";
layerId = "1D0575CD-5EB1-4601-9DBC-7E3B47C3FF49";
name = "Jul 14 18, 17:28";
paths = (
{
closed = 1;
nodes = (
"954.667 1455 OFFCURVE",
"1126 1319.667 OFFCURVE",
"1126 1065 CURVE SMOOTH",
"1126 901 OFFCURVE",
"1014.333 751 OFFCURVE",
"833 711 CURVE",
"1042.333 675 OFFCURVE",
"1126 553.667 OFFCURVE",
"1126 371 CURVE SMOOTH",
"1126 224 LINE SMOOTH",
"1126 109.333 OFFCURVE",
"1165.667 54 OFFCURVE",
"1243 54 CURVE SMOOTH",
"1294 54 LINE",
"1294 0 LINE",
"1243 0 LINE SMOOTH",
"1113.667 0 OFFCURVE",
"1072 99.333 OFFCURVE",
"1072 226 CURVE SMOOTH",
"1072 369 LINE SMOOTH",
"1072 566.333 OFFCURVE",
"931.667 683 OFFCURVE",
"681 683 CURVE SMOOTH",
"288 683 LINE",
"288 53 LINE",
"451 53 LINE",
"451 -1 LINE",
"71 -1 LINE",
"71 53 LINE",
"234 53 LINE",
"234 1401 LINE",
"71 1401 LINE",
"71 1455 LINE",
"648 1455 LINE SMOOTH"
);
},
{
closed = 1;
nodes = (
"638 737 LINE SMOOTH",
"935.333 737 OFFCURVE",
"1072 878.333 OFFCURVE",
"1072 1065 CURVE SMOOTH",
"1072 1282.333 OFFCURVE",
"929.333 1401 OFFCURVE",
"648 1401 CURVE SMOOTH",
"288 1401 LINE",
"288 737 LINE"
);
}
);
width = 1364;
},
{
anchors = (
{
name = bottom;
position = "{711, 0}";
},
{
name = top;
position = "{704, 1356}";
}
);
layerId = "55372407-EEEC-4390-8B77-FB5958F23D2B";
paths = (
{
closed = 1;
nodes = (
"693 0 LINE",
"693 205 LINE",
"542 237 LINE",
"542 528 LINE",
"785 525 LINE SMOOTH",
"1095 522 OFFCURVE",
"1321 749 OFFCURVE",
"1321 1005 CURVE SMOOTH",
"1321 1283 OFFCURVE",
"1102 1457 OFFCURVE",
"756 1457 CURVE SMOOTH",
"40 1457 LINE",
"40 1250 LINE",
"191 1218 LINE",
"191 237 LINE",
"40 205 LINE",
"40 0 LINE"
);
},
{
closed = 1;
nodes = (
"1386 0 LINE",
"1386 204 LINE",
"1248 239 LINE",
"1071 672 LINE",
"766 568 LINE",
"962 0 LINE"
);
},
{
closed = 1;
nodes = (
"542 1188 LINE",
"756 1188 LINE SMOOTH",
"894 1188 OFFCURVE",
"972 1106 OFFCURVE",
"972 982 CURVE SMOOTH",
"972 862 OFFCURVE",
"896 797 OFFCURVE",
"760 797 CURVE SMOOTH",
"542 797 LINE"
);
}
);
width = 1422;
}
);
unicode = 0052;
},
{
glyphname = S;
lastChange = "2018-07-27 21:54:15 +0000";
layers = (
{
anchors = (
{
name = bottom;
position = "{592, 0}";
},
{
name = top;
position = "{592, 1345}";
}
);
layerId = "0331963E-C1C8-4E93-A463-84B984C1D75E";
paths = (
{
closed = 1;
nodes = (
"872 -21 OFFCURVE",
"1083 120 OFFCURVE",
"1083 351 CURVE SMOOTH",
"1083 580 OFFCURVE",
"917 694 OFFCURVE",
"594 781 CURVE SMOOTH",
"262 870 OFFCURVE",
"186 966 OFFCURVE",
"186 1131 CURVE SMOOTH",
"186 1286 OFFCURVE",
"328 1423 OFFCURVE",
"582 1423 CURVE SMOOTH",
"738 1423 OFFCURVE",
"877 1379 OFFCURVE",
"981 1292 CURVE",
"981 1088 LINE",
"1035 1088 LINE",
"1035 1322 LINE",
"921 1417 OFFCURVE",
"770 1477 OFFCURVE",
"582 1477 CURVE SMOOTH",
"311 1477 OFFCURVE",
"132 1336 OFFCURVE",
"132 1129 CURVE SMOOTH",
"132 917 OFFCURVE",
"247 821 OFFCURVE",
"579 729 CURVE SMOOTH",
"910 637 OFFCURVE",
"1028 532 OFFCURVE",
"1028 349 CURVE SMOOTH",
"1028 162 OFFCURVE",
"845 33 OFFCURVE",
"589 33 CURVE SMOOTH",
"449 33 OFFCURVE",
"298 73 OFFCURVE",
"154 164 CURVE",
"154 390 LINE",
"100 390 LINE",
"100 133 LINE",
"259 26 OFFCURVE",
"433 -21 OFFCURVE",
"589 -21 CURVE SMOOTH"
);
}
);
width = 1183;
},
{
anchors = (
{
name = bottom;
position = "{603, 0}";
},
{
name = top;
position = "{603, 1376}";
}
);
layerId = "B06AEEA2-953E-4FA5-BFB1-0445B6E4B274";
paths = (
{
closed = 1;
nodes = (
"915 -21 OFFCURVE",
"1116 144 OFFCURVE",
"1116 379 CURVE SMOOTH",
"1116 598 OFFCURVE",
"955 747 OFFCURVE",
"649 823 CURVE SMOOTH",
"402 884 OFFCURVE",
"314 956 OFFCURVE",
"314 1082 CURVE SMOOTH",
"314 1225 OFFCURVE",
"429 1319 OFFCURVE",
"598 1319 CURVE SMOOTH",
"730 1319 OFFCURVE",
"816 1283 OFFCURVE",
"876 1235 CURVE",
"909 1027 LINE",
"1062 1027 LINE",
"1062 1318 LINE",
"961 1406 OFFCURVE",
"802 1477 OFFCURVE",
"598 1477 CURVE SMOOTH",
"310 1477 OFFCURVE",
"117 1307 OFFCURVE",
"117 1079 CURVE SMOOTH",
"117 863 OFFCURVE",
"280 721 OFFCURVE",
"581 652 CURVE SMOOTH",
"834 594 OFFCURVE",
"919 510 OFFCURVE",
"919 377 CURVE SMOOTH",
"919 233 OFFCURVE",
"805 136 OFFCURVE",
"606 136 CURVE SMOOTH",
"489 136 OFFCURVE",
"387 167 OFFCURVE",
"301 220 CURVE",
"268 449 LINE",
"115 449 LINE",
"115 138 LINE",
"264 30 OFFCURVE",
"429 -21 OFFCURVE",
"606 -21 CURVE SMOOTH"
);
}
);
width = 1206;
},
{
anchors = (
{
name = bottom;
position = "{636, 0}";
},
{
name = top;
position = "{636, 1356}";
}
);
layerId = "55372407-EEEC-4390-8B77-FB5958F23D2B";
paths = (
{
closed = 1;
nodes = (
"1009 -21 OFFCURVE",
"1233 126 OFFCURVE",
"1233 384 CURVE SMOOTH",
"1233 635 OFFCURVE",
"1059 766 OFFCURVE",
"728 864 CURVE SMOOTH",
"519 943 OFFCURVE",
"462 987 OFFCURVE",
"462 1065 CURVE SMOOTH",
"462 1161 OFFCURVE",
"551 1209 OFFCURVE",
"673 1209 CURVE SMOOTH",
"767 1209 OFFCURVE",
"858 1186 OFFCURVE",
"904 1164 CURVE",
"945 969 LINE",
"1205 969 LINE",
"1205 1320 LINE",
"1065 1427 OFFCURVE",
"885 1480 OFFCURVE",
"648 1475 CURVE SMOOTH",
"336 1469 OFFCURVE",
"112 1307 OFFCURVE",
"112 1066 CURVE SMOOTH",
"112 813 OFFCURVE",
"283 705 OFFCURVE",
"656 586 CURVE SMOOTH",
"821 522 OFFCURVE",
"880 468 OFFCURVE",
"880 382 CURVE SMOOTH",
"880 291 OFFCURVE",
"811 240 OFFCURVE",
"677 240 CURVE SMOOTH",
"549 240 OFFCURVE",
"429 277 OFFCURVE",
"387 325 CURVE",
"357 519 LINE",
"86 519 LINE",
"86 141 LINE",
"269 15 OFFCURVE",
"440 -21 OFFCURVE",
"677 -21 CURVE SMOOTH"
);
}
);
width = 1272;
}
);
leftKerningGroup = S;
unicode = 0053;
userData = {
com.typemytype.robofont.layerData = {
mask = {
anchors = (
);
components = (
);
contours = (
{
points = (
{
segmentType = line;
smooth = 0;
x = 1062;
y = 1022;
},
{
segmentType = line;
smooth = 0;
x = 1008;
y = 1022;
},
{
segmentType = line;
smooth = 0;
x = 1008;
y = 1226;
},
{
smooth = 0;
x = 922.66667;
y = 1355.33333;
},
{
smooth = 0;
x = 778;
y = 1423;
},
{
segmentType = curve;
smooth = 1;
x = 582;
y = 1423;
},
{
smooth = 0;
x = 318;
y = 1423;
},
{
smooth = 0;
x = 153;
y = 1287.33333;
},
{
segmentType = curve;
smooth = 1;
x = 153;
y = 1122;
},
{
smooth = 0;
x = 153;
y = 956.66667;
},
{
smooth = 0;
x = 260.66667;
y = 855.33333;
},
{
segmentType = curve;
smooth = 1;
x = 594;
y = 770;
},
{
smooth = 0;
x = 916.66667;
y = 684.66667;
},
{
smooth = 0;
x = 1083;
y = 577.66667;
},
{
segmentType = curve;
smooth = 1;
x = 1083;
y = 351;
},
{
smooth = 0;
x = 1083;
y = 120.33333;
},
{
smooth = 0;
x = 871.66667;
y = -21;
},
{
segmentType = curve;
smooth = 1;
x = 589;
y = -21;
},
{
smooth = 0;
x = 394.33333;
y = -21;
},
{
smooth = 0;
x = 203.66667;
y = 49.33333;
},
{
segmentType = curve;
smooth = 0;
x = 85;
y = 204;
},
{
segmentType = line;
smooth = 0;
x = 85;
y = 444;
},
{
segmentType = line;
smooth = 0;
x = 139;
y = 444;
},
{
segmentType = line;
smooth = 0;
x = 139;
y = 227;
},
{
smooth = 0;
x = 243;
y = 91;
},
{
smooth = 0;
x = 415.66667;
y = 33;
},
{
segmentType = curve;
smooth = 1;
x = 589;
y = 33;
},
{
smooth = 0;
x = 845;
y = 33;
},
{
smooth = 0;
x = 1028;
y = 162.33333;
},
{
segmentType = curve;
smooth = 1;
x = 1028;
y = 349;
},
{
smooth = 0;
x = 1028;
y = 531.66667;
},
{
smooth = 0;
x = 909.66667;
y = 627.33333;
},
{
segmentType = curve;
smooth = 1;
x = 579;
y = 718;
},
{
smooth = 0;
x = 247;
y = 807.33333;
},
{
smooth = 0;
x = 99;
y = 901.33333;
},
{
segmentType = curve;
smooth = 1;
x = 99;
y = 1120;
},
{
smooth = 0;
x = 99;
y = 1337.33333;
},
{
smooth = 0;
x = 300.66667;
y = 1477;
},
{
segmentType = curve;
smooth = 1;
x = 582;
y = 1477;
},
{
smooth = 0;
x = 800.66667;
y = 1477;
},
{
smooth = 0;
x = 967.33333;
y = 1401.66667;
},
{
segmentType = curve;
smooth = 0;
x = 1062;
y = 1251;
}
);
}
);
lib = {
};
name = S;
unicodes = (
);
width = 1183;
};
};
com.typemytype.robofont.mark = (
1,
0.1703,
0.1669,
0.8287
);
};
},
{
glyphname = Germandbls;
lastChange = "2018-07-30 19:58:09 +0000";
layers = (
{
anchors = (
{
name = bottom;
position = "{671, 0}";
},
{
name = top;
position = "{675, 1345}";
}
);
layerId = "0331963E-C1C8-4E93-A463-84B984C1D75E";
rightMetricsKey = "=B-20";
paths = (
{
closed = 1;
nodes = (
"451 0 LINE",
"451 54 LINE",
"288 54 LINE",
"288 1402 LINE",
"1228 1402 LINE",
"1228 1456 LINE",
"71 1456 LINE",
"71 1402 LINE",
"234 1402 LINE",
"234 54 LINE",
"71 54 LINE",
"71 0 LINE"
);
},
{
closed = 1;
nodes = (
"1112 -21 OFFCURVE",
"1290 134 OFFCURVE",
"1290 385 CURVE SMOOTH",
"1290 670 OFFCURVE",
"1136 830 OFFCURVE",
"797 830 CURVE",
"797 790 LINE",
"1228 1402 LINE",
"1179 1431 LINE",
"759 834 LINE",
"759 778 LINE",
"806 778 LINE SMOOTH",
"1075 778 OFFCURVE",
"1236 652 OFFCURVE",
"1236 381 CURVE SMOOTH",
"1236 164 OFFCURVE",
"1096 33 OFFCURVE",
"856 33 CURVE SMOOTH",
"805 33 OFFCURVE",
"757 40 OFFCURVE",
"714 54 CURVE",
"697 2 LINE",
"747 -13 OFFCURVE",
"801 -21 OFFCURVE",
"856 -21 CURVE SMOOTH"
);
}
);
width = 1358;
},
{
anchors = (
{
name = bottom;
position = "{715, 0}";
},
{
name = top;
position = "{715, 1376}";
}
);
layerId = "B06AEEA2-953E-4FA5-BFB1-0445B6E4B274";
rightMetricsKey = "=B-28";
paths = (
{
closed = 1;
nodes = (
"604 0 LINE",
"604 126 LINE",
"441 154 LINE",
"441 1304 LINE",
"1293 1304 LINE",
"1293 1456 LINE",
"81 1456 LINE",
"81 1329 LINE",
"244 1301 LINE",
"244 154 LINE",
"81 126 LINE",
"81 0 LINE"
);
},
{
closed = 1;
nodes = (
"1217 -21 OFFCURVE",
"1381 150 OFFCURVE",
"1381 432 CURVE SMOOTH",
"1381 754 OFFCURVE",
"1150 920 OFFCURVE",
"901 913 CURVE",
"952 877 LINE",
"1293 1304 LINE",
"1121 1375 LINE",
"763 907 LINE",
"763 753 LINE",
"913 753 LINE SMOOTH",
"1078 753 OFFCURVE",
"1184 633 OFFCURVE",
"1184 432 CURVE SMOOTH",
"1184 245 OFFCURVE",
"1091 133 OFFCURVE",
"945 133 CURVE SMOOTH",
"886 133 OFFCURVE",
"836 146 OFFCURVE",
"798 163 CURVE",
"752 8 LINE",
"794 -6 OFFCURVE",
"870 -21 OFFCURVE",
"948 -21 CURVE SMOOTH"
);
}
);
width = 1422;
},
{
anchors = (
{
name = bottom;
position = "{769, 0}";
},
{
name = top;
position = "{764, 1356}";
}
);
layerId = "55372407-EEEC-4390-8B77-FB5958F23D2B";
rightMetricsKey = "=B-20";
paths = (
{
closed = 1;
nodes = (
"692 0 LINE",
"692 205 LINE",
"541 237 LINE",
"541 1188 LINE",
"1426 1188 LINE",
"1426 1456 LINE",
"40 1456 LINE",
"40 1250 LINE",
"190 1218 LINE",
"190 237 LINE",
"40 205 LINE",
"40 0 LINE"
);
},
{
closed = 1;
nodes = (
"1279 -21 OFFCURVE",
"1501 146 OFFCURVE",
"1501 428 CURVE SMOOTH",
"1501 674 OFFCURVE",
"1344 886 OFFCURVE",
"1028 886 CURVE",
"1114 845 LINE",
"1426 1188 LINE",
"1157 1306 LINE",
"774 874 LINE",
"774 676 LINE",
"927 676 LINE SMOOTH",
"1075 676 OFFCURVE",
"1151 600 OFFCURVE",
"1151 457 CURVE SMOOTH",
"1151 315 OFFCURVE",
"1071 247 OFFCURVE",
"953 247 CURVE SMOOTH",
"918 247 OFFCURVE",
"887 253 OFFCURVE",
"861 265 CURVE",
"781 -2 LINE",
"835 -15 OFFCURVE",
"894 -21 OFFCURVE",
"955 -21 CURVE SMOOTH"
);
}
);
width = 1508;
}
);
leftMetricsKey = H;
rightMetricsKey = B;
unicode = 1E9E;
},
{
glyphname = Schwa;
lastChange = "2018-07-30 17:57:18 +0000";
layers = (
{
anchors = (
{
name = bottom;
position = "{680, 0}";
},
{
name = top;
position = "{659, 1345}";
}
);
layerId = "0331963E-C1C8-4E93-A463-84B984C1D75E";
paths = (
{
closed = 1;
nodes = (
"1007 -21 OFFCURVE",
"1249 262 OFFCURVE",
"1249 663 CURVE SMOOTH",
"1249 835 LINE SMOOTH",
"1249 1220 OFFCURVE",
"1029 1477 OFFCURVE",
"650 1477 CURVE SMOOTH",
"415 1477 OFFCURVE",
"282 1412 OFFCURVE",
"165 1312 CURVE",
"195 1269 LINE",
"308 1365 OFFCURVE",
"462 1423 OFFCURVE",
"650 1423 CURVE SMOOTH",
"1013 1423 OFFCURVE",
"1195 1182 OFFCURVE",
"1195 835 CURVE SMOOTH",
"1195 711 LINE",
"78 711 LINE",
"78 588 LINE SMOOTH",
"78 215 OFFCURVE",
"312 -21 OFFCURVE",
"676 -21 CURVE SMOOTH"
);
},
{
closed = 1;
nodes = (
"337 33 OFFCURVE",
"132 265 OFFCURVE",
"132 584 CURVE SMOOTH",
"132 656 LINE",
"1188 656 LINE",
"1190 651 LINE",
"1191 299 OFFCURVE",
"989 33 OFFCURVE",
"676 33 CURVE SMOOTH"
);
}
);
width = 1388;
},
{
anchors = (
{
name = bottom;
position = "{687, 0}";
},
{
name = top;
position = "{673, 1376}";
}
);
layerId = "B06AEEA2-953E-4FA5-BFB1-0445B6E4B274";
paths = (
{
closed = 1;
nodes = (
"1024 -21 OFFCURVE",
"1281 258 OFFCURVE",
"1281 645 CURVE SMOOTH",
"1281 808 LINE SMOOTH",
"1281 1208 OFFCURVE",
"1035 1477 OFFCURVE",
"622 1477 CURVE SMOOTH",
"422 1477 OFFCURVE",
"287 1424 OFFCURVE",
"218 1377 CURVE",
"267 1238 LINE",
"372 1287 OFFCURVE",
"470 1322 OFFCURVE",
"622 1322 CURVE SMOOTH",
"931 1322 OFFCURVE",
"1084 1111 OFFCURVE",
"1084 808 CURVE SMOOTH",
"1084 754 LINE",
"78 754 LINE",
"78 644 LINE SMOOTH",
"78 228 OFFCURVE",
"294 -21 OFFCURVE",
"699 -21 CURVE SMOOTH"
);
},
{
closed = 1;
nodes = (
"398 133 OFFCURVE",
"275 309 OFFCURVE",
"275 586 CURVE SMOOTH",
"275 619 LINE",
"1083 619 LINE",
"1083 616 LINE",
"1073 336 OFFCURVE",
"928 133 OFFCURVE",
"699 133 CURVE SMOOTH"
);
}
);
width = 1402;
},
{
anchors = (
{
name = bottom;
position = "{700, 0}";
},
{
name = top;
position = "{692, 1356}";
}
);
layerId = "55372407-EEEC-4390-8B77-FB5958F23D2B";
paths = (
{
closed = 1;
nodes = (
"1063 -23 OFFCURVE",
"1338 254 OFFCURVE",
"1338 645 CURVE SMOOTH",
"1338 806 LINE SMOOTH",
"1338 1213 OFFCURVE",
"1083 1477 OFFCURVE",
"609 1477 CURVE SMOOTH",
"398 1477 OFFCURVE",
"234 1436 OFFCURVE",
"158 1405 CURVE",
"207 1126 LINE",
"308 1154 OFFCURVE",
"446 1181 OFFCURVE",
"609 1181 CURVE SMOOTH",
"877 1181 OFFCURVE",
"987 1035 OFFCURVE",
"980 850 CURVE",
"975 845 LINE",
"63 845 LINE",
"63 670 LINE SMOOTH",
"63 241 OFFCURVE",
"292 -21 OFFCURVE",
"699 -21 CURVE SMOOTH"
);
},
{
closed = 1;
nodes = (
"503 274 OFFCURVE",
"414 381 OFFCURVE",
"414 542 CURVE SMOOTH",
"414 572 LINE",
"973 572 LINE",
"976 566 LINE",
"963 392 OFFCURVE",
"866 274 OFFCURVE",
"699 274 CURVE SMOOTH"
);
}
);
width = 1399;
}
);
unicode = 018F;
},
{
glyphname = T;
lastChange = "2018-07-28 17:35:32 +0000";
layers = (
{
anchors = (
{
name = bottom;
position = "{639, 0}";
},
{
name = center;
position = "{639, 735}";
},
{
name = top;
position = "{639, 1345}";
}
);
layerId = "0331963E-C1C8-4E93-A463-84B984C1D75E";
paths = (
{
closed = 1;
nodes = (
"827 0 LINE",
"827 54 LINE",
"664 54 LINE",
"664 1402 LINE",
"1140 1402 LINE",
"1140 1163 LINE",
"1194 1163 LINE",
"1194 1456 LINE",
"80 1456 LINE",
"80 1163 LINE",
"134 1163 LINE",
"134 1402 LINE",
"610 1402 LINE",
"610 54 LINE",
"447 54 LINE",
"447 0 LINE"
);
}
);
width = 1277;
},
{
anchors = (
{
name = bottom;
position = "{703, 0}";
},
{
name = center;
position = "{703, 729}";
},
{
name = top;
position = "{703, 1376}";
}
);
layerId = "B06AEEA2-953E-4FA5-BFB1-0445B6E4B274";
paths = (
{
closed = 1;
nodes = (
"963 0 LINE",
"963 126 LINE",
"800 154 LINE",
"800 1307 LINE",
"1130 1307 LINE",
"1160 1105 LINE",
"1306 1105 LINE",
"1306 1456 LINE",
"96 1456 LINE",
"96 1105 LINE",
"244 1105 LINE",
"273 1307 LINE",
"603 1307 LINE",
"603 154 LINE",
"440 126 LINE",
"440 0 LINE"
);
}
);
width = 1406;
},
{
anchors = (
{
name = bottom;
position = "{690, 0}";
},
{
name = center;
position = "{690, 731}";
},
{
name = top;
position = "{690, 1356}";
}
);
layerId = "55372407-EEEC-4390-8B77-FB5958F23D2B";
paths = (
{
closed = 1;
nodes = (
"1016 0 LINE",
"1016 205 LINE",
"864 237 LINE",
"864 1184 LINE",
"1091 1184 LINE",
"1099 1027 LINE",
"1367 1027 LINE",
"1367 1456 LINE",
"14 1456 LINE",
"14 1027 LINE",
"279 1027 LINE",
"288 1184 LINE",
"513 1184 LINE",
"513 237 LINE",
"361 205 LINE",
"361 0 LINE"
);
}
);
width = 1379;
}
);
leftKerningGroup = T;
rightKerningGroup = T;
unicode = 0054;
},
{
glyphname = Tbar;
lastChange = "2018-07-30 18:18:24 +0000";
layers = (
{
components = (
{
name = T;
},
{
name = strokeshortcomb;
transform = "{1, 0, 0, 1, 338, -13}";
}
);
layerId = "0331963E-C1C8-4E93-A463-84B984C1D75E";
width = 1277;
},
{
components = (
{
name = T;
},
{
name = strokeshortcomb;
transform = "{1, 0, 0, 1, 361, -12}";
}
);
layerId = "B06AEEA2-953E-4FA5-BFB1-0445B6E4B274";
width = 1406;
},
{
components = (
{
name = T;
},
{
name = strokeshortcomb;
transform = "{1, 0, 0, 1, 303, -16}";
}
);
layerId = "55372407-EEEC-4390-8B77-FB5958F23D2B";
width = 1379;
},
{
associatedMasterId = "B06AEEA2-953E-4FA5-BFB1-0445B6E4B274";
layerId = "B3AF7522-6A65-4126-92FB-D7B6638C210E";
name = "Jul 26 18, 15:39";
paths = (
{
closed = 1;
nodes = (
"1247 1134 LINE",
"1079 1134 LINE",
"1064 1301 LINE",
"741 1301 LINE",
"741 899 LINE",
"971 899 LINE",
"971 744 LINE",
"741 744 LINE",
"741 154 LINE",
"904 126 LINE",
"904 0 LINE",
"381 0 LINE",
"381 126 LINE",
"544 154 LINE",
"544 744 LINE",
"330 744 LINE",
"330 899 LINE",
"544 899 LINE",
"544 1301 LINE",
"220 1301 LINE",
"206 1134 LINE",
"37 1134 LINE",
"37 1456 LINE",
"1247 1456 LINE"
);
}
);
width = 1284;
},
{
associatedMasterId = "55372407-EEEC-4390-8B77-FB5958F23D2B";
layerId = "5DE8F081-98AF-4D09-92AB-38A280E8BD4B";
name = "Jul 28 18, 13:14";
paths = (
{
closed = 1;
nodes = (
"1395 1027 LINE",
"1136 1027 LINE",
"1126 1188 LINE",
"892 1188 LINE",
"892 833 LINE",
"1084 833 LINE",
"1084 678 LINE",
"892 678 LINE",
"892 237 LINE",
"1043 205 LINE",
"1043 0 LINE",
"389 0 LINE",
"389 205 LINE",
"541 237 LINE",
"541 678 LINE",
"346 678 LINE",
"346 833 LINE",
"541 833 LINE",
"541 1188 LINE",
"309 1188 LINE",
"298 1027 LINE",
"42 1027 LINE",
"42 1456 LINE",
"1395 1456 LINE"
);
}
);
width = 1435;
}
);
rightKerningGroup = T;
unicode = 0166;
},
{
glyphname = U;
lastChange = "2018-07-28 18:04:10 +0000";
layers = (
{
anchors = (
{
name = bottom;
position = "{721, 0}";
},
{
name = ogonek;
position = "{819, 0}";
},
{
name = top;
position = "{721, 1345}";
},
{
name = topright;
position = "{1421, 1456}";
}
);
layerId = "0331963E-C1C8-4E93-A463-84B984C1D75E";
paths = (
{
closed = 1;
nodes = (
"1015.667 -21 OFFCURVE",
"1218 151.667 OFFCURVE",
"1218 469 CURVE SMOOTH",
"1218 1402 LINE",
"1381 1402 LINE",
"1381 1456 LINE",
"1001 1456 LINE",
"1001 1402 LINE",
"1164 1402 LINE",
"1164 469 LINE SMOOTH",
"1164 195.667 OFFCURVE",
"981 33 OFFCURVE",
"721 33 CURVE SMOOTH",
"459.667 33 OFFCURVE",
"277 195.667 OFFCURVE",
"277 469 CURVE SMOOTH",
"277 1402 LINE",
"440 1402 LINE",
"440 1456 LINE",
"60 1456 LINE",
"60 1402 LINE",
"223 1402 LINE",
"223 469 LINE SMOOTH",
"223 153 OFFCURVE",
"423.667 -21 OFFCURVE",
"721 -21 CURVE SMOOTH"
);
}
);
width = 1441;
},
{
anchors = (
{
name = bottom;
position = "{761, 0}";
},
{
name = ogonek;
position = "{904, 0}";
},
{
name = top;
position = "{761, 1376}";
},
{
name = topright;
position = "{1502, 1376}";
}
);
layerId = "B06AEEA2-953E-4FA5-BFB1-0445B6E4B274";
paths = (
{
closed = 1;
nodes = (
"1076 -21 OFFCURVE",
"1289 153 OFFCURVE",
"1289 469 CURVE SMOOTH",
"1289 1301 LINE",
"1452 1329 LINE",
"1452 1456 LINE",
"929 1456 LINE",
"929 1329 LINE",
"1092 1301 LINE",
"1092 469 LINE SMOOTH",
"1092 248 OFFCURVE",
"954 137 OFFCURVE",
"758 137 CURVE SMOOTH",
"563 137 OFFCURVE",
"430 251 OFFCURVE",
"430 469 CURVE SMOOTH",
"430 1301 LINE",
"593 1329 LINE",
"593 1456 LINE",
"70 1456 LINE",
"70 1329 LINE",
"233 1301 LINE",
"233 469 LINE SMOOTH",
"233 163 OFFCURVE",
"454 -21 OFFCURVE",
"755 -21 CURVE SMOOTH"
);
}
);
width = 1522;
},
{
anchors = (
{
name = bottom;
position = "{788, 0}";
},
{
name = ogonek;
position = "{971, 0}";
},
{
name = top;
position = "{788, 1356}";
},
{
name = topright;
position = "{1555, 1456}";
}
);
layerId = "55372407-EEEC-4390-8B77-FB5958F23D2B";
paths = (
{
closed = 1;
nodes = (
"1156 -21 OFFCURVE",
"1406 170 OFFCURVE",
"1406 503 CURVE SMOOTH",
"1406 1218 LINE",
"1557 1250 LINE",
"1557 1456 LINE",
"905 1456 LINE",
"905 1250 LINE",
"1055 1218 LINE",
"1055 503 LINE SMOOTH",
"1055 327 OFFCURVE",
"962 244 OFFCURVE",
"787 244 CURVE SMOOTH",
"616 244 OFFCURVE",
"521 327 OFFCURVE",
"521 503 CURVE SMOOTH",
"521 1218 LINE",
"672 1250 LINE",
"672 1456 LINE",
"20 1456 LINE",
"20 1250 LINE",
"170 1218 LINE",
"170 503 LINE SMOOTH",
"170 164 OFFCURVE",
"412 -21 OFFCURVE",
"789 -21 CURVE SMOOTH"
);
}
);
width = 1575;
}
);
leftKerningGroup = U;
rightKerningGroup = J;
unicode = 0055;
},
{
glyphname = Uhorn;
lastChange = "2018-07-30 18:19:01 +0000";
layers = (
{
anchors = (
{
name = bottom;
position = "{716, 0}";
},
{
name = top;
position = "{716, 1345}";
}
);
layerId = "0331963E-C1C8-4E93-A463-84B984C1D75E";
paths = (
{
closed = 1;
nodes = (
"1015.667 -21 OFFCURVE",
"1218 151.667 OFFCURVE",
"1218 469 CURVE",
"1218 1456 LINE",
"1001 1456 LINE",
"1001 1402 LINE",
"1164 1402 LINE",
"1164 469 LINE SMOOTH",
"1164 195.667 OFFCURVE",
"981 33 OFFCURVE",
"721 33 CURVE SMOOTH",
"459.667 33 OFFCURVE",
"277 195.667 OFFCURVE",
"277 469 CURVE SMOOTH",
"277 1402 LINE",
"440 1402 LINE",
"440 1456 LINE",
"60 1456 LINE",
"60 1402 LINE",
"223 1402 LINE",
"223 469 LINE SMOOTH",
"223 153 OFFCURVE",
"423.667 -21 OFFCURVE",
"721 -21 CURVE SMOOTH"
);
},
{
closed = 1;
nodes = (
"1417 1196 OFFCURVE",
"1504 1312 OFFCURVE",
"1500 1546 CURVE",
"1500 1551 LINE",
"1450 1551 LINE",
"1450 1344 OFFCURVE",
"1391 1250 OFFCURVE",
"1205 1256 CURVE",
"1199 1193 LINE"
);
}
);
width = 1540;
},
{
anchors = (
{
name = bottom;
position = "{777, 0}";
},
{
name = top;
position = "{788, 1376}";
}
);
layerId = "B06AEEA2-953E-4FA5-BFB1-0445B6E4B274";
paths = (
{
closed = 1;
nodes = (
"1104 -21 OFFCURVE",
"1330 153 OFFCURVE",
"1330 469 CURVE SMOOTH",
"1330 1456 LINE",
"970 1456 LINE",
"970 1329 LINE",
"1133 1301 LINE",
"1133 469 LINE SMOOTH",
"1133 249 OFFCURVE",
"989 133 OFFCURVE",
"773 133 CURVE SMOOTH",
"568 133 OFFCURVE",
"431 249 OFFCURVE",
"431 469 CURVE SMOOTH",
"431 1301 LINE",
"594 1329 LINE",
"594 1456 LINE",
"70 1456 LINE",
"70 1329 LINE",
"233 1301 LINE",
"233 469 LINE SMOOTH",
"233 153 OFFCURVE",
"452 -21 OFFCURVE",
"773 -21 CURVE SMOOTH"
);
},
{
closed = 1;
nodes = (
"1576 1105 OFFCURVE",
"1708 1258 OFFCURVE",
"1703 1544 CURVE",
"1703 1549 LINE",
"1530 1549 LINE",
"1530 1345 OFFCURVE",
"1465 1244 OFFCURVE",
"1281 1250 CURVE",
"1280 1103 LINE"
);
}
);
width = 1724;
},
{
anchors = (
{
name = bottom;
position = "{779, 0}";
},
{
name = top;
position = "{770, 1356}";
}
);
layerId = "55372407-EEEC-4390-8B77-FB5958F23D2B";
paths = (
{
closed = 1;
nodes = (
"1139 -21 OFFCURVE",
"1383 170 OFFCURVE",
"1383 503 CURVE",
"1383 1456 LINE",
"880 1456 LINE",
"880 1250 LINE",
"1030 1218 LINE",
"1030 503 LINE SMOOTH",
"1030 326 OFFCURVE",
"941 246 OFFCURVE",
"779 246 CURVE SMOOTH",
"614 246 OFFCURVE",
"522 328 OFFCURVE",
"522 503 CURVE SMOOTH",
"522 1218 LINE",
"672 1250 LINE",
"672 1456 LINE",
"20 1456 LINE",
"20 1250 LINE",
"170 1218 LINE",
"170 503 LINE SMOOTH",
"170 170 OFFCURVE",
"414 -21 OFFCURVE",
"779 -21 CURVE SMOOTH"
);
},
{
closed = 1;
nodes = (
"1686 976 OFFCURVE",
"1791 1134 OFFCURVE",
"1787 1452 CURVE",
"1787 1457 LINE",
"1515 1457 LINE",
"1515 1251 OFFCURVE",
"1499 1175 OFFCURVE",
"1370 1178 CURVE",
"1363 970 LINE"
);
}
);
width = 1805;
}
);
leftMetricsKey = U;
unicode = 01AF;
},
{
glyphname = Uogonek;
lastChange = "2018-07-30 20:08:01 +0000";
layers = (
{
components = (
{
name = U;
},
{
name = ogonekcomb;
transform = "{1, 0, 0, 1, 551, 0}";
}
);
layerId = "0331963E-C1C8-4E93-A463-84B984C1D75E";
width = 1441;
},
{
components = (
{
name = U;
},
{
name = ogonekcomb;
transform = "{1, 0, 0, 1, 545, 0}";
}
);
layerId = "B06AEEA2-953E-4FA5-BFB1-0445B6E4B274";
width = 1522;
},
{
components = (
{
name = U;
},
{
name = ogonekcomb;
transform = "{1, 0, 0, 1, 548, 0}";
}
);
layerId = "55372407-EEEC-4390-8B77-FB5958F23D2B";
width = 1575;
},
{
anchors = (
{
name = _ogonek;
position = "{819, 0}";
},
{
name = bottom;
position = "{761, 0}";
},
{
name = ogonek;
position = "{819, 0}";
},
{
name = top;
position = "{761, 1376}";
},
{
name = topright;
position = "{1502, 1376}";
}
);
associatedMasterId = "B06AEEA2-953E-4FA5-BFB1-0445B6E4B274";
layerId = "21C4D838-6893-4A99-9B9D-B63EDED6FEC3";
name = "Jul 27 18, 11:23";
paths = (
{
closed = 1;
nodes = (
"593 1329 LINE",
"430 1301 LINE",
"430 469 LINE SMOOTH",
"430 251 OFFCURVE",
"563 137 OFFCURVE",
"758 137 CURVE SMOOTH",
"954 137 OFFCURVE",
"1092 248 OFFCURVE",
"1092 469 CURVE SMOOTH",
"1092 1301 LINE",
"929 1329 LINE",
"929 1456 LINE",
"1452 1456 LINE",
"1452 1329 LINE",
"1289 1301 LINE",
"1289 469 LINE SMOOTH",
"1289 153 OFFCURVE",
"1076 -21 OFFCURVE",
"755 -21 CURVE SMOOTH",
"454 -21 OFFCURVE",
"233 163 OFFCURVE",
"233 469 CURVE SMOOTH",
"233 1301 LINE",
"70 1329 LINE",
"70 1456 LINE",
"593 1456 LINE"
);
},
{
closed = 1;
nodes = (
"726 -69 OFFCURVE",
"670 -129 OFFCURVE",
"670 -201 CURVE SMOOTH",
"670 -257 OFFCURVE",
"698 -291 OFFCURVE",
"766 -291 CURVE SMOOTH",
"802 -291 OFFCURVE",
"830 -280 OFFCURVE",
"865 -265 CURVE",
"898 -388 LINE",
"850 -413 OFFCURVE",
"795 -432 OFFCURVE",
"715 -432 CURVE SMOOTH",
"590 -432 OFFCURVE",
"500 -355 OFFCURVE",
"500 -223 CURVE SMOOTH",
"500 -116 OFFCURVE",
"579 -18 OFFCURVE",
"748 57 CURVE",
"819 0 LINE"
);
}
);
width = 1522;
}
);
leftKerningGroup = U;
rightKerningGroup = J;
unicode = 0172;
},
{
glyphname = V;
lastChange = "2018-07-27 22:00:07 +0000";
layers = (
{
anchors = (
{
name = bottom;
position = "{717, 0}";
},
{
name = top;
position = "{717, 1345}";
}
);
layerId = "0331963E-C1C8-4E93-A463-84B984C1D75E";
paths = (
{
closed = 1;
nodes = (
"752 0 LINE",
"1276 1402 LINE",
"1383 1402 LINE",
"1383 1456 LINE",
"1064 1456 LINE",
"1064 1402 LINE",
"1217 1402 LINE",
"748 142 LINE",
"722 63 LINE",
"716 63 LINE",
"690 142 LINE",
"221 1402 LINE",
"374 1402 LINE",
"374 1456 LINE",
"55 1456 LINE",
"55 1402 LINE",
"162 1402 LINE",
"686 0 LINE"
);
}
);
width = 1434;
},
{
anchors = (
{
name = bottom;
position = "{754, 0}";
},
{
name = top;
position = "{754, 1376}";
}
);
layerId = "B06AEEA2-953E-4FA5-BFB1-0445B6E4B274";
paths = (
{
closed = 1;
nodes = (
"838 0 LINE",
"1326 1313 LINE",
"1443 1329 LINE",
"1443 1456 LINE",
"984 1456 LINE",
"984 1329 LINE",
"1132 1309 LINE",
"794 382 LINE",
"758 267 LINE",
"752 267 LINE",
"718 382 LINE",
"392 1308 LINE",
"525 1329 LINE",
"525 1456 LINE",
"65 1456 LINE",
"65 1329 LINE",
"181 1313 LINE",
"669 0 LINE"
);
}
);
width = 1508;
},
{
anchors = (
{
name = bottom;
position = "{801, 0}";
},
{
name = top;
position = "{801, 1356}";
}
);
layerId = "55372407-EEEC-4390-8B77-FB5958F23D2B";
paths = (
{
closed = 1;
nodes = (
"989 0 LINE",
"1397 1234 LINE",
"1539 1250 LINE",
"1539 1456 LINE",
"929 1456 LINE",
"929 1250 LINE",
"1085 1230 LINE",
"832 409 LINE",
"819 355 LINE",
"813 355 LINE",
"799 412 LINE",
"538 1230 LINE",
"668 1250 LINE",
"668 1456 LINE",
"15 1456 LINE",
"15 1250 LINE",
"153 1234 LINE",
"609 0 LINE"
);
}
);
width = 1552;
}
);
leftKerningGroup = V;
rightKerningGroup = V;
unicode = 0056;
userData = {
com.typemytype.robofont.layerData = {
mask = {
anchors = (
);
components = (
);
contours = (
{
points = (
{
segmentType = line;
smooth = 0;
x = 364;
y = 1402;
},
{
segmentType = line;
smooth = 0;
x = 221;
y = 1402;
},
{
segmentType = line;
smooth = 0;
x = 690;
y = 142;
},
{
segmentType = line;
smooth = 0;
x = 716;
y = 63;
},
{
segmentType = line;
smooth = 0;
x = 722;
y = 63;
},
{
segmentType = line;
smooth = 0;
x = 748;
y = 142;
},
{
segmentType = line;
smooth = 0;
x = 1217;
y = 1402;
},
{
segmentType = line;
smooth = 0;
x = 1074;
y = 1402;
},
{
segmentType = line;
smooth = 0;
x = 1074;
y = 1456;
},
{
segmentType = line;
smooth = 0;
x = 1383;
y = 1456;
},
{
segmentType = line;
smooth = 0;
x = 1383;
y = 1402;
},
{
segmentType = line;
smooth = 0;
x = 1276;
y = 1402;
},
{
segmentType = line;
smooth = 0;
x = 752;
y = 0;
},
{
segmentType = line;
smooth = 0;
x = 686;
y = 0;
},
{
segmentType = line;
smooth = 0;
x = 162;
y = 1402;
},
{
segmentType = line;
smooth = 0;
x = 55;
y = 1402;
},
{
segmentType = line;
smooth = 0;
x = 55;
y = 1456;
},
{
segmentType = line;
smooth = 0;
x = 364;
y = 1456;
}
);
}
);
lib = {
};
name = V;
unicodes = (
);
width = 1434;
};
};
com.typemytype.robofont.mark = (
1,
0.1703,
0.1669,
0.8287
);
};
},
{
glyphname = W;
lastChange = "2018-07-27 21:54:15 +0000";
layers = (
{
anchors = (
{
name = bottom;
position = "{1013, 0}";
},
{
name = top;
position = "{1013, 1345}";
}
);
layerId = "0331963E-C1C8-4E93-A463-84B984C1D75E";
paths = (
{
closed = 1;
nodes = (
"578 0 LINE",
"962 1214 LINE",
"1008 1359 LINE",
"1014 1359 LINE",
"1062 1214 LINE",
"1443 0 LINE",
"1504 0 LINE",
"1862 1402 LINE",
"1963 1402 LINE",
"1963 1456 LINE",
"1644 1456 LINE",
"1644 1402 LINE",
"1803 1402 LINE",
"1537 330 LINE",
"1472 101 LINE",
"1466 101 LINE",
"1404 330 LINE",
"1042 1456 LINE",
"982 1456 LINE",
"618 330 LINE",
"555 101 LINE",
"549 101 LINE",
"486 330 LINE",
"217 1402 LINE",
"377 1402 LINE",
"377 1456 LINE",
"57 1456 LINE",
"57 1402 LINE",
"158 1402 LINE",
"517 0 LINE"
);
}
);
width = 2000;
},
{
anchors = (
{
name = bottom;
position = "{1065, 0}";
},
{
name = top;
position = "{1065, 1376}";
}
);
layerId = "B06AEEA2-953E-4FA5-BFB1-0445B6E4B274";
paths = (
{
closed = 1;
nodes = (
"711 0 LINE",
"1028 1008 LINE",
"1067 1155 LINE",
"1073 1155 LINE",
"1113 1008 LINE",
"1429 0 LINE",
"1616 0 LINE",
"1942 1314 LINE",
"2057 1329 LINE",
"2057 1456 LINE",
"1593 1456 LINE",
"1593 1329 LINE",
"1756 1306 LINE",
"1568 504 LINE",
"1516 306 LINE",
"1510 306 LINE",
"1453 504 LINE",
"1157 1456 LINE",
"984 1456 LINE",
"691 504 LINE",
"633 317 LINE",
"627 318 LINE",
"583 505 LINE",
"393 1306 LINE",
"544 1329 LINE",
"544 1456 LINE",
"72 1456 LINE",
"72 1329 LINE",
"195 1314 LINE",
"535 0 LINE"
);
}
);
width = 2129;
},
{
anchors = (
{
name = bottom;
position = "{1124, 0}";
},
{
name = top;
position = "{1124, 1356}";
}
);
layerId = "55372407-EEEC-4390-8B77-FB5958F23D2B";
paths = (
{
closed = 1;
nodes = (
"835 0 LINE",
"1090 747 LINE",
"1129 857 LINE",
"1135 857 LINE",
"1166 753 LINE",
"1417 0 LINE",
"1730 0 LINE",
"2081 1235 LINE",
"2236 1250 LINE",
"2236 1456 LINE",
"1592 1456 LINE",
"1592 1250 LINE",
"1759 1227 LINE",
"1589 536 LINE",
"1572 473 LINE",
"1566 473 LINE",
"1545 536 LINE",
"1245 1456 LINE",
"1003 1456 LINE",
"718 577 LINE",
"694 482 LINE",
"688 482 LINE",
"665 576 LINE",
"506 1227 LINE",
"668 1250 LINE",
"668 1456 LINE",
"11 1456 LINE",
"11 1250 LINE",
"176 1235 LINE",
"512 0 LINE"
);
}
);
width = 2247;
}
);
leftKerningGroup = W;
rightKerningGroup = W;
unicode = 0057;
userData = {
com.typemytype.robofont.layerData = {
mask = {
anchors = (
);
components = (
);
contours = (
{
points = (
{
segmentType = line;
smooth = 0;
x = 1963;
y = 1402;
},
{
segmentType = line;
smooth = 0;
x = 1862;
y = 1402;
},
{
segmentType = line;
smooth = 0;
x = 1504;
y = 0;
},
{
segmentType = line;
smooth = 0;
x = 1443;
y = 0;
},
{
segmentType = line;
smooth = 0;
x = 1062;
y = 1214;
},
{
segmentType = line;
smooth = 0;
x = 1014;
y = 1359;
},
{
segmentType = line;
smooth = 0;
x = 1008;
y = 1359;
},
{
segmentType = line;
smooth = 0;
x = 962;
y = 1214;
},
{
segmentType = line;
smooth = 0;
x = 578;
y = 0;
},
{
segmentType = line;
smooth = 0;
x = 517;
y = 0;
},
{
segmentType = line;
smooth = 0;
x = 158;
y = 1402;
},
{
segmentType = line;
smooth = 0;
x = 57;
y = 1402;
},
{
segmentType = line;
smooth = 0;
x = 57;
y = 1456;
},
{
segmentType = line;
smooth = 0;
x = 367;
y = 1456;
},
{
segmentType = line;
smooth = 0;
x = 367;
y = 1402;
},
{
segmentType = line;
smooth = 0;
x = 217;
y = 1402;
},
{
segmentType = line;
smooth = 0;
x = 486;
y = 330;
},
{
segmentType = line;
smooth = 0;
x = 549;
y = 101;
},
{
segmentType = line;
smooth = 0;
x = 555;
y = 101;
},
{
segmentType = line;
smooth = 0;
x = 618;
y = 330;
},
{
segmentType = line;
smooth = 0;
x = 982;
y = 1456;
},
{
segmentType = line;
smooth = 0;
x = 1042;
y = 1456;
},
{
segmentType = line;
smooth = 0;
x = 1404;
y = 330;
},
{
segmentType = line;
smooth = 0;
x = 1466;
y = 101;
},
{
segmentType = line;
smooth = 0;
x = 1472;
y = 101;
},
{
segmentType = line;
smooth = 0;
x = 1537;
y = 330;
},
{
segmentType = line;
smooth = 0;
x = 1803;
y = 1402;
},
{
segmentType = line;
smooth = 0;
x = 1654;
y = 1402;
},
{
segmentType = line;
smooth = 0;
x = 1654;
y = 1456;
},
{
segmentType = line;
smooth = 0;
x = 1963;
y = 1456;
}
);
}
);
lib = {
};
name = W;
unicodes = (
);
width = 2000;
};
};
com.typemytype.robofont.mark = (
1,
0.1703,
0.1669,
0.8287
);
};
},
{
glyphname = X;
lastChange = "2018-07-28 20:14:58 +0000";
layers = (
{
anchors = (
{
name = bottom;
position = "{692, 0}";
},
{
name = top;
position = "{692, 1345}";
}
);
layerId = "0331963E-C1C8-4E93-A463-84B984C1D75E";
paths = (
{
closed = 1;
nodes = (
"403 0 LINE",
"403 54 LINE",
"238 54 LINE",
"691 701 LINE",
"1145 54 LINE",
"980 54 LINE",
"980 0 LINE",
"1327 0 LINE",
"1327 54 LINE",
"1212 54 LINE",
"726 743 LINE",
"1191 1402 LINE",
"1306 1402 LINE",
"1306 1456 LINE",
"959 1456 LINE",
"959 1402 LINE",
"1124 1402 LINE",
"691 785 LINE",
"259 1402 LINE",
"425 1402 LINE",
"425 1456 LINE",
"77 1456 LINE",
"77 1402 LINE",
"192 1402 LINE",
"658 743 LINE",
"172 54 LINE",
"57 54 LINE",
"57 0 LINE"
);
}
);
width = 1384;
},
{
anchors = (
{
name = bottom;
position = "{765, 0}";
},
{
name = top;
position = "{765, 1376}";
}
);
layerId = "B06AEEA2-953E-4FA5-BFB1-0445B6E4B274";
paths = (
{
closed = 1;
nodes = (
"556 0 LINE",
"556 126 LINE",
"423 139 LINE",
"767 612 LINE",
"1112 139 LINE",
"971 126 LINE",
"971 0 LINE",
"1449 0 LINE",
"1449 126 LINE",
"1320 148 LINE",
"882 739 LINE",
"1277 1307 LINE",
"1410 1329 LINE",
"1410 1456 LINE",
"935 1456 LINE",
"935 1329 LINE",
"1075 1316 LINE",
"769 867 LINE",
"447 1316 LINE",
"584 1329 LINE",
"584 1456 LINE",
"112 1456 LINE",
"112 1329 LINE",
"239 1307 LINE",
"657 739 LINE",
"206 148 LINE",
"80 126 LINE",
"80 0 LINE"
);
}
);
width = 1529;
},
{
anchors = (
{
name = bottom;
position = "{753, 0}";
},
{
name = top;
position = "{753, 1356}";
}
);
layerId = "55372407-EEEC-4390-8B77-FB5958F23D2B";
paths = (
{
closed = 1;
nodes = (
"623 0 LINE",
"623 205 LINE",
"508 217 LINE",
"741 523 LINE",
"965 217 LINE",
"849 205 LINE",
"849 0 LINE",
"1497 0 LINE",
"1497 205 LINE",
"1353 232 LINE",
"947 752 LINE",
"1306 1223 LINE",
"1432 1250 LINE",
"1432 1456 LINE",
"818 1456 LINE",
"818 1250 LINE",
"951 1237 LINE",
"737 948 LINE",
"531 1237 LINE",
"671 1250 LINE",
"671 1456 LINE",
"42 1456 LINE",
"42 1250 LINE",
"154 1223 LINE",
"524 710 LINE",
"137 231 LINE",
"8 205 LINE",
"8 0 LINE"
);
}
);
width = 1505;
}
);
leftKerningGroup = Chi;
rightKerningGroup = Chi;
unicode = 0058;
userData = {
com.typemytype.robofont.layerData = {
mask = {
anchors = (
);
components = (
);
contours = (
{
points = (
{
segmentType = line;
smooth = 0;
x = 57;
y = 54;
},
{
segmentType = line;
smooth = 0;
x = 172;
y = 54;
},
{
segmentType = line;
smooth = 0;
x = 658;
y = 743;
},
{
segmentType = line;
smooth = 0;
x = 192;
y = 1402;
},
{
segmentType = line;
smooth = 0;
x = 77;
y = 1402;
},
{
segmentType = line;
smooth = 0;
x = 77;
y = 1456;
},
{
segmentType = line;
smooth = 0;
x = 415;
y = 1456;
},
{
segmentType = line;
smooth = 0;
x = 415;
y = 1402;
},
{
segmentType = line;
smooth = 0;
x = 259;
y = 1402;
},
{
segmentType = line;
smooth = 0;
x = 691;
y = 785;
},
{
segmentType = line;
smooth = 0;
x = 1124;
y = 1402;
},
{
segmentType = line;
smooth = 0;
x = 969;
y = 1402;
},
{
segmentType = line;
smooth = 0;
x = 969;
y = 1456;
},
{
segmentType = line;
smooth = 0;
x = 1306;
y = 1456;
},
{
segmentType = line;
smooth = 0;
x = 1306;
y = 1402;
},
{
segmentType = line;
smooth = 0;
x = 1191;
y = 1402;
},
{
segmentType = line;
smooth = 0;
x = 726;
y = 743;
},
{
segmentType = line;
smooth = 0;
x = 1212;
y = 54;
},
{
segmentType = line;
smooth = 0;
x = 1327;
y = 54;
},
{
segmentType = line;
smooth = 0;
x = 1327;
y = 0;
},
{
segmentType = line;
smooth = 0;
x = 990;
y = 0;
},
{
segmentType = line;
smooth = 0;
x = 990;
y = 54;
},
{
segmentType = line;
smooth = 0;
x = 1145;
y = 54;
},
{
segmentType = line;
smooth = 0;
x = 691;
y = 701;
},
{
segmentType = line;
smooth = 0;
x = 238;
y = 54;
},
{
segmentType = line;
smooth = 0;
x = 393;
y = 54;
},
{
segmentType = line;
smooth = 0;
x = 393;
y = 0;
},
{
segmentType = line;
smooth = 0;
x = 57;
y = 0;
}
);
}
);
lib = {
};
name = X;
unicodes = (
);
width = 1384;
};
};
com.typemytype.robofont.mark = (
1,
0.1703,
0.1669,
0.8287
);
};
},
{
glyphname = Y;
lastChange = "2018-07-27 21:54:15 +0000";
layers = (
{
anchors = (
{
name = bottom;
position = "{715, 0}";
},
{
name = top;
position = "{715, 1345}";
},
{
name = topleft;
position = "{20, 1456}";
}
);
layerId = "0331963E-C1C8-4E93-A463-84B984C1D75E";
paths = (
{
closed = 1;
nodes = (
"907 0 LINE",
"907 54 LINE",
"744 54 LINE",
"744 553 LINE",
"1258 1402 LINE",
"1378 1402 LINE",
"1378 1456 LINE",
"1052 1456 LINE",
"1052 1402 LINE",
"1193 1402 LINE",
"742 647 LINE",
"716 599 LINE",
"715 597 LINE",
"689 647 LINE",
"240 1402 LINE",
"381 1402 LINE",
"381 1456 LINE",
"55 1456 LINE",
"55 1402 LINE",
"174 1402 LINE",
"689 553 LINE",
"689 54 LINE",
"526 54 LINE",
"526 0 LINE"
);
}
);
width = 1429;
},
{
anchors = (
{
name = bottom;
position = "{731, 0}";
},
{
name = top;
position = "{731, 1376}";
},
{
name = topleft;
position = "{20, 1376}";
}
);
layerId = "B06AEEA2-953E-4FA5-BFB1-0445B6E4B274";
paths = (
{
closed = 1;
nodes = (
"992 0 LINE",
"992 126 LINE",
"829 154 LINE",
"829 545 LINE",
"1269 1310 LINE",
"1396 1329 LINE",
"1396 1456 LINE",
"904 1456 LINE",
"904 1329 LINE",
"1076 1310 LINE",
"752 738 LINE",
"732 701 LINE",
"731 699 LINE",
"710 738 LINE",
"401 1310 LINE",
"567 1329 LINE",
"567 1456 LINE",
"65 1456 LINE",
"65 1329 LINE",
"185 1310 LINE",
"633 530 LINE",
"633 154 LINE",
"470 126 LINE",
"470 0 LINE"
);
}
);
width = 1461;
},
{
anchors = (
{
name = bottom;
position = "{769, 0}";
},
{
name = top;
position = "{769, 1356}";
},
{
name = topleft;
position = "{20, 1356}";
}
);
layerId = "55372407-EEEC-4390-8B77-FB5958F23D2B";
paths = (
{
closed = 1;
nodes = (
"1094 0 LINE",
"1094 205 LINE",
"942 237 LINE",
"942 508 LINE",
"1360 1229 LINE",
"1514 1250 LINE",
"1514 1456 LINE",
"896 1456 LINE",
"896 1250 LINE",
"1048 1234 LINE",
"814 832 LINE",
"790 784 LINE",
"781 784 LINE",
"758 835 LINE",
"558 1234 LINE",
"648 1250 LINE",
"648 1456 LINE",
"18 1456 LINE",
"18 1250 LINE",
"170 1229 LINE",
"592 480 LINE",
"592 237 LINE",
"441 205 LINE",
"441 0 LINE"
);
}
);
width = 1537;
}
);
leftKerningGroup = Upsilon;
rightKerningGroup = Upsilon;
unicode = 0059;
userData = {
com.typemytype.robofont.mark = (
1,
0.1703,
0.1669,
0.8287
);
};
},
{
glyphname = Z;
lastChange = "2018-07-27 21:54:15 +0000";
layers = (
{
anchors = (
{
name = bottom;
position = "{610, 0}";
},
{
name = top;
position = "{610, 1345}";
}
);
layerId = "0331963E-C1C8-4E93-A463-84B984C1D75E";
paths = (
{
closed = 1;
nodes = (
"1128 0 LINE",
"1128 293 LINE",
"1074 293 LINE",
"1074 54 LINE",
"166 54 LINE",
"1096 1418 LINE",
"1096 1456 LINE",
"132 1456 LINE",
"132 1163 LINE",
"186 1163 LINE",
"186 1403 LINE",
"1021 1403 LINE",
"92 44 LINE",
"92 0 LINE"
);
}
);
width = 1220;
},
{
anchors = (
{
name = bottom;
position = "{599, 0}";
},
{
name = top;
position = "{585, 1376}";
}
);
layerId = "B06AEEA2-953E-4FA5-BFB1-0445B6E4B274";
paths = (
{
closed = 1;
nodes = (
"1107 0 LINE",
"1107 360 LINE",
"950 360 LINE",
"932 153 LINE",
"313 153 LINE",
"1074 1311 LINE",
"1074 1456 LINE",
"105 1456 LINE",
"105 1114 LINE",
"263 1114 LINE",
"281 1302 LINE",
"847 1302 LINE",
"90 149 LINE",
"90 0 LINE"
);
}
);
width = 1197;
},
{
anchors = (
{
name = bottom;
position = "{622, 0}";
},
{
name = top;
position = "{622, 1356}";
}
);
layerId = "55372407-EEEC-4390-8B77-FB5958F23D2B";
paths = (
{
closed = 1;
nodes = (
"1201 0 LINE",
"1230 441 LINE",
"968 441 LINE",
"940 268 LINE",
"503 268 LINE",
"1186 1245 LINE",
"1186 1456 LINE",
"108 1456 LINE",
"89 1002 LINE",
"352 1002 LINE",
"378 1187 LINE",
"745 1187 LINE",
"64 219 LINE",
"64 0 LINE"
);
}
);
width = 1244;
}
);
leftKerningGroup = Z;
rightKerningGroup = Z;
unicode = 005A;
},
{
glyphname = C.ss03;
lastChange = "2018-07-27 20:31:53 +0000";
layers = (
{
layerId = "0331963E-C1C8-4E93-A463-84B984C1D75E";
paths = (
{
closed = 1;
nodes = (
"864.333 -21 OFFCURVE",
"1052.667 75.333 OFFCURVE",
"1150 230 CURVE",
"1150 504 LINE",
"1095 504 LINE",
"1095 250 LINE",
"1007 118 OFFCURVE",
"843 33 OFFCURVE",
"651 33 CURVE SMOOTH",
"365.667 33 OFFCURVE",
"168 267 OFFCURVE",
"168 619 CURVE SMOOTH",
"168 839 LINE SMOOTH",
"168 1192.333 OFFCURVE",
"355.667 1423 OFFCURVE",
"661 1423 CURVE SMOOTH",
"851.667 1423 OFFCURVE",
"1005.667 1346 OFFCURVE",
"1095 1226 CURVE",
"1095 922 LINE",
"1150 922 LINE",
"1150 1246 LINE",
"1051.333 1388.667 OFFCURVE",
"871.667 1477 OFFCURVE",
"661 1477 CURVE SMOOTH",
"321 1477 OFFCURVE",
"114 1222.333 OFFCURVE",
"114 837 CURVE SMOOTH",
"114 619 LINE SMOOTH",
"114 237.667 OFFCURVE",
"331 -21 OFFCURVE",
"651 -21 CURVE SMOOTH"
);
}
);
width = 1266;
},
{
layerId = "B06AEEA2-953E-4FA5-BFB1-0445B6E4B274";
paths = (
{
closed = 1;
nodes = (
"893.333 -21 OFFCURVE",
"1069.333 80 OFFCURVE",
"1152 188 CURVE",
"1152 496 LINE",
"1014 496 LINE",
"957 241 LINE",
"902.333 179.667 OFFCURVE",
"794.667 133 OFFCURVE",
"672 133 CURVE SMOOTH",
"452 133 OFFCURVE",
"311 332.667 OFFCURVE",
"311 598 CURVE SMOOTH",
"311 859 LINE SMOOTH",
"311 1121.667 OFFCURVE",
"468.333 1322 OFFCURVE",
"711 1322 CURVE SMOOTH",
"832.333 1322 OFFCURVE",
"918.333 1269.333 OFFCURVE",
"977 1196 CURVE",
"1034 958 LINE",
"1192 958 LINE",
"1192 1268 LINE",
"1104 1374.667 OFFCURVE",
"921.333 1477 OFFCURVE",
"692 1477 CURVE SMOOTH",
"350.667 1477 OFFCURVE",
"114 1215.667 OFFCURVE",
"114 857 CURVE SMOOTH",
"114 598 LINE SMOOTH",
"114 238 OFFCURVE",
"341.333 -21 OFFCURVE",
"672 -21 CURVE SMOOTH"
);
}
);
width = 1283;
},
{
layerId = "55372407-EEEC-4390-8B77-FB5958F23D2B";
paths = (
{
closed = 1;
nodes = (
"913 -21 OFFCURVE",
"1107 57 OFFCURVE",
"1246 211 CURVE",
"1246 540 LINE",
"982 540 LINE",
"910 288 LINE",
"870 261 OFFCURVE",
"793 246 OFFCURVE",
"709 246 CURVE SMOOTH",
"524 246 OFFCURVE",
"423 375 OFFCURVE",
"423 574 CURVE SMOOTH",
"423 883 LINE SMOOTH",
"423 1077 OFFCURVE",
"528 1209 OFFCURVE",
"701 1209 CURVE SMOOTH",
"790 1209 OFFCURVE",
"860 1193 OFFCURVE",
"906 1167 CURVE",
"979 883 LINE",
"1239 883 LINE",
"1237 1244 LINE",
"1098 1396 OFFCURVE",
"908 1477 OFFCURVE",
"681 1477 CURVE SMOOTH",
"320 1477 OFFCURVE",
"73 1231 OFFCURVE",
"73 881 CURVE SMOOTH",
"73 574 LINE SMOOTH",
"73 222 OFFCURVE",
"322 -21 OFFCURVE",
"685 -21 CURVE SMOOTH"
);
}
);
width = 1278;
}
);
},
{
glyphname = G.ss03;
lastChange = "2018-07-27 20:31:53 +0000";
layers = (
{
layerId = "0331963E-C1C8-4E93-A463-84B984C1D75E";
paths = (
{
closed = 1;
nodes = (
"928.333 -21 OFFCURVE",
"1110.667 70.667 OFFCURVE",
"1172 156 CURVE",
"1172 620 LINE",
"803 620 LINE",
"803 565 LINE",
"1118 565 LINE",
"1118 181 LINE",
"1063.333 109 OFFCURVE",
"889.667 33 OFFCURVE",
"675 33 CURVE SMOOTH",
"369.667 33 OFFCURVE",
"168 273.333 OFFCURVE",
"168 620 CURVE SMOOTH",
"168 860 LINE SMOOTH",
"168 1190.667 OFFCURVE",
"371.333 1423 OFFCURVE",
"678 1423 CURVE SMOOTH",
"882 1423 OFFCURVE",
"1034.667 1355.333 OFFCURVE",
"1124 1226 CURVE",
"1123 972 LINE",
"1177 972 LINE",
"1177 1246 LINE",
"1077 1398 OFFCURVE",
"903.333 1477 OFFCURVE",
"678 1477 CURVE SMOOTH",
"344.667 1477 OFFCURVE",
"114 1223.333 OFFCURVE",
"114 858 CURVE SMOOTH",
"114 620 LINE SMOOTH",
"114 240 OFFCURVE",
"341.667 -21 OFFCURVE",
"675 -21 CURVE SMOOTH"
);
}
);
width = 1373;
},
{
layerId = "B06AEEA2-953E-4FA5-BFB1-0445B6E4B274";
paths = (
{
closed = 1;
nodes = (
"987 -21 OFFCURVE",
"1158.667 86.333 OFFCURVE",
"1228 193 CURVE",
"1228 687 LINE",
"793 687 LINE",
"793 542 LINE",
"1031 532 LINE",
"1031 241 LINE",
"985.667 185 OFFCURVE",
"880.333 133 OFFCURVE",
"715 133 CURVE SMOOTH",
"480.333 133 OFFCURVE",
"311 319.333 OFFCURVE",
"311 578 CURVE SMOOTH",
"311 880 LINE SMOOTH",
"311 1136 OFFCURVE",
"476.667 1322 OFFCURVE",
"722 1322 CURVE SMOOTH",
"844.667 1322 OFFCURVE",
"931 1288.333 OFFCURVE",
"987 1239 CURVE",
"1045 989 LINE",
"1203 989 LINE",
"1202 1273 LINE",
"1096.667 1402.333 OFFCURVE",
"927.333 1477 OFFCURVE",
"702 1477 CURVE SMOOTH",
"355.333 1477 OFFCURVE",
"114 1231.333 OFFCURVE",
"114 878 CURVE SMOOTH",
"114 578 LINE SMOOTH",
"114 224.667 OFFCURVE",
"367 -21 OFFCURVE",
"715 -21 CURVE SMOOTH"
);
}
);
width = 1385;
},
{
layerId = "55372407-EEEC-4390-8B77-FB5958F23D2B";
paths = (
{
closed = 1;
nodes = (
"966 -21 OFFCURVE",
"1154 63 OFFCURVE",
"1256 161 CURVE",
"1256 732 LINE",
"714 732 LINE",
"714 490 LINE",
"903 469 LINE",
"903 277 LINE",
"860 257 OFFCURVE",
"799 246 OFFCURVE",
"681 246 CURVE SMOOTH",
"518 246 OFFCURVE",
"423 379 OFFCURVE",
"423 575 CURVE SMOOTH",
"423 883 LINE SMOOTH",
"423 1077 OFFCURVE",
"530 1209 OFFCURVE",
"691 1209 CURVE SMOOTH",
"764 1209 OFFCURVE",
"826 1192 OFFCURVE",
"861 1164 CURVE",
"956 945 LINE",
"1265 945 LINE",
"1228 1265 LINE",
"1099 1399 OFFCURVE",
"897 1477 OFFCURVE",
"671 1477 CURVE SMOOTH",
"318 1477 OFFCURVE",
"73 1232 OFFCURVE",
"73 881 CURVE SMOOTH",
"73 575 LINE SMOOTH",
"73 221 OFFCURVE",
"320 -21 OFFCURVE",
"681 -21 CURVE SMOOTH"
);
}
);
width = 1304;
}
);
},
{
glyphname = S.ss03;
lastChange = "2018-07-27 20:31:53 +0000";
layers = (
{
layerId = "0331963E-C1C8-4E93-A463-84B984C1D75E";
paths = (
{
closed = 1;
nodes = (
"896.667 -21 OFFCURVE",
"1108 120.333 OFFCURVE",
"1108 351 CURVE SMOOTH",
"1108 577.667 OFFCURVE",
"941.667 684.667 OFFCURVE",
"619 770 CURVE SMOOTH",
"285.667 855.333 OFFCURVE",
"178 956.667 OFFCURVE",
"178 1122 CURVE SMOOTH",
"178 1287.333 OFFCURVE",
"343 1423 OFFCURVE",
"607 1423 CURVE SMOOTH",
"861.667 1423 OFFCURVE",
"1038 1263.333 OFFCURVE",
"1038 1046 CURVE",
"1084 1046 LINE",
"1086 1052 LINE",
"1091.333 1301.333 OFFCURVE",
"891 1477 OFFCURVE",
"607 1477 CURVE SMOOTH",
"325.667 1477 OFFCURVE",
"124 1337.333 OFFCURVE",
"124 1120 CURVE SMOOTH",
"124 901.333 OFFCURVE",
"272 807.333 OFFCURVE",
"604 718 CURVE SMOOTH",
"934.667 627.333 OFFCURVE",
"1053 531.667 OFFCURVE",
"1053 349 CURVE SMOOTH",
"1053 162.333 OFFCURVE",
"870 33 OFFCURVE",
"614 33 CURVE SMOOTH",
"359.333 33 OFFCURVE",
"131 146 OFFCURVE",
"131 410 CURVE",
"86 410 LINE",
"84 404 LINE",
"77.333 110.667 OFFCURVE",
"322 -21 OFFCURVE",
"614 -21 CURVE SMOOTH"
);
}
);
width = 1231;
},
{
layerId = "B06AEEA2-953E-4FA5-BFB1-0445B6E4B274";
paths = (
{
closed = 1;
nodes = (
"941.333 -21 OFFCURVE",
"1152 134.333 OFFCURVE",
"1152 369 CURVE SMOOTH",
"1152 587.667 OFFCURVE",
"988.667 736 OFFCURVE",
"682 812 CURVE SMOOTH",
"427.333 876 OFFCURVE",
"321 955.333 OFFCURVE",
"321 1082 CURVE SMOOTH",
"321 1224.667 OFFCURVE",
"429 1322 OFFCURVE",
"625 1322 CURVE SMOOTH",
"835.667 1322 OFFCURVE",
"952 1206.667 OFFCURVE",
"952 1036 CURVE",
"1140 1036 LINE",
"1142 1042 LINE",
"1148.667 1272.667 OFFCURVE",
"943.667 1477 OFFCURVE",
"625 1477 CURVE SMOOTH",
"329 1477 OFFCURVE",
"124 1305.667 OFFCURVE",
"124 1079 CURVE SMOOTH",
"124 863 OFFCURVE",
"306 721.333 OFFCURVE",
"614 648 CURVE SMOOTH",
"868.667 586.667 OFFCURVE",
"954 500.333 OFFCURVE",
"954 367 CURVE SMOOTH",
"954 223 OFFCURVE",
"830.667 133 OFFCURVE",
"632 133 CURVE SMOOTH",
"429.333 133 OFFCURVE",
"274 232.333 OFFCURVE",
"274 419 CURVE",
"86 419 LINE",
"84 413 LINE",
"77.333 149 OFFCURVE",
"341.333 -21 OFFCURVE",
"632 -21 CURVE SMOOTH"
);
}
);
width = 1248;
},
{
layerId = "55372407-EEEC-4390-8B77-FB5958F23D2B";
paths = (
{
closed = 1;
nodes = (
"984 -21 OFFCURVE",
"1202 132 OFFCURVE",
"1202 390 CURVE SMOOTH",
"1202 641 OFFCURVE",
"1030 773 OFFCURVE",
"700 870 CURVE SMOOTH",
"495 945 OFFCURVE",
"430 981 OFFCURVE",
"430 1063 CURVE SMOOTH",
"430 1149 OFFCURVE",
"508 1213 OFFCURVE",
"640 1213 CURVE SMOOTH",
"772 1213 OFFCURVE",
"853 1137 OFFCURVE",
"853 1025 CURVE",
"1193 1025 LINE",
"1195 1031 LINE",
"1202 1292 OFFCURVE",
"969 1477 OFFCURVE",
"646 1477 CURVE SMOOTH",
"320 1477 OFFCURVE",
"80 1312 OFFCURVE",
"80 1066 CURVE SMOOTH",
"80 813 OFFCURVE",
"258 705 OFFCURVE",
"627 588 CURVE SMOOTH",
"791 529 OFFCURVE",
"850 487 OFFCURVE",
"850 388 CURVE SMOOTH",
"850 300 OFFCURVE",
"789 242 OFFCURVE",
"653 242 CURVE SMOOTH",
"472 242 OFFCURVE",
"387 306 OFFCURVE",
"387 471 CURVE",
"45 471 LINE",
"43 465 LINE",
"37 151 OFFCURVE",
"321 -21 OFFCURVE",
"653 -21 CURVE SMOOTH"
);
}
);
width = 1238;
}
);
},
{
glyphname = C.ss04;
lastChange = "2018-07-27 20:31:53 +0000";
layers = (
{
layerId = "0331963E-C1C8-4E93-A463-84B984C1D75E";
paths = (
{
closed = 1;
nodes = (
"939.667 -21 OFFCURVE",
"1130 137.333 OFFCURVE",
"1154 440 CURVE",
"1152 446 LINE",
"1106 446 LINE",
"1075.333 166 OFFCURVE",
"915.667 33 OFFCURVE",
"641 33 CURVE SMOOTH",
"357 33 OFFCURVE",
"168 265.667 OFFCURVE",
"168 619 CURVE SMOOTH",
"168 839 LINE SMOOTH",
"168 1188.333 OFFCURVE",
"357 1423 OFFCURVE",
"641 1423 CURVE SMOOTH",
"915.667 1423 OFFCURVE",
"1075.333 1278.667 OFFCURVE",
"1106 1012 CURVE",
"1152 1012 LINE",
"1154 1018 LINE",
"1130 1316.667 OFFCURVE",
"938.333 1477 OFFCURVE",
"641 1477 CURVE SMOOTH",
"322.333 1477 OFFCURVE",
"114 1218.333 OFFCURVE",
"114 837 CURVE SMOOTH",
"114 619 LINE SMOOTH",
"114 236.333 OFFCURVE",
"322.333 -21 OFFCURVE",
"641 -21 CURVE SMOOTH"
);
}
);
width = 1266;
},
{
layerId = "B06AEEA2-953E-4FA5-BFB1-0445B6E4B274";
paths = (
{
closed = 1;
nodes = (
"988 -21 OFFCURVE",
"1180.667 178.667 OFFCURVE",
"1206 460 CURVE",
"1204 466 LINE",
"1015 466 LINE",
"983 247.333 OFFCURVE",
"884 133 OFFCURVE",
"672 133 CURVE SMOOTH",
"452 133 OFFCURVE",
"311 332.667 OFFCURVE",
"311 598 CURVE SMOOTH",
"311 859 LINE SMOOTH",
"311 1121.667 OFFCURVE",
"452 1322 OFFCURVE",
"672 1322 CURVE SMOOTH",
"882.667 1322 OFFCURVE",
"983 1205.667 OFFCURVE",
"1015 991 CURVE",
"1204 991 LINE",
"1206 997 LINE",
"1180.667 1294.333 OFFCURVE",
"993.333 1477 OFFCURVE",
"672 1477 CURVE SMOOTH",
"342.667 1477 OFFCURVE",
"114 1215.667 OFFCURVE",
"114 857 CURVE SMOOTH",
"114 598 LINE SMOOTH",
"114 238 OFFCURVE",
"341.333 -21 OFFCURVE",
"672 -21 CURVE SMOOTH"
);
}
);
width = 1283;
},
{
layerId = "55372407-EEEC-4390-8B77-FB5958F23D2B";
paths = (
{
closed = 1;
nodes = (
"1046 -21 OFFCURVE",
"1237 165 OFFCURVE",
"1250 507 CURVE",
"1248 513 LINE",
"906 513 LINE",
"900 327 OFFCURVE",
"843 246 OFFCURVE",
"697 246 CURVE SMOOTH",
"523 246 OFFCURVE",
"423 378 OFFCURVE",
"423 574 CURVE SMOOTH",
"423 883 LINE SMOOTH",
"423 1077 OFFCURVE",
"514 1209 OFFCURVE",
"673 1209 CURVE SMOOTH",
"839 1209 OFFCURVE",
"902 1119 OFFCURVE",
"908 933 CURVE",
"1251 933 LINE",
"1253 939 LINE",
"1228 1284 OFFCURVE",
"1034 1477 OFFCURVE",
"673 1477 CURVE SMOOTH",
"312 1477 OFFCURVE",
"73 1231 OFFCURVE",
"73 881 CURVE SMOOTH",
"73 574 LINE SMOOTH",
"73 222 OFFCURVE",
"322 -21 OFFCURVE",
"697 -21 CURVE SMOOTH"
);
}
);
width = 1278;
}
);
},
{
glyphname = G.ss04;
lastChange = "2018-07-27 20:31:53 +0000";
layers = (
{
layerId = "0331963E-C1C8-4E93-A463-84B984C1D75E";
paths = (
{
closed = 1;
nodes = (
"928.333 -21 OFFCURVE",
"1110.667 70.667 OFFCURVE",
"1172 156 CURVE",
"1172 630 LINE",
"823 630 LINE",
"823 575 LINE",
"1118 575 LINE",
"1118 181 LINE",
"1063.333 109 OFFCURVE",
"889.667 33 OFFCURVE",
"675 33 CURVE SMOOTH",
"369.667 33 OFFCURVE",
"168 273.333 OFFCURVE",
"168 620 CURVE SMOOTH",
"168 860 LINE SMOOTH",
"168 1190.667 OFFCURVE",
"363.333 1423 OFFCURVE",
"658 1423 CURVE SMOOTH",
"939.333 1423 OFFCURVE",
"1081.333 1273.667 OFFCURVE",
"1116 1063 CURVE",
"1161 1063 LINE",
"1163 1069 LINE",
"1141.667 1307.667 OFFCURVE",
"959.333 1477 OFFCURVE",
"658 1477 CURVE SMOOTH",
"335.333 1477 OFFCURVE",
"114 1223.333 OFFCURVE",
"114 858 CURVE SMOOTH",
"114 620 LINE SMOOTH",
"114 240 OFFCURVE",
"341.667 -21 OFFCURVE",
"675 -21 CURVE SMOOTH"
);
}
);
width = 1373;
},
{
layerId = "B06AEEA2-953E-4FA5-BFB1-0445B6E4B274";
paths = (
{
closed = 1;
nodes = (
"987 -21 OFFCURVE",
"1158.667 86.333 OFFCURVE",
"1228 193 CURVE",
"1228 687 LINE",
"793 687 LINE",
"793 542 LINE",
"1031 533 LINE",
"1031 241 LINE",
"985.667 185 OFFCURVE",
"880.333 133 OFFCURVE",
"715 133 CURVE SMOOTH",
"480.333 133 OFFCURVE",
"311 319.333 OFFCURVE",
"311 578 CURVE SMOOTH",
"311 880 LINE SMOOTH",
"311 1136 OFFCURVE",
"460.667 1322 OFFCURVE",
"682 1322 CURVE SMOOTH",
"896.667 1322 OFFCURVE",
"996.333 1208 OFFCURVE",
"1031 1032 CURVE",
"1219 1032 LINE",
"1221 1038 LINE",
"1186.333 1303.333 OFFCURVE",
"1008.667 1477 OFFCURVE",
"682 1477 CURVE SMOOTH",
"347.333 1477 OFFCURVE",
"114 1231.333 OFFCURVE",
"114 878 CURVE SMOOTH",
"114 578 LINE SMOOTH",
"114 224.667 OFFCURVE",
"367 -21 OFFCURVE",
"715 -21 CURVE SMOOTH"
);
}
);
width = 1385;
},
{
layerId = "55372407-EEEC-4390-8B77-FB5958F23D2B";
paths = (
{
closed = 1;
nodes = (
"966 -21 OFFCURVE",
"1154 63 OFFCURVE",
"1256 161 CURVE",
"1256 742 LINE",
"749 742 LINE",
"749 532 LINE",
"903 510 LINE",
"903 277 LINE",
"860 257 OFFCURVE",
"799 246 OFFCURVE",
"681 246 CURVE SMOOTH",
"518 246 OFFCURVE",
"423 379 OFFCURVE",
"423 575 CURVE SMOOTH",
"423 883 LINE SMOOTH",
"423 1077 OFFCURVE",
"523 1209 OFFCURVE",
"676 1209 CURVE SMOOTH",
"828 1209 OFFCURVE",
"894 1132 OFFCURVE",
"916 982 CURVE",
"1245 982 LINE",
"1247 988 LINE",
"1223 1290 OFFCURVE",
"1043 1477 OFFCURVE",
"664 1477 CURVE SMOOTH",
"319 1477 OFFCURVE",
"73 1232 OFFCURVE",
"73 881 CURVE SMOOTH",
"73 575 LINE SMOOTH",
"73 221 OFFCURVE",
"320 -21 OFFCURVE",
"681 -21 CURVE SMOOTH"
);
}
);
width = 1304;
}
);
},
{
glyphname = O.ss04;
lastChange = "2018-07-27 20:31:53 +0000";
layers = (
{
layerId = "0331963E-C1C8-4E93-A463-84B984C1D75E";
paths = (
{
closed = 1;
nodes = (
"1005.333 -21 OFFCURVE",
"1212 225.667 OFFCURVE",
"1212 619 CURVE SMOOTH",
"1212 837 LINE SMOOTH",
"1212 1229 OFFCURVE",
"1003.333 1477 OFFCURVE",
"662 1477 CURVE SMOOTH",
"319.333 1477 OFFCURVE",
"114 1229 OFFCURVE",
"114 837 CURVE SMOOTH",
"114 619 LINE SMOOTH",
"114 225.667 OFFCURVE",
"321.333 -21 OFFCURVE",
"664 -21 CURVE SMOOTH"
);
},
{
closed = 1;
nodes = (
"346.667 33 OFFCURVE",
"169 259 OFFCURVE",
"169 619 CURVE SMOOTH",
"169 839 LINE SMOOTH",
"169 1196.333 OFFCURVE",
"346 1423 OFFCURVE",
"662 1423 CURVE SMOOTH",
"979.333 1423 OFFCURVE",
"1158 1196.333 OFFCURVE",
"1158 839 CURVE SMOOTH",
"1158 619 LINE SMOOTH",
"1158 257.667 OFFCURVE",
"981.333 33 OFFCURVE",
"664 33 CURVE SMOOTH"
);
}
);
width = 1372;
},
{
layerId = "B06AEEA2-953E-4FA5-BFB1-0445B6E4B274";
paths = (
{
closed = 1;
nodes = (
"1040 -21 OFFCURVE",
"1283 242 OFFCURVE",
"1283 598 CURVE SMOOTH",
"1283 857 LINE SMOOTH",
"1283 1213 OFFCURVE",
"1040 1477 OFFCURVE",
"688 1477 CURVE SMOOTH",
"348 1477 OFFCURVE",
"114 1211.667 OFFCURVE",
"114 857 CURVE SMOOTH",
"114 598 LINE SMOOTH",
"114 242 OFFCURVE",
"348 -21 OFFCURVE",
"688 -21 CURVE SMOOTH"
);
},
{
closed = 1;
nodes = (
"457.333 140 OFFCURVE",
"311 328.667 OFFCURVE",
"311 598 CURVE SMOOTH",
"311 859 LINE SMOOTH",
"311 1125.667 OFFCURVE",
"457.333 1315 OFFCURVE",
"688 1315 CURVE SMOOTH",
"930.667 1315 OFFCURVE",
"1086 1125.667 OFFCURVE",
"1086 859 CURVE SMOOTH",
"1086 598 LINE SMOOTH",
"1086 327.333 OFFCURVE",
"932 140 OFFCURVE",
"688 140 CURVE SMOOTH"
);
}
);
width = 1403;
},
{
layerId = "55372407-EEEC-4390-8B77-FB5958F23D2B";
paths = (
{
closed = 1;
nodes = (
"1066 -21 OFFCURVE",
"1317 236 OFFCURVE",
"1317 596 CURVE SMOOTH",
"1317 860 LINE SMOOTH",
"1317 1216 OFFCURVE",
"1063 1477 OFFCURVE",
"696 1477 CURVE SMOOTH",
"326 1477 OFFCURVE",
"73 1217 OFFCURVE",
"73 860 CURVE SMOOTH",
"73 596 LINE SMOOTH",
"73 238 OFFCURVE",
"327 -21 OFFCURVE",
"699 -21 CURVE SMOOTH"
);
},
{
closed = 1;
nodes = (
"521 247 OFFCURVE",
"423 390 OFFCURVE",
"423 596 CURVE SMOOTH",
"423 862 LINE SMOOTH",
"423 1064 OFFCURVE",
"519 1208 OFFCURVE",
"696 1208 CURVE SMOOTH",
"870 1208 OFFCURVE",
"968 1064 OFFCURVE",
"968 862 CURVE SMOOTH",
"968 596 LINE SMOOTH",
"968 391 OFFCURVE",
"872 247 OFFCURVE",
"699 247 CURVE SMOOTH"
);
}
);
width = 1372;
}
);
},
{
color = 4;
glyphname = D.ss05;
lastChange = "2018-07-27 20:31:53 +0000";
layers = (
{
layerId = "55372407-EEEC-4390-8B77-FB5958F23D2B";
paths = (
{
closed = 1;
nodes = (
"742 0 LINE SMOOTH",
"1083 0 OFFCURVE",
"1343 234 OFFCURVE",
"1343 588 CURVE SMOOTH",
"1343 867 LINE SMOOTH",
"1343 1214 OFFCURVE",
"1089 1456 OFFCURVE",
"748 1456 CURVE SMOOTH",
"191 1456 LINE",
"40 1456 LINE",
"40 1250 LINE",
"191 1218 LINE",
"191 237 LINE",
"40 205 LINE",
"40 0 LINE"
);
},
{
closed = 1;
nodes = (
"542 1188 LINE",
"724 1188 LINE SMOOTH",
"896 1188 OFFCURVE",
"990 1064 OFFCURVE",
"990 869 CURVE SMOOTH",
"990 588 LINE SMOOTH",
"990 384 OFFCURVE",
"896 267 OFFCURVE",
"724 267 CURVE SMOOTH",
"542 267 LINE"
);
}
);
width = 1443;
},
{
layerId = "B06AEEA2-953E-4FA5-BFB1-0445B6E4B274";
paths = (
{
closed = 1;
nodes = (
"661 0 LINE SMOOTH",
"1041 0 OFFCURVE",
"1294 275 OFFCURVE",
"1294 638 CURVE SMOOTH",
"1294 817 LINE SMOOTH",
"1294 1188 OFFCURVE",
"1031 1456 OFFCURVE",
"651 1456 CURVE SMOOTH",
"244 1456 LINE",
"81 1456 LINE",
"81 1329 LINE",
"244 1301 LINE",
"244 154 LINE",
"81 126 LINE",
"81 0 LINE"
);
},
{
closed = 1;
nodes = (
"441 1301 LINE",
"651 1301 LINE SMOOTH",
"920 1301 OFFCURVE",
"1097 1094 OFFCURVE",
"1097 819 CURVE SMOOTH",
"1097 638 LINE SMOOTH",
"1097 371 OFFCURVE",
"920 154 OFFCURVE",
"651 154 CURVE SMOOTH",
"441 154 LINE"
);
}
);
width = 1359;
},
{
layerId = "0331963E-C1C8-4E93-A463-84B984C1D75E";
paths = (
{
closed = 1;
nodes = (
"637 0 LINE SMOOTH",
"971.667 0 OFFCURVE",
"1238 265.667 OFFCURVE",
"1238 639 CURVE SMOOTH",
"1238 817 LINE SMOOTH",
"1238 1189 OFFCURVE",
"971.667 1456 OFFCURVE",
"637 1456 CURVE SMOOTH",
"234 1456 LINE",
"71 1456 LINE",
"71 1402 LINE",
"234 1402 LINE",
"234 54 LINE",
"71 54 LINE",
"71 0 LINE"
);
},
{
closed = 1;
nodes = (
"288 1402 LINE",
"637 1402 LINE SMOOTH",
"939.667 1402 OFFCURVE",
"1184 1153.333 OFFCURVE",
"1184 820 CURVE SMOOTH",
"1184 639 LINE SMOOTH",
"1184 301.667 OFFCURVE",
"939.667 54 OFFCURVE",
"637 54 CURVE SMOOTH",
"288 54 LINE"
);
}
);
width = 1386;
}
);
rightKerningGroup = D;
},
{
color = 4;
glyphname = Dcroat.ss05;
lastChange = "2018-07-27 20:31:53 +0000";
layers = (
{
layerId = "0331963E-C1C8-4E93-A463-84B984C1D75E";
paths = (
{
closed = 1;
nodes = (
"667 0 LINE SMOOTH",
"1001.667 0 OFFCURVE",
"1268 265.667 OFFCURVE",
"1268 639 CURVE SMOOTH",
"1268 817 LINE SMOOTH",
"1268 1189 OFFCURVE",
"1001.667 1456 OFFCURVE",
"667 1456 CURVE SMOOTH",
"101 1456 LINE",
"101 1402 LINE",
"264 1402 LINE",
"264 767 LINE",
"136 767 LINE",
"136 713 LINE",
"264 713 LINE",
"264 54 LINE",
"101 54 LINE",
"101 0 LINE"
);
},
{
closed = 1;
nodes = (
"318 713 LINE",
"723 713 LINE",
"723 767 LINE",
"318 767 LINE",
"318 1402 LINE",
"667 1402 LINE SMOOTH",
"969.667 1402 OFFCURVE",
"1214 1153.333 OFFCURVE",
"1214 820 CURVE SMOOTH",
"1214 639 LINE SMOOTH",
"1214 301.667 OFFCURVE",
"969.667 54 OFFCURVE",
"667 54 CURVE SMOOTH",
"318 54 LINE"
);
}
);
width = 1416;
},
{
layerId = "B06AEEA2-953E-4FA5-BFB1-0445B6E4B274";
paths = (
{
closed = 1;
nodes = (
"711 0 LINE SMOOTH",
"1091 0 OFFCURVE",
"1343 256 OFFCURVE",
"1343 628 CURVE SMOOTH",
"1343 827 LINE SMOOTH",
"1343 1197.667 OFFCURVE",
"1091 1456 OFFCURVE",
"711 1456 CURVE SMOOTH",
"101 1456 LINE",
"101 1329 LINE",
"264 1301 LINE",
"264 818 LINE",
"66 818 LINE",
"66 663 LINE",
"264 663 LINE",
"264 154 LINE",
"101 126 LINE",
"101 0 LINE"
);
},
{
closed = 1;
nodes = (
"461 663 LINE",
"707 663 LINE",
"707 818 LINE",
"461 818 LINE",
"461 1301 LINE",
"711 1301 LINE SMOOTH",
"980.333 1301 OFFCURVE",
"1146 1103.667 OFFCURVE",
"1146 829 CURVE SMOOTH",
"1146 628 LINE SMOOTH",
"1146 350.667 OFFCURVE",
"980.333 154 OFFCURVE",
"711 154 CURVE SMOOTH",
"461 154 LINE"
);
}
);
width = 1449;
},
{
layerId = "55372407-EEEC-4390-8B77-FB5958F23D2B";
paths = (
{
closed = 1;
nodes = (
"760 0 LINE SMOOTH",
"1101 0 OFFCURVE",
"1361 246 OFFCURVE",
"1361 594 CURVE SMOOTH",
"1361 861 LINE SMOOTH",
"1361 1208 OFFCURVE",
"1101 1456 OFFCURVE",
"760 1456 CURVE SMOOTH",
"77 1456 LINE",
"77 1250 LINE",
"227 1218 LINE",
"227 821 LINE",
"34 821 LINE",
"34 666 LINE",
"227 666 LINE",
"227 237 LINE",
"77 205 LINE",
"77 0 LINE"
);
},
{
closed = 1;
nodes = (
"578 666 LINE",
"772 666 LINE",
"772 821 LINE",
"578 821 LINE",
"578 1188 LINE",
"735 1188 LINE SMOOTH",
"907 1188 OFFCURVE",
"1008 1058 OFFCURVE",
"1008 863 CURVE SMOOTH",
"1008 594 LINE SMOOTH",
"1008 397 OFFCURVE",
"907 267 OFFCURVE",
"735 267 CURVE SMOOTH",
"578 267 LINE"
);
}
);
width = 1436;
}
);
rightKerningGroup = D;
},
{
color = 4;
glyphname = K.ss05;
lastChange = "2018-07-27 20:31:53 +0000";
layers = (
{
layerId = "55372407-EEEC-4390-8B77-FB5958F23D2B";
paths = (
{
closed = 1;
nodes = (
"701 0 LINE",
"701 205 LINE",
"556 242 LINE",
"556 592 LINE",
"712 592 LINE",
"1009 218 LINE",
"1009 220 LINE",
"880 205 LINE",
"880 0 LINE",
"1584 0 LINE",
"1584 205 LINE",
"1435 236 LINE",
"987 781 LINE",
"1350 1216 LINE",
"1493 1250 LINE",
"1493 1456 LINE",
"862 1456 LINE",
"862 1250 LINE",
"999 1235 LINE",
"996 1232 LINE",
"699 883 LINE",
"556 883 LINE",
"556 1212 LINE",
"701 1250 LINE",
"701 1456 LINE",
"52 1456 LINE",
"52 1250 LINE",
"205 1212 LINE",
"205 242 LINE",
"52 205 LINE",
"52 0 LINE"
);
}
);
width = 1608;
},
{
layerId = "B06AEEA2-953E-4FA5-BFB1-0445B6E4B274";
paths = (
{
closed = 1;
nodes = (
"604 0 LINE",
"604 126 LINE",
"441 154 LINE",
"441 657 LINE",
"614 657 LINE",
"1054 141 LINE",
"1055 140 LINE",
"935 126 LINE",
"935 0 LINE",
"1416 0 LINE",
"1416 126 LINE",
"1282 151 LINE",
"770 752 LINE",
"1215 1304 LINE",
"1352 1329 LINE",
"1352 1456 LINE",
"890 1456 LINE",
"890 1329 LINE",
"999 1315 LINE",
"995 1310 LINE",
"592 812 LINE",
"441 812 LINE",
"441 1301 LINE",
"604 1329 LINE",
"604 1456 LINE",
"81 1456 LINE",
"81 1329 LINE",
"244 1301 LINE",
"244 154 LINE",
"81 126 LINE",
"81 0 LINE"
);
}
);
width = 1496;
},
{
layerId = "0331963E-C1C8-4E93-A463-84B984C1D75E";
paths = (
{
closed = 1;
nodes = (
"451 0 LINE",
"451 54 LINE",
"288 54 LINE",
"288 711 LINE",
"511 711 LINE",
"1133 60 LINE",
"1130 54 LINE",
"967 54 LINE",
"967 0 LINE",
"1328 0 LINE",
"1328 54 LINE",
"1210 54 LINE",
"571 730 LINE",
"1167 1402 LINE",
"1282 1402 LINE",
"1282 1456 LINE",
"921 1456 LINE",
"921 1402 LINE",
"1089 1402 LINE",
"1091 1397 LINE",
"526 764 LINE",
"288 764 LINE",
"288 1402 LINE",
"451 1402 LINE",
"451 1456 LINE",
"71 1456 LINE",
"71 1402 LINE",
"234 1402 LINE",
"234 54 LINE",
"71 54 LINE",
"71 0 LINE"
);
}
);
width = 1388;
}
);
rightKerningGroup = K;
},
{
color = 4;
glyphname = OE.ss05;
lastChange = "2018-07-27 20:31:53 +0000";
layers = (
{
layerId = "0331963E-C1C8-4E93-A463-84B984C1D75E";
paths = (
{
closed = 1;
nodes = (
"735.667 -21 OFFCURVE",
"825.667 -13.333 OFFCURVE",
"963 0 CURVE",
"1835 0 LINE",
"1835 293 LINE",
"1781 293 LINE",
"1781 54 LINE",
"1003 54 LINE",
"1003 732 LINE",
"1633 732 LINE",
"1633 786 LINE",
"1003 786 LINE",
"1003 1402 LINE",
"1781 1402 LINE",
"1781 1163 LINE",
"1835 1163 LINE",
"1835 1456 LINE",
"963 1456 LINE",
"844.333 1468 OFFCURVE",
"737.667 1477 OFFCURVE",
"631 1477 CURVE SMOOTH",
"323 1477 OFFCURVE",
"114 1233.333 OFFCURVE",
"114 880 CURVE SMOOTH",
"114 576 LINE SMOOTH",
"114 222.667 OFFCURVE",
"325 -21 OFFCURVE",
"633 -21 CURVE SMOOTH"
);
},
{
closed = 1;
nodes = (
"353 33 OFFCURVE",
"168 256 OFFCURVE",
"168 576 CURVE SMOOTH",
"168 882 LINE SMOOTH",
"168 1206 OFFCURVE",
"350 1423 OFFCURVE",
"631 1423 CURVE SMOOTH",
"723 1423 OFFCURVE",
"827 1415 OFFCURVE",
"949 1402 CURVE",
"949 54 LINE",
"819 38 OFFCURVE",
"712 33 OFFCURVE",
"633 33 CURVE SMOOTH"
);
}
);
width = 1973;
},
{
layerId = "B06AEEA2-953E-4FA5-BFB1-0445B6E4B274";
paths = (
{
closed = 1;
nodes = (
"763.333 -21 OFFCURVE",
"841.667 -13.333 OFFCURVE",
"963 0 CURVE",
"1884 0 LINE",
"1884 349 LINE",
"1716 349 LINE",
"1700 154 LINE",
"1115 154 LINE",
"1115 675 LINE",
"1672 675 LINE",
"1672 830 LINE",
"1115 830 LINE",
"1115 1301 LINE",
"1688 1301 LINE",
"1704 1106 LINE",
"1873 1106 LINE",
"1873 1456 LINE",
"963 1456 LINE",
"857.667 1468 OFFCURVE",
"764 1477 OFFCURVE",
"672 1477 CURVE SMOOTH",
"340 1477 OFFCURVE",
"114 1233.333 OFFCURVE",
"114 880 CURVE SMOOTH",
"114 576 LINE SMOOTH",
"114 222.667 OFFCURVE",
"342 -21 OFFCURVE",
"674 -21 CURVE SMOOTH"
);
},
{
closed = 1;
nodes = (
"448.667 134 OFFCURVE",
"311 290.667 OFFCURVE",
"311 576 CURVE SMOOTH",
"311 882 LINE SMOOTH",
"311 1166 OFFCURVE",
"446.667 1322 OFFCURVE",
"672 1322 CURVE SMOOTH",
"734.667 1322 OFFCURVE",
"799 1319 OFFCURVE",
"918 1301 CURVE",
"918 154 LINE",
"828 138 OFFCURVE",
"744.667 134 OFFCURVE",
"674 134 CURVE SMOOTH"
);
}
);
width = 1969;
},
{
layerId = "55372407-EEEC-4390-8B77-FB5958F23D2B";
paths = (
{
closed = 1;
nodes = (
"822 -21 OFFCURVE",
"896 -13 OFFCURVE",
"1020 0 CURVE",
"1968 0 LINE",
"1968 428 LINE",
"1713 428 LINE",
"1702 267 LINE",
"1303 267 LINE",
"1303 618 LINE",
"1756 618 LINE",
"1756 887 LINE",
"1303 887 LINE",
"1303 1188 LINE",
"1703 1188 LINE",
"1714 1027 LINE",
"1972 1027 LINE",
"1972 1456 LINE",
"1020 1456 LINE",
"914 1468 OFFCURVE",
"822 1477 OFFCURVE",
"730 1477 CURVE SMOOTH",
"353 1477 OFFCURVE",
"96 1233 OFFCURVE",
"96 880 CURVE SMOOTH",
"96 576 LINE SMOOTH",
"96 223 OFFCURVE",
"355 -21 OFFCURVE",
"732 -21 CURVE SMOOTH"
);
},
{
closed = 1;
nodes = (
"552 247 OFFCURVE",
"446 360 OFFCURVE",
"446 576 CURVE SMOOTH",
"446 882 LINE SMOOTH",
"446 1097 OFFCURVE",
"550 1209 OFFCURVE",
"730 1209 CURVE SMOOTH",
"815 1209 OFFCURVE",
"898 1197 OFFCURVE",
"952 1191 CURVE",
"952 264 LINE",
"887 255 OFFCURVE",
"814 247 OFFCURVE",
"732 247 CURVE SMOOTH"
);
}
);
width = 2013;
}
);
leftKerningGroup = C;
userData = {
com.typemytype.robofont.layerData = {
mask = {
anchors = (
);
components = (
);
contours = (
{
points = (
{
segmentType = line;
smooth = 0;
x = 963;
y = 0;
},
{
smooth = 0;
x = 825.66667;
y = -13.33333;
},
{
smooth = 0;
x = 735.66667;
y = -21;
},
{
segmentType = curve;
smooth = 1;
x = 633;
y = -21;
},
{
smooth = 0;
x = 325;
y = -21;
},
{
smooth = 0;
x = 114;
y = 222.66667;
},
{
segmentType = curve;
smooth = 1;
x = 114;
y = 576;
},
{
segmentType = line;
smooth = 1;
x = 114;
y = 880;
},
{
smooth = 0;
x = 114;
y = 1233.33333;
},
{
smooth = 0;
x = 323;
y = 1477;
},
{
segmentType = curve;
smooth = 1;
x = 631;
y = 1477;
},
{
smooth = 0;
x = 737.66667;
y = 1477;
},
{
smooth = 0;
x = 844.33333;
y = 1468;
},
{
segmentType = curve;
smooth = 0;
x = 963;
y = 1456;
},
{
segmentType = line;
smooth = 0;
x = 1835;
y = 1456;
},
{
segmentType = line;
smooth = 0;
x = 1835;
y = 1163;
},
{
segmentType = line;
smooth = 0;
x = 1781;
y = 1163;
},
{
segmentType = line;
smooth = 0;
x = 1781;
y = 1402;
},
{
segmentType = line;
smooth = 0;
x = 1003;
y = 1402;
},
{
segmentType = line;
smooth = 0;
x = 1003;
y = 786;
},
{
segmentType = line;
smooth = 0;
x = 1633;
y = 786;
},
{
segmentType = line;
smooth = 0;
x = 1633;
y = 732;
},
{
segmentType = line;
smooth = 0;
x = 1003;
y = 732;
},
{
segmentType = line;
smooth = 0;
x = 1003;
y = 54;
},
{
segmentType = line;
smooth = 0;
x = 1781;
y = 54;
},
{
segmentType = line;
smooth = 0;
x = 1781;
y = 293;
},
{
segmentType = line;
smooth = 0;
x = 1835;
y = 293;
},
{
segmentType = line;
smooth = 0;
x = 1835;
y = 0;
}
);
},
{
points = (
{
segmentType = curve;
smooth = 1;
x = 633;
y = 33;
},
{
smooth = 0;
x = 682.33333;
y = 33;
},
{
smooth = 0;
x = 735.33333;
y = 33.33333;
},
{
segmentType = curve;
smooth = 0;
x = 786;
y = 36;
},
{
segmentType = line;
smooth = 0;
x = 786;
y = 54;
},
{
segmentType = line;
smooth = 0;
x = 949;
y = 54;
},
{
segmentType = line;
smooth = 0;
x = 949;
y = 1402;
},
{
segmentType = line;
smooth = 0;
x = 786;
y = 1402;
},
{
segmentType = line;
smooth = 0;
x = 786;
y = 1420;
},
{
smooth = 0;
x = 735.33333;
y = 1421.33333;
},
{
smooth = 0;
x = 683;
y = 1423;
},
{
segmentType = curve;
smooth = 1;
x = 631;
y = 1423;
},
{
smooth = 0;
x = 349.66667;
y = 1423;
},
{
smooth = 0;
x = 168;
y = 1206;
},
{
segmentType = curve;
smooth = 1;
x = 168;
y = 882;
},
{
segmentType = line;
smooth = 1;
x = 168;
y = 576;
},
{
smooth = 0;
x = 168;
y = 256;
},
{
smooth = 0;
x = 353;
y = 33;
}
);
}
);
lib = {
};
name = OE;
unicodes = (
);
width = 1973;
};
};
};
},
{
color = 4;
glyphname = R.ss05;
lastChange = "2018-07-27 20:31:53 +0000";
layers = (
{
layerId = "55372407-EEEC-4390-8B77-FB5958F23D2B";
paths = (
{
closed = 1;
nodes = (
"711 0 LINE",
"711 205 LINE",
"556 243 LINE",
"556 566 LINE",
"757 566 LINE SMOOTH",
"866 561 OFFCURVE",
"930 484 OFFCURVE",
"930 357 CURVE SMOOTH",
"930 288 LINE SMOOTH",
"930 117 OFFCURVE",
"1005 0 OFFCURVE",
"1211 0 CURVE SMOOTH",
"1386 0 LINE",
"1386 206 LINE",
"1354 212 LINE SMOOTH",
"1300 221 OFFCURVE",
"1281 251 OFFCURVE",
"1281 303 CURVE SMOOTH",
"1281 359 LINE SMOOTH",
"1281 531 OFFCURVE",
"1214 652 OFFCURVE",
"1051 706 CURVE",
"1196 779 OFFCURVE",
"1268 878 OFFCURVE",
"1268 1020 CURVE SMOOTH",
"1268 1290 OFFCURVE",
"1062 1456 OFFCURVE",
"725 1456 CURVE SMOOTH",
"52 1456 LINE",
"52 1250 LINE",
"205 1213 LINE",
"205 243 LINE",
"52 205 LINE",
"52 0 LINE"
);
},
{
closed = 1;
nodes = (
"556 1189 LINE",
"725 1189 LINE SMOOTH",
"852 1189 OFFCURVE",
"919 1113 OFFCURVE",
"919 1004 CURVE SMOOTH",
"919 887 OFFCURVE",
"851 833 OFFCURVE",
"722 833 CURVE SMOOTH",
"556 833 LINE"
);
}
);
width = 1419;
},
{
layerId = "0331963E-C1C8-4E93-A463-84B984C1D75E";
paths = (
{
closed = 1;
nodes = (
"451 -1 LINE",
"451 53 LINE",
"288 53 LINE",
"288 683 LINE",
"681 683 LINE SMOOTH",
"931.667 683 OFFCURVE",
"1072 566.333 OFFCURVE",
"1072 369 CURVE SMOOTH",
"1072 226 LINE SMOOTH",
"1072 99.333 OFFCURVE",
"1113.667 0 OFFCURVE",
"1243 0 CURVE SMOOTH",
"1294 0 LINE",
"1294 54 LINE",
"1243 54 LINE SMOOTH",
"1165.667 54 OFFCURVE",
"1126 109.333 OFFCURVE",
"1126 224 CURVE SMOOTH",
"1126 371 LINE SMOOTH",
"1126 553.667 OFFCURVE",
"1042.333 675 OFFCURVE",
"833 711 CURVE",
"1014.333 751 OFFCURVE",
"1126 901 OFFCURVE",
"1126 1065 CURVE SMOOTH",
"1126 1319.667 OFFCURVE",
"954.667 1455 OFFCURVE",
"648 1455 CURVE SMOOTH",
"71 1455 LINE",
"71 1401 LINE",
"234 1401 LINE",
"234 53 LINE",
"71 53 LINE",
"71 -1 LINE"
);
},
{
closed = 1;
nodes = (
"288 1401 LINE",
"648 1401 LINE SMOOTH",
"929.333 1401 OFFCURVE",
"1072 1282.333 OFFCURVE",
"1072 1065 CURVE SMOOTH",
"1072 878.333 OFFCURVE",
"935.333 737 OFFCURVE",
"638 737 CURVE SMOOTH",
"288 737 LINE"
);
}
);
width = 1364;
},
{
layerId = "B06AEEA2-953E-4FA5-BFB1-0445B6E4B274";
paths = (
{
closed = 1;
nodes = (
"604 0 LINE",
"604 126 LINE",
"441 154 LINE",
"441 650 LINE",
"757 650 LINE SMOOTH",
"912 650 OFFCURVE",
"1011 546 OFFCURVE",
"1011 387 CURVE SMOOTH",
"1011 274 LINE SMOOTH",
"1011 122 OFFCURVE",
"1070 0 OFFCURVE",
"1223 0 CURVE SMOOTH",
"1329 0 LINE",
"1329 129 LINE",
"1281 135 LINE SMOOTH",
"1229 143 OFFCURVE",
"1208 183 OFFCURVE",
"1208 272 CURVE SMOOTH",
"1208 389 LINE SMOOTH",
"1208 561 OFFCURVE",
"1143 681 OFFCURVE",
"984 733 CURVE",
"1131 796 OFFCURVE",
"1212 909 OFFCURVE",
"1212 1050 CURVE SMOOTH",
"1212 1309 OFFCURVE",
"1037 1455 OFFCURVE",
"720 1455 CURVE SMOOTH",
"81 1455 LINE",
"81 1329 LINE",
"244 1301 LINE",
"244 154 LINE",
"81 126 LINE",
"81 0 LINE"
);
},
{
closed = 1;
nodes = (
"441 1301 LINE",
"720 1301 LINE SMOOTH",
"921 1301 OFFCURVE",
"1015 1205 OFFCURVE",
"1015 1052 CURVE SMOOTH",
"1015 891 OFFCURVE",
"920 805 OFFCURVE",
"700 805 CURVE SMOOTH",
"441 805 LINE"
);
}
);
width = 1396;
}
);
},
{
glyphname = a;
lastChange = "2018-07-30 18:45:21 +0000";
layers = (
{
anchors = (
{
name = bottom;
position = "{528, 0}";
},
{
name = ogonek;
position = "{1046, 0}";
},
{
name = top;
position = "{515, 1082}";
}
);
layerId = "0331963E-C1C8-4E93-A463-84B984C1D75E";
paths = (
{
closed = 1;
nodes = (
"598 -21 OFFCURVE",
"745 68 OFFCURVE",
"827 199 CURVE",
"827 128 OFFCURVE",
"832 95 OFFCURVE",
"849 0 CURVE",
"1046 0 LINE",
"1046 54 LINE",
"896 54 LINE",
"885 107 OFFCURVE",
"881 162 OFFCURVE",
"881 218 CURVE SMOOTH",
"881 740 LINE SMOOTH",
"881 962 OFFCURVE",
"754 1102 OFFCURVE",
"505 1102 CURVE SMOOTH",
"361 1102 OFFCURVE",
"254 1048 OFFCURVE",
"165 965 CURVE",
"165 759 LINE",
"219 759 LINE",
"219 936 LINE",
"287 999 OFFCURVE",
"386 1049 OFFCURVE",
"504 1049 CURVE SMOOTH",
"726 1049 OFFCURVE",
"827 922 OFFCURVE",
"827 742 CURVE SMOOTH",
"827 604 LINE",
"578 604 LINE SMOOTH",
"289 604 OFFCURVE",
"104 468.667 OFFCURVE",
"104 274 CURVE SMOOTH",
"104 98 OFFCURVE",
"227 -21 OFFCURVE",
"417 -21 CURVE SMOOTH"
);
},
{
closed = 1;
nodes = (
"266 32 OFFCURVE",
"158 135.333 OFFCURVE",
"158 270 CURVE SMOOTH",
"158 435.333 OFFCURVE",
"326 549 OFFCURVE",
"581 549 CURVE SMOOTH",
"827 549 LINE",
"827 292 LINE",
"751 129 OFFCURVE",
"581 32 OFFCURVE",
"417 32 CURVE SMOOTH"
);
}
);
width = 1116;
},
{
anchors = (
{
name = bottom;
position = "{551, 0}";
},
{
name = ogonek;
position = "{1053, 0}";
},
{
name = top;
position = "{534, 1082}";
}
);
layerId = "B06AEEA2-953E-4FA5-BFB1-0445B6E4B274";
paths = (
{
closed = 1;
nodes = (
"553 -21 OFFCURVE",
"673 52 OFFCURVE",
"749 149 CURVE",
"752 102 OFFCURVE",
"758 59 OFFCURVE",
"770 0 CURVE",
"1053 0 LINE",
"1053 126 LINE",
"948 137 LINE",
"945 164 OFFCURVE",
"945 190 OFFCURVE",
"945 218 CURVE SMOOTH",
"945 739 LINE SMOOTH",
"945 972 OFFCURVE",
"787 1102 OFFCURVE",
"524 1102 CURVE SMOOTH",
"367 1102 OFFCURVE",
"236 1061 OFFCURVE",
"139 982 CURVE",
"139 734 LINE",
"291 734 LINE",
"312 885 LINE",
"366 924 OFFCURVE",
"430 947 OFFCURVE",
"521 947 CURVE SMOOTH",
"665 947 OFFCURVE",
"748 872 OFFCURVE",
"748 741 CURVE SMOOTH",
"748 635 LINE",
"555 635 LINE SMOOTH",
"256 635 OFFCURVE",
"79 499 OFFCURVE",
"79 294 CURVE SMOOTH",
"79 94 OFFCURVE",
"199 -21 OFFCURVE",
"424 -21 CURVE SMOOTH"
);
},
{
closed = 1;
nodes = (
"334 144 OFFCURVE",
"276 195 OFFCURVE",
"276 290 CURVE SMOOTH",
"276 397 OFFCURVE",
"367 500 OFFCURVE",
"548 500 CURVE SMOOTH",
"748 500 LINE",
"748 304 LINE",
"701 216 OFFCURVE",
"584 144 OFFCURVE",
"453 144 CURVE SMOOTH"
);
}
);
width = 1132;
},
{
anchors = (
{
name = bottom;
position = "{584, 0}";
},
{
name = ogonek;
position = "{1151, 0}";
},
{
name = top;
position = "{555, 1082}";
}
);
layerId = "55372407-EEEC-4390-8B77-FB5958F23D2B";
paths = (
{
closed = 1;
nodes = (
"551 -21 OFFCURVE",
"626 27 OFFCURVE",
"691 108 CURVE",
"699 68 OFFCURVE",
"722 24 OFFCURVE",
"740 0 CURVE",
"1150 0 LINE",
"1150 205 LINE",
"1033 225 LINE",
"1028 252 OFFCURVE",
"1028 281 OFFCURVE",
"1028 312 CURVE SMOOTH",
"1028 711 LINE SMOOTH",
"1028 961 OFFCURVE",
"841 1102 OFFCURVE",
"547 1102 CURVE SMOOTH",
"381 1102 OFFCURVE",
"252 1056 OFFCURVE",
"130 1001 CURVE",
"135 700 LINE",
"382 700 LINE",
"406 838 LINE",
"438 859 OFFCURVE",
"478 871 OFFCURVE",
"523 871 CURVE SMOOTH",
"630 871 OFFCURVE",
"677 802 OFFCURVE",
"677 715 CURVE SMOOTH",
"677 651 LINE",
"564 651 LINE SMOOTH",
"233 651 OFFCURVE",
"71 507 OFFCURVE",
"71 305 CURVE SMOOTH",
"71 108 OFFCURVE",
"217 -21 OFFCURVE",
"426 -21 CURVE SMOOTH"
);
},
{
closed = 1;
nodes = (
"467 227 OFFCURVE",
"420 266 OFFCURVE",
"420 332 CURVE SMOOTH",
"420 400 OFFCURVE",
"473 445 OFFCURVE",
"568 445 CURVE SMOOTH",
"677 445 LINE",
"677 289 LINE",
"639 247 OFFCURVE",
"585 227 OFFCURVE",
"534 227 CURVE SMOOTH"
);
}
);
width = 1167;
}
);
leftKerningGroup = a;
rightKerningGroup = a;
unicode = 0061;
userData = {
com.typemytype.robofont.layerData = {
mask = {
anchors = (
);
components = (
);
contours = (
{
points = (
{
segmentType = line;
smooth = 0;
x = 885;
y = 0;
},
{
smooth = 0;
x = 867.66667;
y = 94.66667;
},
{
smooth = 0;
x = 863;
y = 128.33333;
},
{
segmentType = curve;
smooth = 1;
x = 863;
y = 183;
},
{
segmentType = line;
smooth = 0;
x = 863;
y = 199;
},
{
smooth = 0;
x = 780.33333;
y = 69.66667;
},
{
smooth = 0;
x = 628.33333;
y = -21;
},
{
segmentType = curve;
smooth = 1;
x = 427;
y = -21;
},
{
smooth = 0;
x = 227;
y = -21;
},
{
smooth = 0;
x = 104;
y = 98;
},
{
segmentType = curve;
smooth = 1;
x = 104;
y = 274;
},
{
smooth = 0;
x = 104;
y = 468.66667;
},
{
smooth = 0;
x = 295.33333;
y = 604;
},
{
segmentType = curve;
smooth = 1;
x = 594;
y = 604;
},
{
segmentType = line;
smooth = 0;
x = 863;
y = 604;
},
{
segmentType = line;
smooth = 1;
x = 863;
y = 762;
},
{
smooth = 0;
x = 863;
y = 942;
},
{
smooth = 0;
x = 742.33333;
y = 1048;
},
{
segmentType = curve;
smooth = 1;
x = 533;
y = 1048;
},
{
smooth = 0;
x = 395.66667;
y = 1048;
},
{
smooth = 0;
x = 272;
y = 1007;
},
{
segmentType = curve;
smooth = 0;
x = 188;
y = 939;
},
{
segmentType = line;
smooth = 0;
x = 187;
y = 766;
},
{
segmentType = line;
smooth = 0;
x = 133;
y = 766;
},
{
segmentType = line;
smooth = 0;
x = 134;
y = 972;
},
{
smooth = 0;
x = 236.66667;
y = 1048;
},
{
smooth = 0;
x = 382.33333;
y = 1102;
},
{
segmentType = curve;
smooth = 1;
x = 533;
y = 1102;
},
{
smooth = 0;
x = 765;
y = 1102;
},
{
smooth = 0;
x = 917;
y = 981.33333;
},
{
segmentType = curve;
smooth = 1;
x = 917;
y = 760;
},
{
segmentType = line;
smooth = 1;
x = 917;
y = 218;
},
{
smooth = 0;
x = 917;
y = 162;
},
{
smooth = 0;
x = 921.33333;
y = 107.33333;
},
{
segmentType = curve;
smooth = 0;
x = 932;
y = 54;
},
{
segmentType = line;
smooth = 0;
x = 1062;
y = 54;
},
{
segmentType = line;
smooth = 0;
x = 1062;
y = 0;
}
);
},
{
points = (
{
segmentType = curve;
smooth = 1;
x = 427;
y = 32;
},
{
smooth = 0;
x = 631;
y = 32;
},
{
smooth = 0;
x = 787;
y = 129.33333;
},
{
segmentType = curve;
smooth = 0;
x = 863;
y = 292;
},
{
segmentType = line;
smooth = 0;
x = 863;
y = 549;
},
{
segmentType = line;
smooth = 1;
x = 597;
y = 549;
},
{
smooth = 0;
x = 331.66667;
y = 549;
},
{
smooth = 0;
x = 158;
y = 435.33333;
},
{
segmentType = curve;
smooth = 1;
x = 158;
y = 270;
},
{
smooth = 0;
x = 158;
y = 135.33333;
},
{
smooth = 0;
x = 265.66667;
y = 32;
}
);
},
{
points = (
{
segmentType = line;
smooth = 0;
x = 885;
y = 0;
},
{
smooth = 0;
x = 867.66667;
y = 94.66667;
},
{
smooth = 0;
x = 863;
y = 128;
},
{
segmentType = curve;
smooth = 0;
x = 863;
y = 199;
},
{
smooth = 0;
x = 780.33333;
y = 69.66667;
},
{
smooth = 0;
x = 628.33333;
y = -21;
},
{
segmentType = curve;
smooth = 1;
x = 427;
y = -21;
},
{
smooth = 0;
x = 227;
y = -21;
},
{
smooth = 0;
x = 104;
y = 98;
},
{
segmentType = curve;
smooth = 1;
x = 104;
y = 274;
},
{
smooth = 0;
x = 104;
y = 468.66667;
},
{
smooth = 0;
x = 295.33333;
y = 604;
},
{
segmentType = curve;
smooth = 1;
x = 594;
y = 604;
},
{
segmentType = line;
smooth = 0;
x = 863;
y = 604;
},
{
segmentType = line;
smooth = 1;
x = 863;
y = 762;
},
{
smooth = 0;
x = 863;
y = 942;
},
{
smooth = 0;
x = 742.33333;
y = 1048;
},
{
segmentType = curve;
smooth = 1;
x = 533;
y = 1048;
},
{
smooth = 0;
x = 395.66667;
y = 1048;
},
{
smooth = 0;
x = 272;
y = 1007;
},
{
segmentType = curve;
smooth = 0;
x = 188;
y = 939;
},
{
segmentType = line;
smooth = 0;
x = 187;
y = 766;
},
{
segmentType = line;
smooth = 0;
x = 133;
y = 766;
},
{
segmentType = line;
smooth = 0;
x = 134;
y = 972;
},
{
smooth = 0;
x = 236.66667;
y = 1048;
},
{
smooth = 0;
x = 382.33333;
y = 1102;
},
{
segmentType = curve;
smooth = 1;
x = 533;
y = 1102;
},
{
smooth = 0;
x = 765;
y = 1102;
},
{
smooth = 0;
x = 917;
y = 981.33333;
},
{
segmentType = curve;
smooth = 1;
x = 917;
y = 760;
},
{
segmentType = line;
smooth = 1;
x = 917;
y = 218;
},
{
smooth = 0;
x = 917;
y = 162;
},
{
smooth = 0;
x = 921.33333;
y = 107.33333;
},
{
segmentType = curve;
smooth = 0;
x = 932;
y = 54;
},
{
segmentType = line;
smooth = 0;
x = 1062;
y = 54;
},
{
segmentType = line;
smooth = 0;
x = 1062;
y = 0;
}
);
},
{
points = (
{
segmentType = curve;
smooth = 1;
x = 427;
y = 32;
},
{
smooth = 0;
x = 631;
y = 32;
},
{
smooth = 0;
x = 787;
y = 129.33333;
},
{
segmentType = curve;
smooth = 0;
x = 863;
y = 292;
},
{
segmentType = line;
smooth = 0;
x = 863;
y = 549;
},
{
segmentType = line;
smooth = 1;
x = 597;
y = 549;
},
{
smooth = 0;
x = 331.66667;
y = 549;
},
{
smooth = 0;
x = 158;
y = 435.33333;
},
{
segmentType = curve;
smooth = 1;
x = 158;
y = 270;
},
{
smooth = 0;
x = 158;
y = 135.33333;
},
{
smooth = 0;
x = 265.66667;
y = 32;
}
);
}
);
lib = {
};
name = a;
unicodes = (
);
width = 1116;
};
};
com.typemytype.robofont.mark = (
1,
0.1703,
0.1669,
0.8287
);
};
},
{
glyphname = aringacute;
lastChange = "2018-07-30 19:30:48 +0000";
layers = (
{
components = (
{
name = a;
},
{
name = ringcomb_acutecomb;
transform = "{1, 0, 0, 1, 304, 0}";
}
);
layerId = "0331963E-C1C8-4E93-A463-84B984C1D75E";
width = 1116;
},
{
components = (
{
name = a;
},
{
name = ringcomb_acutecomb;
transform = "{1, 0, 0, 1, 281, 0}";
}
);
layerId = "B06AEEA2-953E-4FA5-BFB1-0445B6E4B274";
width = 1132;
},
{
components = (
{
name = a;
},
{
name = ringcomb_acutecomb;
transform = "{1, 0, 0, 1, 267, 0}";
}
);
layerId = "55372407-EEEC-4390-8B77-FB5958F23D2B";
width = 1167;
},
{
anchors = (
{
name = _top;
position = "{575.5, 1063}";
},
{
name = bottom;
position = "{551, 0}";
},
{
name = ogonek;
position = "{1053, 0}";
},
{
name = top;
position = "{551, 1082}";
}
);
associatedMasterId = "B06AEEA2-953E-4FA5-BFB1-0445B6E4B274";
layerId = "436F8AE7-8A92-4B56-9B78-DD917FDCAB66";
name = "Jul 27 18, 14:30";
paths = (
{
closed = 1;
nodes = (
"553 -21 OFFCURVE",
"673 52 OFFCURVE",
"749 149 CURVE",
"752 102 OFFCURVE",
"758 59 OFFCURVE",
"770 0 CURVE",
"1053 0 LINE",
"1053 126 LINE",
"948 137 LINE",
"945 164 OFFCURVE",
"945 190 OFFCURVE",
"945 218 CURVE SMOOTH",
"945 739 LINE SMOOTH",
"945 972 OFFCURVE",
"787 1102 OFFCURVE",
"524 1102 CURVE SMOOTH",
"367 1102 OFFCURVE",
"236 1061 OFFCURVE",
"139 982 CURVE",
"139 734 LINE",
"291 734 LINE",
"312 885 LINE",
"366 924 OFFCURVE",
"430 947 OFFCURVE",
"521 947 CURVE SMOOTH",
"665 947 OFFCURVE",
"748 872 OFFCURVE",
"748 741 CURVE SMOOTH",
"748 635 LINE",
"555 635 LINE SMOOTH",
"256 635 OFFCURVE",
"79 499 OFFCURVE",
"79 294 CURVE SMOOTH",
"79 94 OFFCURVE",
"199 -21 OFFCURVE",
"424 -21 CURVE SMOOTH"
);
},
{
closed = 1;
nodes = (
"334 144 OFFCURVE",
"276 195 OFFCURVE",
"276 290 CURVE SMOOTH",
"276 397 OFFCURVE",
"367 500 OFFCURVE",
"548 500 CURVE SMOOTH",
"748 500 LINE",
"748 304 LINE",
"701 216 OFFCURVE",
"584 144 OFFCURVE",
"453 144 CURVE SMOOTH"
);
},
{
closed = 1;
nodes = (
"690 1055 OFFCURVE",
"782 1134 OFFCURVE",
"782 1249 CURVE SMOOTH",
"782 1362 OFFCURVE",
"690 1447 OFFCURVE",
"577 1447 CURVE SMOOTH",
"461 1447 OFFCURVE",
"369 1361 OFFCURVE",
"369 1249 CURVE SMOOTH",
"369 1134 OFFCURVE",
"461 1055 OFFCURVE",
"577 1055 CURVE SMOOTH"
);
},
{
closed = 1;
nodes = (
"520 1145 OFFCURVE",
"472 1192 OFFCURVE",
"472 1249 CURVE SMOOTH",
"472 1309 OFFCURVE",
"518 1356 OFFCURVE",
"577 1356 CURVE SMOOTH",
"633 1356 OFFCURVE",
"679 1309 OFFCURVE",
"679 1249 CURVE SMOOTH",
"679 1189 OFFCURVE",
"633 1145 OFFCURVE",
"577 1145 CURVE SMOOTH"
);
},
{
closed = 1;
nodes = (
"869 1810 LINE",
"871 1804 LINE",
"602 1538 LINE",
"464 1538 LINE",
"455 1538 LINE",
"639 1810 LINE"
);
}
);
width = 1128;
}
);
leftKerningGroup = a;
rightKerningGroup = a;
unicode = 01FB;
},
{
glyphname = ae;
lastChange = "2018-07-27 22:42:56 +0000";
layers = (
{
anchors = (
{
name = bottom;
position = "{897, 0}";
},
{
name = top;
position = "{897, 1082}";
}
);
layerId = "0331963E-C1C8-4E93-A463-84B984C1D75E";
paths = (
{
closed = 1;
nodes = (
"616 -21 OFFCURVE",
"777 87 OFFCURVE",
"870 248 CURVE",
"948 71 OFFCURVE",
"1084 -21 OFFCURVE",
"1279 -21 CURVE SMOOTH",
"1452 -21 OFFCURVE",
"1554 34 OFFCURVE",
"1641 122 CURVE",
"1611 164 LINE",
"1530 81 OFFCURVE",
"1415 33 OFFCURVE",
"1279 33 CURVE SMOOTH",
"1012 33 OFFCURVE",
"881 222 OFFCURVE",
"881 500 CURVE SMOOTH",
"881 577 LINE",
"1668 577 LINE",
"1668 660 LINE SMOOTH",
"1668 933 OFFCURVE",
"1515 1102 OFFCURVE",
"1264 1102 CURVE SMOOTH",
"1090 1102 OFFCURVE",
"926 988 OFFCURVE",
"873 829 CURVE",
"847 998 OFFCURVE",
"723 1102 OFFCURVE",
"505 1102 CURVE SMOOTH",
"361 1102 OFFCURVE",
"254 1048 OFFCURVE",
"165 965 CURVE",
"165 759 LINE",
"219 759 LINE",
"219 936 LINE",
"287 999 OFFCURVE",
"386 1049 OFFCURVE",
"504 1049 CURVE SMOOTH",
"726 1049 OFFCURVE",
"827 922 OFFCURVE",
"827 742 CURVE SMOOTH",
"827 632 LINE",
"578 632 LINE SMOOTH",
"289 632 OFFCURVE",
"104 491 OFFCURVE",
"104 288 CURVE SMOOTH",
"104 104 OFFCURVE",
"227 -21 OFFCURVE",
"417 -21 CURVE SMOOTH"
);
},
{
closed = 1;
nodes = (
"266 32 OFFCURVE",
"158 141 OFFCURVE",
"158 284 CURVE SMOOTH",
"158 457 OFFCURVE",
"326 577 OFFCURVE",
"581 577 CURVE SMOOTH",
"827 577 LINE",
"827 502 LINE SMOOTH",
"827 437 OFFCURVE",
"833 372 OFFCURVE",
"842 309 CURVE",
"763 135 OFFCURVE",
"584 32 OFFCURVE",
"417 32 CURVE SMOOTH"
);
},
{
closed = 1;
nodes = (
"881 637 LINE",
"898 874 OFFCURVE",
"1047 1048 OFFCURVE",
"1264 1048 CURVE SMOOTH",
"1487 1048 OFFCURVE",
"1614 888 OFFCURVE",
"1614 664 CURVE SMOOTH",
"1614 632 LINE",
"883 632 LINE"
);
}
);
width = 1795;
},
{
anchors = (
{
name = bottom;
position = "{892, 0}";
},
{
name = top;
position = "{892, 1082}";
}
);
layerId = "B06AEEA2-953E-4FA5-BFB1-0445B6E4B274";
paths = (
{
closed = 1;
nodes = (
"601 -21 OFFCURVE",
"737 51 OFFCURVE",
"831 190 CURVE",
"933 53 OFFCURVE",
"1079 -21 OFFCURVE",
"1259 -21 CURVE SMOOTH",
"1444 -21 OFFCURVE",
"1568 41 OFFCURVE",
"1641 101 CURVE",
"1573 239 LINE",
"1469 171 OFFCURVE",
"1398 133 OFFCURVE",
"1259 133 CURVE SMOOTH",
"1052 133 OFFCURVE",
"947 278 OFFCURVE",
"946 490 CURVE",
"948 495 LINE",
"1658 495 LINE",
"1658 614 LINE SMOOTH",
"1658 918 OFFCURVE",
"1498 1102 OFFCURVE",
"1213 1102 CURVE SMOOTH",
"1078 1102 OFFCURVE",
"959 1043 OFFCURVE",
"874 937 CURVE",
"809 1046 OFFCURVE",
"688 1102 OFFCURVE",
"525 1102 CURVE SMOOTH",
"368 1102 OFFCURVE",
"237 1061 OFFCURVE",
"140 982 CURVE",
"140 734 LINE",
"292 734 LINE",
"313 885 LINE",
"367 924 OFFCURVE",
"431 947 OFFCURVE",
"522 947 CURVE SMOOTH",
"666 947 OFFCURVE",
"749 872 OFFCURVE",
"749 741 CURVE SMOOTH",
"749 640 LINE",
"556 640 LINE SMOOTH",
"256 640 OFFCURVE",
"79 506 OFFCURVE",
"79 302 CURVE SMOOTH",
"79 98 OFFCURVE",
"202 -21 OFFCURVE",
"435 -21 CURVE SMOOTH"
);
},
{
closed = 1;
nodes = (
"334 144 OFFCURVE",
"276 211 OFFCURVE",
"276 298 CURVE SMOOTH",
"276 405 OFFCURVE",
"367 505 OFFCURVE",
"549 505 CURVE SMOOTH",
"749 505 LINE",
"749 504 LINE SMOOTH",
"749 447 OFFCURVE",
"752 407 OFFCURVE",
"760 342 CURVE",
"711 234 OFFCURVE",
"589 144 OFFCURVE",
"454 144 CURVE SMOOTH"
);
},
{
closed = 1;
nodes = (
"948 645 LINE",
"963 822 OFFCURVE",
"1060 947 OFFCURVE",
"1213 947 CURVE SMOOTH",
"1384 947 OFFCURVE",
"1461 834 OFFCURVE",
"1461 671 CURVE SMOOTH",
"1461 640 LINE",
"950 640 LINE"
);
}
);
width = 1737;
},
{
anchors = (
{
name = bottom;
position = "{824, 0}";
},
{
name = top;
position = "{863, 1082}";
}
);
layerId = "55372407-EEEC-4390-8B77-FB5958F23D2B";
paths = (
{
closed = 1;
nodes = (
"614 -21 OFFCURVE",
"727 30 OFFCURVE",
"825 115 CURVE",
"909 26 OFFCURVE",
"1033 -21 OFFCURVE",
"1191 -21 CURVE SMOOTH",
"1348 -21 OFFCURVE",
"1517 33 OFFCURVE",
"1606 99 CURVE",
"1523 312 LINE",
"1419 266 OFFCURVE",
"1354 246 OFFCURVE",
"1248 246 CURVE SMOOTH",
"1102 246 OFFCURVE",
"1035 312 OFFCURVE",
"1027 422 CURVE",
"1029 429 LINE",
"1642 429 LINE",
"1642 611 LINE SMOOTH",
"1642 910 OFFCURVE",
"1464 1102 OFFCURVE",
"1183 1102 CURVE SMOOTH",
"1056 1102 OFFCURVE",
"954 1064 OFFCURVE",
"871 981 CURVE",
"796 1063 OFFCURVE",
"684 1102 OFFCURVE",
"547 1102 CURVE SMOOTH",
"381 1102 OFFCURVE",
"252 1056 OFFCURVE",
"130 1001 CURVE",
"135 700 LINE",
"382 700 LINE",
"406 838 LINE",
"438 859 OFFCURVE",
"478 871 OFFCURVE",
"523 871 CURVE SMOOTH",
"630 871 OFFCURVE",
"677 802 OFFCURVE",
"677 715 CURVE SMOOTH",
"677 651 LINE",
"564 651 LINE SMOOTH",
"233 651 OFFCURVE",
"71 507 OFFCURVE",
"71 305 CURVE SMOOTH",
"71 108 OFFCURVE",
"217 -21 OFFCURVE",
"456 -21 CURVE SMOOTH"
);
},
{
closed = 1;
nodes = (
"467 227 OFFCURVE",
"420 266 OFFCURVE",
"420 332 CURVE SMOOTH",
"420 400 OFFCURVE",
"473 445 OFFCURVE",
"568 445 CURVE SMOOTH",
"677 445 LINE",
"677 434 LINE SMOOTH",
"677 395 OFFCURVE",
"683 342 OFFCURVE",
"700 299 CURVE",
"657 250 OFFCURVE",
"591 227 OFFCURVE",
"535 227 CURVE SMOOTH"
);
},
{
closed = 1;
nodes = (
"1027 651 LINE",
"1033 768 OFFCURVE",
"1086 834 OFFCURVE",
"1170 834 CURVE SMOOTH",
"1249 834 OFFCURVE",
"1301 775 OFFCURVE",
"1301 673 CURVE SMOOTH",
"1301 646 LINE",
"1029 646 LINE"
);
}
);
width = 1710;
}
);
leftMetricsKey = a;
rightMetricsKey = e;
unicode = 00E6;
userData = {
com.typemytype.robofont.layerData = {
mask = {
anchors = (
);
components = (
);
contours = (
{
points = (
{
segmentType = curve;
smooth = 1;
x = 1272;
y = -21;
},
{
smooth = 0;
x = 1081.33333;
y = -21;
},
{
smooth = 0;
x = 942.66667;
y = 71.33333;
},
{
segmentType = curve;
smooth = 0;
x = 872;
y = 230;
},
{
segmentType = line;
smooth = 0;
x = 872;
y = 218;
},
{
segmentType = line;
smooth = 0;
x = 873;
y = 218;
},
{
smooth = 0;
x = 814.33333;
y = 91.33333;
},
{
smooth = 0;
x = 664;
y = -21;
},
{
segmentType = curve;
smooth = 1;
x = 452;
y = -21;
},
{
smooth = 0;
x = 226.66667;
y = -21;
},
{
smooth = 0;
x = 97;
y = 96;
},
{
segmentType = curve;
smooth = 1;
x = 97;
y = 284;
},
{
smooth = 0;
x = 97;
y = 493.33333;
},
{
smooth = 0;
x = 251;
y = 630;
},
{
segmentType = curve;
smooth = 1;
x = 527;
y = 630;
},
{
segmentType = line;
smooth = 0;
x = 817;
y = 630;
},
{
segmentType = line;
smooth = 1;
x = 817;
y = 720;
},
{
smooth = 0;
x = 817;
y = 930.66667;
},
{
smooth = 0;
x = 719.66667;
y = 1048;
},
{
segmentType = curve;
smooth = 1;
x = 525;
y = 1048;
},
{
smooth = 0;
x = 309;
y = 1048;
},
{
smooth = 0;
x = 178;
y = 932.33333;
},
{
segmentType = curve;
smooth = 0;
x = 178;
y = 771;
},
{
segmentType = line;
smooth = 0;
x = 133;
y = 777;
},
{
segmentType = line;
smooth = 0;
x = 131;
y = 783;
},
{
smooth = 0;
x = 124.33333;
y = 967;
},
{
smooth = 0;
x = 282.33333;
y = 1102;
},
{
segmentType = curve;
smooth = 1;
x = 525;
y = 1102;
},
{
smooth = 0;
x = 709;
y = 1102;
},
{
smooth = 0;
x = 833.33333;
y = 1002;
},
{
segmentType = curve;
smooth = 0;
x = 864;
y = 814;
},
{
smooth = 0;
x = 934.66667;
y = 991.33333;
},
{
smooth = 0;
x = 1081;
y = 1102;
},
{
segmentType = curve;
smooth = 1;
x = 1257;
y = 1102;
},
{
smooth = 0;
x = 1507.66667;
y = 1102;
},
{
smooth = 0;
x = 1661;
y = 933.33333;
},
{
segmentType = curve;
smooth = 1;
x = 1661;
y = 660;
},
{
segmentType = line;
smooth = 0;
x = 1661;
y = 577;
},
{
segmentType = line;
smooth = 0;
x = 874;
y = 577;
},
{
segmentType = line;
smooth = 0;
x = 874;
y = 564;
},
{
segmentType = line;
smooth = 1;
x = 874;
y = 500;
},
{
smooth = 0;
x = 874;
y = 222.66667;
},
{
smooth = 0;
x = 1005.33333;
y = 33;
},
{
segmentType = curve;
smooth = 1;
x = 1272;
y = 33;
},
{
smooth = 0;
x = 1408;
y = 33;
},
{
smooth = 0;
x = 1522.66667;
y = 81.33333;
},
{
segmentType = curve;
smooth = 0;
x = 1604;
y = 164;
},
{
segmentType = line;
smooth = 0;
x = 1634;
y = 122;
},
{
smooth = 0;
x = 1547.33333;
y = 34;
},
{
smooth = 0;
x = 1445.33333;
y = -21;
}
);
},
{
points = (
{
segmentType = curve;
smooth = 1;
x = 451;
y = 31;
},
{
smooth = 0;
x = 624.33333;
y = 31;
},
{
smooth = 0;
x = 787.66667;
y = 141;
},
{
segmentType = curve;
smooth = 0;
x = 817;
y = 225;
},
{
segmentType = line;
smooth = 0;
x = 817;
y = 575;
},
{
segmentType = line;
smooth = 1;
x = 529;
y = 575;
},
{
smooth = 0;
x = 282.33333;
y = 575;
},
{
smooth = 0;
x = 152;
y = 449.33333;
},
{
segmentType = curve;
smooth = 1;
x = 152;
y = 280;
},
{
smooth = 0;
x = 152;
y = 124;
},
{
smooth = 0;
x = 259;
y = 31;
}
);
},
{
points = (
{
segmentType = curve;
smooth = 1;
x = 1257;
y = 1048;
},
{
smooth = 0;
x = 1045;
y = 1048;
},
{
smooth = 0;
x = 899.33333;
y = 874.33333;
},
{
segmentType = curve;
smooth = 0;
x = 882;
y = 637;
},
{
segmentType = line;
smooth = 0;
x = 884;
y = 632;
},
{
segmentType = line;
smooth = 0;
x = 1607;
y = 632;
},
{
segmentType = line;
smooth = 1;
x = 1607;
y = 664;
},
{
smooth = 0;
x = 1607;
y = 888;
},
{
smooth = 0;
x = 1479.66667;
y = 1048;
}
);
}
);
lib = {
};
name = ae;
unicodes = (
);
width = 1779;
};
};
};
},
{
glyphname = b;
lastChange = "2018-07-30 13:27:18 +0000";
layers = (
{
anchors = (
{
name = bottom;
position = "{544, 0}";
},
{
name = top;
position = "{183, 1456}";
}
);
layerId = "0331963E-C1C8-4E93-A463-84B984C1D75E";
paths = (
{
closed = 1;
nodes = (
"831.333 -21 OFFCURVE",
"984 187.667 OFFCURVE",
"984 521 CURVE SMOOTH",
"984 542 LINE SMOOTH",
"984 884.667 OFFCURVE",
"830.667 1102 OFFCURVE",
"576 1102 CURVE SMOOTH",
"404 1102 OFFCURVE",
"281 1019.667 OFFCURVE",
"209 885 CURVE",
"209 1560 LINE",
"-8 1560 LINE",
"-8 1506 LINE",
"155 1506 LINE",
"155 0 LINE",
"200 0 LINE",
"207 173 LINE",
"277.667 54.333 OFFCURVE",
"406 -21 OFFCURVE",
"578 -21 CURVE SMOOTH"
);
},
{
closed = 1;
nodes = (
"387 33 OFFCURVE",
"261 127.333 OFFCURVE",
"209 274 CURVE",
"209 770 LINE",
"258.333 926 OFFCURVE",
"366.333 1048 OFFCURVE",
"577 1048 CURVE SMOOTH",
"805 1048 OFFCURVE",
"928 842 OFFCURVE",
"928 542 CURVE SMOOTH",
"928 521 LINE SMOOTH",
"928 222.333 OFFCURVE",
"807 33 OFFCURVE",
"579 33 CURVE SMOOTH"
);
}
);
width = 1088;
},
{
anchors = (
{
name = bottom;
position = "{587, 0}";
},
{
name = top;
position = "{246, 1456}";
}
);
layerId = "B06AEEA2-953E-4FA5-BFB1-0445B6E4B274";
paths = (
{
closed = 1;
nodes = (
"912 -21 OFFCURVE",
"1071 188 OFFCURVE",
"1071 500 CURVE SMOOTH",
"1071 521 LINE SMOOTH",
"1071 869 OFFCURVE",
"914 1102 OFFCURVE",
"647 1102 CURVE SMOOTH",
"512 1102 OFFCURVE",
"412 1050 OFFCURVE",
"344 954 CURVE",
"344 1560 LINE",
"-16 1560 LINE",
"-16 1433 LINE",
"147 1405 LINE",
"147 0 LINE",
"317 0 LINE",
"335 139 LINE",
"404 34 OFFCURVE",
"508 -21 OFFCURVE",
"649 -21 CURVE SMOOTH"
);
},
{
closed = 1;
nodes = (
"478 139 OFFCURVE",
"393 202 OFFCURVE",
"344 302 CURVE",
"344 780 LINE",
"393 879 OFFCURVE",
"476 942 OFFCURVE",
"597 942 CURVE SMOOTH",
"784 942 OFFCURVE",
"873 770 OFFCURVE",
"873 521 CURVE SMOOTH",
"873 500 LINE SMOOTH",
"873 283 OFFCURVE",
"784 139 OFFCURVE",
"599 139 CURVE SMOOTH"
);
}
);
width = 1145;
},
{
anchors = (
{
name = bottom;
position = "{602, 0}";
},
{
name = top;
position = "{301, 1456}";
}
);
layerId = "55372407-EEEC-4390-8B77-FB5958F23D2B";
paths = (
{
closed = 1;
nodes = (
"991 -21 OFFCURVE",
"1133 189 OFFCURVE",
"1133 518 CURVE SMOOTH",
"1133 539 LINE SMOOTH",
"1133 883 OFFCURVE",
"990 1102 OFFCURVE",
"732 1102 CURVE SMOOTH",
"618 1102 OFFCURVE",
"533 1056 OFFCURVE",
"474 975 CURVE",
"474 1560 LINE",
"-26 1560 LINE",
"-26 1354 LINE",
"124 1322 LINE",
"124 0 LINE",
"427 0 LINE",
"450 129 LINE",
"511 32 OFFCURVE",
"596 -21 OFFCURVE",
"726 -21 CURVE SMOOTH"
);
},
{
closed = 1;
nodes = (
"557 248 OFFCURVE",
"508 266 OFFCURVE",
"474 312 CURVE",
"474 747 LINE",
"502 800 OFFCURVE",
"553 833 OFFCURVE",
"619 833 CURVE SMOOTH",
"738 833 OFFCURVE",
"784 726 OFFCURVE",
"784 539 CURVE SMOOTH",
"784 518 LINE SMOOTH",
"784 337 OFFCURVE",
"741 248 OFFCURVE",
"614 248 CURVE SMOOTH"
);
}
);
width = 1203;
}
);
rightKerningGroup = b;
unicode = 0062;
},
{
glyphname = c;
lastChange = "2018-07-30 17:58:09 +0000";
layers = (
{
anchors = (
{
name = bottom;
position = "{541, 0}";
},
{
name = top;
position = "{541, 1082}";
}
);
layerId = "0331963E-C1C8-4E93-A463-84B984C1D75E";
paths = (
{
closed = 1;
nodes = (
"759 -21 OFFCURVE",
"912 94 OFFCURVE",
"937 317 CURVE",
"935 323 LINE",
"889 323 LINE",
"865 125 OFFCURVE",
"728 33 OFFCURVE",
"543 33 CURVE SMOOTH",
"311 33 OFFCURVE",
"158 232 OFFCURVE",
"158 520 CURVE SMOOTH",
"158 562 LINE SMOOTH",
"158 847 OFFCURVE",
"310 1048 OFFCURVE",
"539 1048 CURVE SMOOTH",
"674 1048 OFFCURVE",
"780 996 OFFCURVE",
"866 905 CURVE",
"866 693 LINE",
"920 693 LINE",
"920 925 LINE",
"833 1024 OFFCURVE",
"701 1102 OFFCURVE",
"538 1102 CURVE SMOOTH",
"284 1102 OFFCURVE",
"104 885 OFFCURVE",
"104 562 CURVE SMOOTH",
"104 520 LINE SMOOTH",
"104 196 OFFCURVE",
"291 -21 OFFCURVE",
"540 -21 CURVE SMOOTH"
);
}
);
width = 1082;
},
{
anchors = (
{
name = bottom;
position = "{557, 0}";
},
{
name = top;
position = "{557, 1082}";
}
);
layerId = "B06AEEA2-953E-4FA5-BFB1-0445B6E4B274";
paths = (
{
closed = 1;
nodes = (
"833 -21 OFFCURVE",
"977 146 OFFCURVE",
"988 333 CURVE",
"986 339 LINE",
"809 339 LINE",
"789 211 OFFCURVE",
"695 133 OFFCURVE",
"562 133 CURVE SMOOTH",
"384 133 OFFCURVE",
"275 283 OFFCURVE",
"275 520 CURVE SMOOTH",
"275 562 LINE SMOOTH",
"275 775 OFFCURVE",
"394 947 OFFCURVE",
"570 947 CURVE SMOOTH",
"662 947 OFFCURVE",
"730 917 OFFCURVE",
"775 870 CURVE",
"809 681 LINE",
"963 681 LINE",
"958 941 LINE",
"869 1041 OFFCURVE",
"738 1102 OFFCURVE",
"563 1102 CURVE SMOOTH",
"260 1102 OFFCURVE",
"78 870 OFFCURVE",
"78 562 CURVE SMOOTH",
"78 520 LINE SMOOTH",
"78 199 OFFCURVE",
"268 -21 OFFCURVE",
"563 -21 CURVE SMOOTH"
);
}
);
width = 1067;
},
{
anchors = (
{
name = bottom;
position = "{553, 0}";
},
{
name = top;
position = "{553, 1082}";
}
);
layerId = "55372407-EEEC-4390-8B77-FB5958F23D2B";
paths = (
{
closed = 1;
nodes = (
"868 -21 OFFCURVE",
"981 107 OFFCURVE",
"1030 364 CURVE",
"1026 370 LINE",
"732 370 LINE",
"707 289 OFFCURVE",
"665 246 OFFCURVE",
"581 246 CURVE SMOOTH",
"499 246 OFFCURVE",
"411 314 OFFCURVE",
"411 528 CURVE SMOOTH",
"411 551 LINE SMOOTH",
"411 756 OFFCURVE",
"462 851 OFFCURVE",
"612 851 CURVE SMOOTH",
"637 851 OFFCURVE",
"682 834 OFFCURVE",
"705 812 CURVE",
"747 616 LINE",
"1008 616 LINE",
"1014 957 LINE",
"928 1025 OFFCURVE",
"780 1102 OFFCURVE",
"574 1102 CURVE SMOOTH",
"266 1102 OFFCURVE",
"60 876 OFFCURVE",
"60 551 CURVE SMOOTH",
"60 528 LINE SMOOTH",
"60 210 OFFCURVE",
"255 -21 OFFCURVE",
"577 -21 CURVE SMOOTH"
);
}
);
width = 1092;
}
);
leftKerningGroup = alpha;
leftMetricsKey = "=o";
rightKerningGroup = c;
unicode = 0063;
userData = {
com.typemytype.robofont.layerData = {
mask = {
anchors = (
);
components = (
);
contours = (
{
points = (
{
segmentType = curve;
smooth = 1;
x = 546;
y = 33;
},
{
smooth = 0;
x = 728.66667;
y = 33;
},
{
smooth = 0;
x = 893;
y = 133;
},
{
segmentType = curve;
smooth = 0;
x = 893;
y = 333;
},
{
segmentType = line;
smooth = 0;
x = 939;
y = 333;
},
{
segmentType = line;
smooth = 0;
x = 941;
y = 327;
},
{
smooth = 0;
x = 946.33333;
y = 115;
},
{
smooth = 0;
x = 756.66667;
y = -21;
},
{
segmentType = curve;
smooth = 1;
x = 546;
y = -21;
},
{
smooth = 0;
x = 270;
y = -21;
},
{
smooth = 0;
x = 104;
y = 196;
},
{
segmentType = curve;
smooth = 1;
x = 104;
y = 520;
},
{
segmentType = line;
smooth = 1;
x = 104;
y = 562;
},
{
smooth = 0;
x = 104;
y = 884.66667;
},
{
smooth = 0;
x = 269.33333;
y = 1102;
},
{
segmentType = curve;
smooth = 1;
x = 544;
y = 1102;
},
{
smooth = 0;
x = 706.66667;
y = 1102;
},
{
smooth = 0;
x = 853;
y = 1029.66667;
},
{
segmentType = curve;
smooth = 0;
x = 937;
y = 915;
},
{
segmentType = line;
smooth = 0;
x = 937;
y = 683;
},
{
segmentType = line;
smooth = 0;
x = 883;
y = 683;
},
{
segmentType = line;
smooth = 0;
x = 883;
y = 895;
},
{
smooth = 0;
x = 807;
y = 988.33333;
},
{
smooth = 0;
x = 689.33333;
y = 1048;
},
{
segmentType = curve;
smooth = 1;
x = 544;
y = 1048;
},
{
smooth = 0;
x = 290.66667;
y = 1048;
},
{
smooth = 0;
x = 158;
y = 847.33333;
},
{
segmentType = curve;
smooth = 1;
x = 158;
y = 562;
},
{
segmentType = line;
smooth = 1;
x = 158;
y = 520;
},
{
smooth = 0;
x = 158;
y = 232;
},
{
smooth = 0;
x = 290;
y = 33;
}
);
}
);
lib = {
};
name = c;
unicodes = (
);
width = 1082;
};
};
com.typemytype.robofont.mark = (
1,
0.1703,
0.1669,
0.8287
);
};
},
{
glyphname = d;
lastChange = "2018-07-30 18:33:34 +0000";
layers = (
{
anchors = (
{
name = bottom;
position = "{543, 0}";
},
{
name = center;
position = "{836, 1285}";
},
{
name = top;
position = "{886, 1456}";
},
{
name = topright;
position = "{1109, 1560}";
}
);
layerId = "0331963E-C1C8-4E93-A463-84B984C1D75E";
paths = (
{
closed = 1;
nodes = (
"680.667 -21 OFFCURVE",
"808.333 54.333 OFFCURVE",
"879 173 CURVE",
"881 0 LINE",
"1096 0 LINE",
"1096 54 LINE",
"933 54 LINE",
"933 1560 LINE",
"879 1560 LINE",
"716 1560 LINE",
"716 1506 LINE",
"879 1506 LINE",
"879 883 LINE",
"805.667 1019 OFFCURVE",
"682.667 1102 OFFCURVE",
"512 1102 CURVE SMOOTH",
"256 1102 OFFCURVE",
"104 884.667 OFFCURVE",
"104 542 CURVE SMOOTH",
"104 521 LINE SMOOTH",
"104 187.667 OFFCURVE",
"255.333 -21 OFFCURVE",
"510 -21 CURVE SMOOTH"
);
},
{
closed = 1;
nodes = (
"279.667 33 OFFCURVE",
"160 222.333 OFFCURVE",
"160 521 CURVE SMOOTH",
"160 542 LINE SMOOTH",
"160 842 OFFCURVE",
"281.667 1048 OFFCURVE",
"511 1048 CURVE SMOOTH",
"717.667 1048 OFFCURVE",
"827 929.667 OFFCURVE",
"879 775 CURVE",
"879 268 LINE",
"823 125.333 OFFCURVE",
"697 33 OFFCURVE",
"509 33 CURVE SMOOTH"
);
}
);
width = 1205;
},
{
anchors = (
{
name = bottom;
position = "{611, 0}";
},
{
name = center;
position = "{855, 1232}";
},
{
name = top;
position = "{860, 1456}";
},
{
name = topright;
position = "{1222, 1560}";
}
);
layerId = "B06AEEA2-953E-4FA5-BFB1-0445B6E4B274";
leftMetricsKey = "=o";
paths = (
{
closed = 1;
nodes = (
"634 -21 OFFCURVE",
"735 30 OFFCURVE",
"806 129 CURVE",
"822 0 LINE",
"1156 0 LINE",
"1156 126 LINE",
"993 154 LINE",
"993 1560 LINE",
"796 1560 LINE",
"633 1560 LINE",
"633 1433 LINE",
"796 1405 LINE",
"796 964 LINE",
"727 1053 OFFCURVE",
"629 1102 OFFCURVE",
"501 1102 CURVE SMOOTH",
"234 1102 OFFCURVE",
"78 869 OFFCURVE",
"78 521 CURVE SMOOTH",
"78 500 LINE SMOOTH",
"78 188 OFFCURVE",
"235 -21 OFFCURVE",
"499 -21 CURVE SMOOTH"
);
},
{
closed = 1;
nodes = (
"362 139 OFFCURVE",
"275 283 OFFCURVE",
"275 500 CURVE SMOOTH",
"275 521 LINE SMOOTH",
"275 770 OFFCURVE",
"363 942 OFFCURVE",
"551 942 CURVE SMOOTH",
"664 942 OFFCURVE",
"745 885 OFFCURVE",
"796 794 CURVE",
"796 292 LINE",
"744 195 OFFCURVE",
"666 139 OFFCURVE",
"549 139 CURVE SMOOTH"
);
}
);
width = 1218;
},
{
anchors = (
{
name = bottom;
position = "{589, -21}";
},
{
name = center;
position = "{877, 1198}";
},
{
name = top;
position = "{859, 1456}";
},
{
name = topright;
position = "{1280, 1560}";
}
);
layerId = "55372407-EEEC-4390-8B77-FB5958F23D2B";
paths = (
{
closed = 1;
nodes = (
"589 -21 OFFCURVE",
"676 33 OFFCURVE",
"742 134 CURVE",
"768 0 LINE",
"1198 0 LINE",
"1198 205 LINE",
"1072 237 LINE",
"1072 1560 LINE",
"721 1560 LINE",
"569 1560 LINE",
"569 1354 LINE",
"721 1322 LINE",
"721 967 LINE",
"658 1052 OFFCURVE",
"578 1102 OFFCURVE",
"463 1102 CURVE SMOOTH",
"214 1102 OFFCURVE",
"60 876 OFFCURVE",
"60 539 CURVE SMOOTH",
"60 518 LINE SMOOTH",
"60 193 OFFCURVE",
"212 -21 OFFCURVE",
"467 -21 CURVE SMOOTH"
);
},
{
closed = 1;
nodes = (
"452 248 OFFCURVE",
"411 346 OFFCURVE",
"411 518 CURVE SMOOTH",
"411 539 LINE SMOOTH",
"411 715 OFFCURVE",
"457 833 OFFCURVE",
"578 833 CURVE SMOOTH",
"638 833 OFFCURVE",
"688 804 OFFCURVE",
"721 749 CURVE",
"721 316 LINE",
"688 271 OFFCURVE",
"635 248 OFFCURVE",
"576 248 CURVE SMOOTH"
);
}
);
width = 1208;
}
);
leftKerningGroup = alpha;
leftMetricsKey = "=o";
unicode = 0064;
},
